<svg xmlns="http://www.w3.org/2000/svg" viewBox="0 0 88 88"><title>acds_icon</title><g id="e0c57f7c-7e87-43fa-8050-47eb0da7350d" data-name="Layer 2"><g id="ad522b5a-05a0-4ddd-86be-fc0e987c6cad" data-name="Layer 1"><path d="M60,0A28.0051,28.0051,0,0,0,32,28h-.01v3.99H28a28,28,0,0,0,0,56V88H88V28A27.99869,27.99869,0,0,0,60,0Zm4,63.99H56v-8h8ZM80,80H72V47.99H56v-8H72V28a12,12,0,0,0-24,0V71.99H64V80l-36-.01a20,20,0,0,1,0-40h3.99v8H28a12,12,0,0,0,0,24H39.99V28H40a20,20,0,0,1,40,0ZM56,31.99V28a4,4,0,0,1,8,0v3.99Zm-24.01,24v8H28a4,4,0,0,1,0-8Z"/></g></g></svg>