<svg xmlns="http://www.w3.org/2000/svg" viewBox="0 0 62.43748 62.43748"><title>  bold</title><g id="b22186ea-c622-4b30-9b30-a42e71fcd974" data-name="Layer 2"><g id="b5db3424-a367-4833-bf2c-874b5c8fd575" data-name="Layer 1"><path d="M62.43038,19.86647A19.86441,19.86441,0,0,0,42.56617,0H0V42.571H.0071A19.8689,19.8689,0,0,0,19.87131,62.43748H62.43748v-42.571ZM56.762,56.76135H19.87131A14.19015,14.19015,0,0,1,5.68259,42.571h-.0071V5.67613H42.56617A14.18566,14.18566,0,0,1,56.75489,19.86647h.0071ZM42.56617,11.35227c-.07093,0-.149,0-.21993.0071H11.35808V42.571a8.51591,8.51591,0,0,0,8.51323,8.5142H51.0794V19.86647A8.51137,8.51137,0,0,0,42.56617,11.35227Zm2.83774,34.05681H19.87131A2.83708,2.83708,0,0,1,17.03357,42.571V17.03551h25.3907a.94889.94889,0,0,1,.1419-.00711,2.83713,2.83713,0,0,1,2.83774,2.83807Z" style="fill:#fff"/></g></g></svg>