<svg xmlns="http://www.w3.org/2000/svg" viewBox="0 0 62.43748 62.43748"><title>complex</title><g id="b41813f3-545d-47ec-ba62-8a25fa574ce2" data-name="Layer 2"><g id="a554fcd8-b6ab-4cbb-900b-54bdb821fa18" data-name="Layer 1"><path d="M62.43748,27.546V0H34.89153a12.82091,12.82091,0,0,0-3.682.53714A12.71611,12.71611,0,0,0,27.546.00457V0H0V27.546a12.82055,12.82055,0,0,0,.53714,3.682A12.71646,12.71646,0,0,0,.0046,34.89153H0v27.546H27.546a12.82092,12.82092,0,0,0,3.682-.53717,12.71611,12.71611,0,0,0,3.6636.53257v.0046h27.546V34.89153a12.8206,12.8206,0,0,0-.53714-3.682,12.7164,12.7164,0,0,0,.53254-3.6636ZM3.67279,3.67279H23.87315l2.02005.00457a12.79414,12.79414,0,0,0-2.61687,3.66823H7.34559V27.55051a5.51365,5.51365,0,0,0,5.50919,5.50463h.00459a1.83882,1.83882,0,0,1,1.8364,1.83639v1.64815a9.04059,9.04059,0,0,1-1.841.18825,9.249,9.249,0,0,1-1.83181-.18365A9.14714,9.14714,0,0,1,7.35018,34.8961a9.264,9.264,0,0,1-2.9061-3.67279A9.11062,9.11062,0,0,1,3.67279,27.546V3.67279ZM27.55514,18.36853a5.52194,5.52194,0,0,0,5.5-5.50919v-.00456a1.83587,1.83587,0,0,1,1.83639-1.8364h1.64818a9.04233,9.04233,0,0,1,.18822,1.841,9.29519,9.29519,0,0,1-.18365,1.8364A9.15667,9.15667,0,0,1,34.89613,18.364,9.28192,9.28192,0,0,1,31.22793,21.27a9.11639,9.11639,0,0,1-3.682.77129H22.05054l-.00919,3.85644a12.89829,12.89829,0,0,0-3.66819-2.62147l.01375-4.90777h9.16823Zm23.864,3.80136a12.76391,12.76391,0,0,0-3.67739,0V14.72331l-7.47412-.01838a12.82724,12.82724,0,0,0,0-3.68655H51.4191ZM44.06892,27.546v.00916a5.522,5.522,0,0,0,5.50919,5.5h.00459a1.83587,1.83587,0,0,1,1.8364,1.83639v1.64815a9.07366,9.07366,0,0,1-3.67739,0,9.114,9.114,0,0,1-3.66819-1.64358,9.264,9.264,0,0,1-2.90611-3.67279,9.11111,9.11111,0,0,1-.77128-3.67736V22.05052l-3.85642-.00919a12.78362,12.78362,0,0,0,2.62144-3.6682l4.90777.01378v9.159Zm-9.18658,16.523a5.522,5.522,0,0,0-5.5,5.50919v.00459A1.83589,1.83589,0,0,1,27.546,51.4191H25.89777a9.04284,9.04284,0,0,1-.18822-1.841,9.29542,9.29542,0,0,1,.18365-1.8364,9.15655,9.15655,0,0,1,1.64815-3.66819,9.282,9.282,0,0,1,3.6682-2.90611,9.11655,9.11655,0,0,1,3.682-.77128H40.387l.00917-3.85645a12.89754,12.89754,0,0,0,3.66819,2.62147l-.01375,4.90777H34.88234Zm-23.864-3.80135a12.762,12.762,0,0,0,3.67739,0v7.4466l7.47412.01835a12.82745,12.82745,0,0,0,0,3.68658H11.01838Zm7.35018-5.376v-.00919a5.522,5.522,0,0,0-5.50919-5.5h-.00459a1.83589,1.83589,0,0,1-1.8364-1.83639V25.89777a9.07507,9.07507,0,0,1,3.67739,0A9.11484,9.11484,0,0,1,18.364,27.54135a9.26442,9.26442,0,0,1,2.90611,3.67279,9.11115,9.11115,0,0,1,.77128,3.67739v5.49541l3.85642.00919a12.78344,12.78344,0,0,0-2.62144,3.66819l-4.90777-.01378v-9.159ZM31.22793,25.177a12.71611,12.71611,0,0,0,3.6636.53257l1.8318.00457V27.546a12.82159,12.82159,0,0,0,.53714,3.682,12.71749,12.71749,0,0,0-.53254,3.66363l-.0046,1.8318h-1.8318a12.82091,12.82091,0,0,0-3.682.53714,12.7161,12.7161,0,0,0-3.6636-.53254l-1.8318-.0046v-1.8318a12.82164,12.82164,0,0,0-.53714-3.682,12.71744,12.71744,0,0,0,.53254-3.6636l.0046-1.83183H27.546A12.82091,12.82091,0,0,0,31.22793,25.177Zm9.03966,22.56473h7.44658l.01838-7.47414a12.82533,12.82533,0,0,0,3.68655,0V51.4191H40.26759a12.76391,12.76391,0,0,0,0-3.67739Zm-25.54428-33.046L14.705,22.16989a12.82745,12.82745,0,0,0-3.68658,0V11.01838H22.16989a12.7637,12.7637,0,0,0,0,3.67736ZM3.67279,58.76469V38.56433l.0046-2.02a12.96153,12.96153,0,0,0,3.6682,2.62146V55.09189h20.205a5.5211,5.5211,0,0,0,5.5046-5.50919v-.00459a1.83882,1.83882,0,0,1,1.83639-1.8364h1.64818a9.05263,9.05263,0,0,1,0,3.6728,9.13408,9.13408,0,0,1-1.64358,3.67279A9.31555,9.31555,0,0,1,31.22334,57.998a9.16883,9.16883,0,0,1-3.67739.76672H3.67279Zm55.0919,0H38.56433l-2.02-.0046a12.79387,12.79387,0,0,0,2.61687-3.6682H55.09189V34.88694a5.5136,5.5136,0,0,0-5.50919-5.5046h-.00459a1.83886,1.83886,0,0,1-1.8364-1.83639V25.89777a9.04058,9.04058,0,0,1,1.841-.18822,9.249,9.249,0,0,1,1.83181.18362,9.148,9.148,0,0,1,3.67279,1.64818,9.26439,9.26439,0,0,1,2.9061,3.67279,9.11065,9.11065,0,0,1,.77129,3.67739V58.76469Zm-3.6728-35.49295V7.34559H34.88694a5.5211,5.5211,0,0,0-5.5046,5.50919v.00456a1.83882,1.83882,0,0,1-1.83639,1.8364H25.89777a9.05258,9.05258,0,0,1,0-3.67279,9.13424,9.13424,0,0,1,1.64358-3.6728,9.3159,9.3159,0,0,1,3.67279-2.91067,9.16881,9.16881,0,0,1,3.67739-.76669H58.76469V23.87315l-.0046,2.02A12.962,12.962,0,0,0,55.09189,23.27174Z" style="fill:#fff"/></g></g></svg>