<svg xmlns="http://www.w3.org/2000/svg" viewBox="0 0 176 176"><title>deer</title><g id="aa217222-3c21-4042-bb32-29f93bca4c1a" data-name="Layer 2"><g id="f6be7602-f657-4c15-a2c5-4e7fd01485ad" data-name="Layer 4"><path d="M145.78,114.98A71.15574,71.15574,0,0,1,176,104.46a66.10072,66.10072,0,0,0-8-.46,73.11163,73.11163,0,0,0-16.46,1.88A71.65947,71.65947,0,0,0,160,72a66.10885,66.10885,0,0,0-.46-8A71.98271,71.98271,0,0,1,16.46,64,66.10885,66.10885,0,0,0,16,72a71.65947,71.65947,0,0,0,8.46,33.88A73.11163,73.11163,0,0,0,8,104a66.10072,66.10072,0,0,0-8,.46,71.15574,71.15574,0,0,1,30.22,10.52,72.6683,72.6683,0,0,0,18.44666,17.33333,179.54014,179.54014,0,0,0-30.16,9.58667L29.48,153.74a180.67062,180.67062,0,0,1,117.04,0l10.95333-11.84a178.521,178.521,0,0,0-30.14-9.58667A72.68947,72.68947,0,0,0,145.78,114.98ZM88,160a180.64085,180.64085,0,0,0-42.52,5.06,88.10021,88.10021,0,0,0,85.04,0A180.64085,180.64085,0,0,0,88,160ZM88,0a56,56,0,1,0,56,56A56.01018,56.01018,0,0,0,88,0Z" style="fill:#fff"/></g></g></svg>