<svg xmlns="http://www.w3.org/2000/svg" viewBox="0 0 176 175.94666"><title>doe</title><g id="e674c6a5-266d-4e4f-861d-3b8365f6c3d5" data-name="Layer 2"><g id="aff52edf-d051-42b3-80ac-f44c091b8612" data-name="Layer 4"><path d="M90.82,0A143.36425,143.36425,0,0,0,50.54,57.92668,63.50845,63.50845,0,0,1,19.07992,92.78a70.507,70.507,0,0,0,6.30013,14.72A79.33654,79.33654,0,0,0,65.52,63.52,127.77936,127.77936,0,0,1,111.68,3.94666,71.20872,71.20872,0,0,0,90.82,0ZM16,71.94666c0,1.4.04,2.8.11995,4.18a47.692,47.692,0,0,0,19.44011-23.82A159.38107,159.38107,0,0,1,64.38005,3.9,72.069,72.069,0,0,0,16,71.94666Zm112.18-59.74A111.49458,111.49458,0,0,0,80.5,69.14a95.17342,95.17342,0,0,1-45.56006,51.46668,72.15263,72.15263,0,0,0,12.92009,11.12,111.28248,111.28248,0,0,0,47.64-56.98,95.5436,95.5436,0,0,1,45.57992-51.44A71.11878,71.11878,0,0,0,128.18,12.20667ZM151.3999,148.9A87.67163,87.67163,0,0,0,176,87.94666c0-2.7-.11995-5.36-.38005-8a87.98285,87.98285,0,0,1-175.2399,0c-.2601,2.64-.38,5.3-.38,8A87.67223,87.67223,0,0,0,24.59993,148.9,87.86526,87.86526,0,0,0,8,147.32666c-2.7,0-5.36.12-8,.38A87.36127,87.36127,0,0,1,38.28,160.5c.04.02.08008.06669.12.08667C39.54,161.28,40.66,162.02,41.75993,162.78l.02.02669A87.27678,87.27678,0,0,0,71.42008,174.38a88.51575,88.51575,0,0,0,33.15984,0A87.27678,87.27678,0,0,0,134.22,162.80668l.02-.02669c1.09994-.76,2.21989-1.5,3.35986-2.19332.04-.02.08008-.06665.12012-.08667A87.36127,87.36127,0,0,1,176,147.70667c-2.64-.26-5.3-.38-8-.38A87.8684,87.8684,0,0,0,151.3999,148.9ZM150.66,36.44666a80.23659,80.23659,0,0,0-40.18,43.92A127.11537,127.11537,0,0,1,64.5,140.02a71.70082,71.70082,0,0,0,20.96,3.88,143.44029,143.44029,0,0,0,40-57.93335,63.92962,63.92962,0,0,1,31.48-34.78A70.61779,70.61779,0,0,0,150.66,36.44666Zm9.22006,31.4a47.79119,47.79119,0,0,0-19.44011,23.74,159.51937,159.51937,0,0,1-28.48,48.26,72.00691,72.00691,0,0,0,48.04-67.9C160,70.56669,159.96,69.20667,159.88005,67.84668Z" style="fill:#fff"/></g></g></svg>