<svg xmlns="http://www.w3.org/2000/svg" viewBox="0 0 62.91613 62.87973"><title>flexible</title><g id="e9934976-fce3-4a0e-b546-db8654c193a4" data-name="Layer 2"><g id="a1716e98-393f-46a2-ae40-e83b8f026d1e" data-name="Layer 1"><path d="M34.30416,20.006H34.299a14.29036,14.29036,0,0,0-28.58072,0V62.87973H0V20.006a20.00859,20.00859,0,0,1,40.01718,0h.0052l.02605,22.86773a2.85911,2.85911,0,0,0,5.71822,0V0h5.71823V42.87375a8.57474,8.57474,0,1,1-17.14947,0Zm-5.72344,0a8.57474,8.57474,0,1,0-17.14947,0V62.87973h5.71822V20.006a2.85912,2.85912,0,0,1,5.71823,0l.026,22.86773H22.899a20.00859,20.00859,0,0,0,40.01718,0V0H57.1979V42.87375a14.29036,14.29036,0,0,1-28.58072,0H28.612Z" style="fill:#fff"/></g></g></svg>