<?xml version="1.0" encoding="utf-8"?>
<!-- Generator: Adobe Illustrator 23.0.1, SVG Export Plug-In . SVG Version: 6.00 Build 0)  -->
<svg version="1.1" id="Ebene_1" xmlns="http://www.w3.org/2000/svg" xmlns:xlink="http://www.w3.org/1999/xlink" x="0px" y="0px"
	 viewBox="0 0 527.6 222.3" style="enable-background:new 0 0 527.6 222.3;" xml:space="preserve">
<style type="text/css">
	.st0{fill:#FFFFFF;}
</style>
<g>
	<path class="st0" d="M289.1,149.7c1.6-0.2,3-0.5,4.3-0.8s2.4-0.7,3.3-1.1c0.9-0.4,1.7-0.7,2.2-1.1l-2.3-7c-1,0.5-2.5,1.1-4.4,1.7
		c-1.9,0.6-4.4,0.9-7.4,0.9c-2.5,0-4.7-0.4-6.5-1.3c-1.8-0.8-3.3-2-4.5-3.5s-2.1-3.3-2.6-5.4c-0.6-2.1-0.9-4.4-0.9-6.9
		c0-2.8,0.4-5.3,1.1-7.4s1.7-3.9,3-5.3s2.8-2.5,4.6-3.2c1.8-0.7,3.7-1.1,5.7-1.1c2.4,0,4.6,0.3,6.6,0.9s3.6,1.3,4.7,1.9l2.5-7
		c-0.3-0.2-0.9-0.5-1.6-0.9c-0.8-0.4-1.7-0.8-2.9-1.2c-1.2-0.4-2.6-0.7-4.2-1s-3.4-0.4-5.3-0.4c-3.2,0-6.2,0.5-9.1,1.6
		c-2.8,1.1-5.3,2.7-7.4,4.8c-2.1,2.1-3.7,4.7-4.9,7.7c-1.2,3-1.8,6.5-1.8,10.5s0.5,7.5,1.6,10.5c1,3,2.5,5.6,4.5,7.7
		c2,2.1,4.3,3.7,7.2,4.8c2.8,1.1,6,1.6,9.5,1.6C285.8,150,287.5,149.9,289.1,149.7L289.1,149.7z M335.5,120.7H315v-18.9h-8.6V149
		h8.6v-20.9h20.5V149h8.6v-47.2h-8.6V120.7L335.5,120.7z M382,148.6c2.4-0.9,4.3-2.2,5.8-3.9s2.7-3.7,3.4-5.9
		c0.7-2.3,1.1-4.8,1.1-7.5v-29.5h-8.7v28.7c0,2.1-0.2,4-0.7,5.5s-1.2,2.8-2,3.7c-0.9,1-1.9,1.7-3.2,2.1c-1.2,0.5-2.6,0.7-4.1,0.7
		s-2.9-0.2-4.1-0.7s-2.3-1.2-3.1-2.1c-0.9-1-1.6-2.2-2-3.7c-0.5-1.5-0.7-3.4-0.7-5.5v-28.7H355v29.5c0,2.7,0.4,5.2,1.1,7.5
		s1.9,4.2,3.4,5.9s3.4,3,5.8,3.9c2.3,0.9,5.1,1.4,8.3,1.4C376.9,150,379.7,149.6,382,148.6L382,148.6z M410,101.5
		c-2.4,0.2-4.6,0.5-6.7,0.9V149h8.6v-17.9h4.2c0.4,0,0.8,0,1.3,0s1,0,1.6-0.1c0.9,1.1,1.8,2.3,2.8,3.7s2,2.9,3,4.4
		c1,1.6,2,3.2,3,4.8c1,1.7,1.9,3.3,2.8,4.9h9.6c-0.8-1.8-1.7-3.6-2.8-5.4c-1-1.8-2.1-3.6-3.3-5.4c-1.1-1.7-2.3-3.4-3.3-4.9
		c-1.1-1.5-2.1-2.8-2.9-3.8c6.3-2.3,9.5-6.6,9.5-13c0-5.1-1.8-9-5.4-11.5s-8.8-3.7-15.6-3.7C414.5,101.3,412.4,101.4,410,101.5
		L410,101.5z M421.6,109.1c1.4,0.2,2.6,0.7,3.6,1.3c1,0.6,1.8,1.4,2.4,2.4c0.5,1,0.8,2.2,0.8,3.7s-0.3,2.8-0.8,3.8s-1.4,1.8-2.4,2.4
		c-1.1,0.6-2.4,1-4,1.2s-3.4,0.3-5.5,0.3H412v-15.3c1.5-0.1,3.2-0.2,5-0.2C418.7,108.7,420.2,108.9,421.6,109.1L421.6,109.1z
		 M472.5,149.7c1.6-0.2,3-0.5,4.3-0.8s2.4-0.7,3.3-1.1c0.9-0.4,1.7-0.7,2.2-1.1l-2.3-7c-1,0.5-2.5,1.1-4.4,1.7
		c-1.9,0.6-4.4,0.9-7.4,0.9c-2.5,0-4.7-0.4-6.5-1.3c-1.8-0.8-3.3-2-4.5-3.5s-2.1-3.3-2.6-5.4c-0.6-2.1-0.9-4.4-0.9-6.9
		c0-2.8,0.4-5.3,1.1-7.4s1.7-3.9,3-5.3s2.8-2.5,4.6-3.2c1.8-0.7,3.7-1.1,5.7-1.1c2.4,0,4.6,0.3,6.6,0.9s3.6,1.3,4.7,1.9l2.5-7
		c-0.3-0.2-0.9-0.5-1.6-0.9c-0.8-0.4-1.7-0.8-2.9-1.2c-1.2-0.4-2.6-0.7-4.2-1s-3.4-0.4-5.3-0.4c-3.2,0-6.2,0.5-9.1,1.6
		c-2.8,1.1-5.3,2.7-7.4,4.8c-2.1,2.1-3.7,4.7-4.9,7.7c-1.2,3-1.8,6.5-1.8,10.5s0.5,7.5,1.6,10.5c1,3,2.5,5.6,4.5,7.7
		c2,2.1,4.3,3.7,7.2,4.8c2.8,1.1,6,1.6,9.5,1.6C469.2,150,470.9,149.9,472.5,149.7L472.5,149.7z M519,120.7h-20.5v-18.9h-8.6V149
		h8.6v-20.9H519V149h8.6v-47.2H519V120.7L519,120.7z"/>
	<path class="st0" d="M113.5,68.2c0,0-1.2,1.4-2,3.8c-0.9,2.4-1.6,2.9-0.4,5.5s0,4.1,2.9,5.2s5.6,0.8,7.7-0.9c2.1-1.7,5-4.4,4.8-7.9
		s-1-6.3-4-7.7C118.3,64.3,115.7,64.3,113.5,68.2L113.5,68.2z"/>
	<path class="st0" d="M30.4,106.4C15.4,144,18,139,10.8,155.5c-4,9.3-20.1,40.5-3.3,37.6c11.1-1.9,23.6-5.2,30.9-7.2
		c7.2-1.9,20.5-4.6,30.7-12c4.2-3.1,22.7-19.3,5.7-14.4c-34.1,9.9-37.3,10-47.2,12.8c-7.6,2.2-5.2-7.7-2.6-14.3
		c8.6-21.9,18.7-46.6,25.6-65.5C58.7,70.1,62,44.8,62.3,40.3c0.4-7.6-5.6-14.9-7.3-16.5c-4.4-4.2-5.3,13.5-7.1,23.1
		C42.9,73.7,39.3,84.1,30.4,106.4L30.4,106.4z"/>
	<path class="st0" d="M161.9,24.5c0,0-11,29.1-15.4,53.5c-0.3,1.6-0.6,1.9-1.7,2.1c-9.6,1.7-10.6,2.8-11.1,7.4
		c-0.2,2.2,0.8,4.4,4.7,4.1c3.6-0.3,4.8-1.6,4.5-0.2c-0.6,2.8-4,18.4-4.6,21.1c-1.3,5.8-11.9,63.8-14.8,76.5
		c-3.6,15.3-6.4,18.8-11.1,22.4c-4.7,3.6-7.8,13.4,3,10.3c10.8-3.2,18.1-8.8,21.5-27.7c3.4-19,16.8-94.1,18.2-100.2
		c0.6-2.7,0.6-4.1,3-4.7c15.8-3.9,20.7-5.2,45.7-8.8c4.3-0.6,5.1-6.9-6.5-7c-4.4,0,0-0.6-13.9,1.1c-10.3,1.2-16,2.7-21.4,3.5
		c-4.9,0.7-2.7-1.2-1.3-6.2c2.1-7.9,6.6-26.1,10.1-36.9c2.6-8,8.7-22.3,16.9-18.4c3.4,1.6,7.8,3.3,10.2,1.4
		c2.3-1.9,5.2-7.7,2.2-10.8s-14.3-9.7-21.8-5.7C174.1,3.5,168.4,6.7,161.9,24.5L161.9,24.5z"/>
	<path class="st0" d="M211.9,146.3c-7.9,6.5-13.5,6-16.1,5.5c-12.1-1.4-13.7-11.3-13.7-11.3c-1-4.9-0.2-2.7,11.3-7.7
		c8.2-2.7,25.5-11.7,29.1-21.6c6.3-17.1-5.6-25.7-19.8-20.9c-4.3,1.2-33,15.1-36.3,44.3c-1.7,15.9,9.5,24.3,18,26
		c11.8,3.1,22.6-2,29-7.2C220,148.3,217.1,145,211.9,146.3L211.9,146.3z M186.8,115.4c3.2-5.3,10.7-10,10.7-10
		c18-8.7,12.2,5.2,5.1,10.2c-2.1,1.4-6.9,5.1-12.8,7C184.6,124.2,184.2,122,186.8,115.4L186.8,115.4z"/>
	<path class="st0" d="M116.5,96c0,0-8,2.4-9.7,6.5s-3.1,7.8-5,16.6c-1.6,7.1-3.5,17.8-5.8,27.6c-2.4,9.8-4.5,16.1-5.2,20.9
		c-0.7,4.8-0.8,11.3,1.4,11.5c2.2,0.2,7.7-2.8,12.3-12.5c4.6-9.7,2.7-14.9,5-24.9c2.8-12.3,2.8-14.4,7.1-24.7
		c4.2-10.3,5.1-16.7,4.5-18.8C120.4,96,119.3,95.3,116.5,96L116.5,96z"/>
</g>
</svg>
