<svg xmlns="http://www.w3.org/2000/svg" viewBox="0 0 62.36651 62.35942"><title>likeable</title><g id="fb67f420-0c6e-4ec2-9e05-e7123fe4a817" data-name="Layer 2"><g id="bf0cf791-bbf5-40ea-a08f-0168b3c6751b" data-name="Layer 1"><path d="M62.35942,19.84163a19.84164,19.84164,0,0,0-39.68327,0v2.82743H19.84163v.00709a19.84164,19.84164,0,0,0,0,39.68327H62.36651V19.84163ZM56.69748,56.69038H19.84163a14.1726,14.1726,0,0,1,0-28.34519V28.3381h8.50356V19.84163a14.1726,14.1726,0,0,1,28.34519,0h.0071ZM42.52133,11.33808a8.50574,8.50574,0,0,0-8.50355,8.50355v14.1726H19.84518a8.50356,8.50356,0,1,0,0,17.00711H51.02489V19.84163A8.50121,8.50121,0,0,0,42.52133,11.33808Zm2.83452,34.01423H19.84518a2.83452,2.83452,0,1,1,0-5.669H39.68681V19.84163a2.83452,2.83452,0,0,1,5.669,0Z" style="fill:#fff"/></g></g></svg>