<svg xmlns="http://www.w3.org/2000/svg" viewBox="0 0 411.37 88"><title>logo_1</title><g id="ace5a8ec-a79d-4ffd-ac18-cb398a04ded1" data-name="Layer 2"><g id="abf5933b-76c7-433b-b3dd-9115bb6ab686" data-name="Layer 1"><path d="M132.25,7.57H126.4l-14.4,32h6.12l3.16-7.4h15.99l3.2,7.4h6.22ZM123.29,27.5,129.28,13.52l6.03,13.98Zm34.33,7.04V7.57h-5.95v32h22.68V34.54Zm28.29.05V25.77h15.45V20.88H185.91V12.56H203.33V7.57H179.97v32h24V34.59ZM209.96,7.57v4.99h11.38V29.1q0,5.895-4.98,5.9-3.705,0-6.36-3.66l-3.38,4.07a11.06692,11.06692,0,0,0,4.23,3.41,13.08018,13.08018,0,0,0,5.65,1.21q5.295,0,8.04-2.81,2.745-2.82,2.74-8.44V7.57Zm41.6,0h-5.85l-14.4,32h6.12l3.16-7.4h16l3.2,7.4H266ZM242.6,27.5,248.59,13.52l6.03,13.98ZM293.52,7.57V29.24L275.88,7.57h-4.89v32h5.89V17.9l17.65,21.67H299.42v-32Zm43.29,7.61a14.74589,14.74589,0,0,0-6.17-5.62,20.13677,20.13677,0,0,0-9.1-1.99H307.56v32h13.98a20.00629,20.00629,0,0,0,9.1-1.99,14.68137,14.68137,0,0,0,6.17-5.62,15.84328,15.84328,0,0,0,2.2-8.39A15.86825,15.86825,0,0,0,336.81,15.18Zm-5.23,14.18006a9.63394,9.63394,0,0,1-4.12,3.84,13.53037,13.53037,0,0,1-6.19,1.34H313.5V12.6h7.77a13.533,13.533,0,0,1,6.19,1.35,9.6341,9.6341,0,0,1,4.12,3.84,11.3468,11.3468,0,0,1,1.44,5.78A11.35887,11.35887,0,0,1,331.58,29.36005ZM364.83,29.06a10.46957,10.46957,0,0,0,5.06-3.89,10.86773,10.86773,0,0,0,1.76-6.21A10.95426,10.95426,0,0,0,370,12.88a10.56369,10.56369,0,0,0-4.73-3.94,17.7961,17.7961,0,0,0-7.25-1.37H344.86v32h5.94V30.25h7.22a12.235,12.235,0,0,0,1.24-.05l6.53,9.37h6.4Zm-1.18-5.37a9.07912,9.07912,0,0,1-5.9,1.67H350.8V12.6h6.95a9.13829,9.13829,0,0,1,5.9,1.65,5.72051,5.72051,0,0,1,2.01,4.71A5.81435,5.81435,0,0,1,363.65,23.69Zm45.48-8.57a15.80046,15.80046,0,0,0-6.17-5.88,19.42819,19.42819,0,0,0-17.65,0,15.70982,15.70982,0,0,0-6.17,5.9,16.20368,16.20368,0,0,0-2.24,8.43,16.26519,16.26519,0,0,0,2.24,8.44,15.68523,15.68523,0,0,0,6.17,5.89,19.34679,19.34679,0,0,0,17.65,0,15.7058,15.7058,0,0,0,6.17-5.87,16.209,16.209,0,0,0,2.24-8.46A16.17318,16.17318,0,0,0,409.13,15.12Zm-5.21,14.24005a10.49063,10.49063,0,0,1-4.02,4.02,12.24,12.24,0,0,1-11.52,0,10.44831,10.44831,0,0,1-4.03-4.02,11.61038,11.61038,0,0,1-1.46-5.79,11.57217,11.57217,0,0,1,1.46-5.78,10.44849,10.44849,0,0,1,4.03-4.02,12.24,12.24,0,0,1,11.52,0,10.49081,10.49081,0,0,1,4.02,4.02,11.57168,11.57168,0,0,1,1.46,5.78A11.60989,11.60989,0,0,1,403.92,29.36005ZM60,0A28.0051,28.0051,0,0,0,32,28h-.01v3.99H28a28,28,0,0,0,0,56V88H88V28A27.99869,27.99869,0,0,0,60,0Zm4,63.99H56v-8h8ZM80,80H72V47.99H56v-8H72V28a12,12,0,0,0-24,0V71.99H64V80l-36-.01a20,20,0,0,1,0-40h3.99v8H28a12,12,0,0,0,0,24H39.99V28H40a20,20,0,0,1,40,0ZM56,31.99V28a4,4,0,0,1,8,0v3.99Zm-24.01,24v8H28a4,4,0,0,1,0-8ZM135.45122,57.2393q4.481,4.05887,4.47738,11.28184,0,7.23019-4.34389,11.44059-4.34568,4.21039-13.29864,4.21039H112V53.184h10.63964Q130.97384,53.184,135.45122,57.2393Zm-.79734,11.41533q0-10.63963-12.191-10.63964h-5.23142V79.251h5.80868q5.6283,0,8.62284-2.68065Q134.65569,73.88606,134.65388,68.65463ZM168.43446,53.184v4.92115H151.89955V66.3059h14.85v4.65417h-14.85V79.251h17.06888v4.92115H146.66812V53.184Zm28.7512,4.0769a6.85976,6.85976,0,0,0-3.745.93084,3.109,3.109,0,0,0-1.4648,2.81775,3.26451,3.26451,0,0,0,1.4648,2.87909,21.969,21.969,0,0,0,6.2272,2.1503,17.15516,17.15516,0,0,1,7.18329,3.23627,7.67266,7.67266,0,0,1,2.41367,6.14061,8.12711,8.12711,0,0,1-3.05948,6.58438,12.1843,12.1843,0,0,1-8.02392,2.52552A18.8365,18.8365,0,0,1,185.28326,79.518l3.27957-3.947q4.69746,4.08051,9.7521,4.08051a6.6725,6.6725,0,0,0,4.012-1.086,3.398,3.398,0,0,0,1.48645-2.8827,3.23308,3.23308,0,0,0-1.39625-2.7925,14.68278,14.68278,0,0,0-4.80931-1.81837,43.37349,43.37349,0,0,1-5.18813-1.50809A11.70046,11.70046,0,0,1,189.27,67.76709q-2.7492-2.08354-2.74559-6.38234a7.76385,7.76385,0,0,1,3.12442-6.62767A12.58489,12.58489,0,0,1,197.3841,52.43a18.54152,18.54152,0,0,1,5.89527.97413,15.36279,15.36279,0,0,1,5.05464,2.74921l-2.7925,3.947a10.563,10.563,0,0,0-3.72333-2.04206A14.38274,14.38274,0,0,0,197.18566,57.26094Zm18.55172-4.0769h5.23143V84.17212h-5.23143Zm23.2095,4.0769a6.85971,6.85971,0,0,0-3.745.93084,3.109,3.109,0,0,0-1.4648,2.81775,3.26449,3.26449,0,0,0,1.4648,2.87909,21.9689,21.9689,0,0,0,6.2272,2.1503,17.15528,17.15528,0,0,1,7.18329,3.23627,7.67269,7.67269,0,0,1,2.41367,6.14061,8.12711,8.12711,0,0,1-3.05948,6.58438,12.18432,12.18432,0,0,1-8.02393,2.52552A18.83648,18.83648,0,0,1,227.04448,79.518l3.27956-3.947q4.69746,4.08051,9.7521,4.08051a6.67253,6.67253,0,0,0,4.012-1.086,3.398,3.398,0,0,0,1.48644-2.8827,3.23306,3.23306,0,0,0-1.39625-2.7925,14.68279,14.68279,0,0,0-4.8093-1.81837,43.37292,43.37292,0,0,1-5.18813-1.50809,11.7003,11.7003,0,0,1-3.14968-1.79673q-2.74922-2.08354-2.7456-6.38234A7.76388,7.76388,0,0,1,231.41,54.75708a12.58491,12.58491,0,0,1,7.7353-2.32709,18.54158,18.54158,0,0,1,5.89528.97413,15.36279,15.36279,0,0,1,5.05464,2.74921l-2.7925,3.947a10.56305,10.56305,0,0,0-3.72334-2.04206A14.38273,14.38273,0,0,0,238.94688,57.26094Zm30.25929.71076V84.17212h-5.23143V57.9717h-9.39853V53.184H278.6047V57.9717Zm40.16292,21.92148a16.98987,16.98987,0,0,1-23.22753,0,15.324,15.324,0,0,1-4.70107-11.437,15.31837,15.31837,0,0,1,4.70107-11.437,16.98984,16.98984,0,0,1,23.22753,0,15.31837,15.31837,0,0,1,4.70107,11.437A15.324,15.324,0,0,1,309.36909,79.89318Zm-3.83157-19.396a10.87312,10.87312,0,0,0-15.56439,0,11.58245,11.58245,0,0,0,0,15.918,10.87312,10.87312,0,0,0,15.56439,0,11.58245,11.58245,0,0,0,0-15.918Z" style="fill:#fff"/></g></g></svg>