<svg xmlns="http://www.w3.org/2000/svg" viewBox="0 0 96.299 96.299"><title>weird</title><g id="f348caaf-6946-4e2e-99cd-1f1f58066bce" data-name="Layer 2"><g id="f3952bbf-4528-4ed0-84df-98bdacb8ce15" data-name="Layer 1"><path d="M48.1495,17.55268A74.62935,74.62935,0,0,0,0,35.06159v.01093a57.2716,57.2716,0,0,0,96.28805,0A74.54964,74.54964,0,0,0,48.1495,17.55268Zm-.0073,34.97405A13.13273,13.13273,0,0,1,35.01052,39.39505c0-7.25161,13.13168-21.82779,13.13168-21.82779S61.27388,32.14344,61.27388,39.39505A13.1304,13.1304,0,0,1,48.1422,52.52673ZM0,72.268v6.52207H10.8993A82.22953,82.22953,0,0,1,0,72.268Zm85.3997,6.52207H96.28805V72.279A83.22509,83.22509,0,0,1,85.3997,78.79009Zm10.8993,0h-.01094M48.13855,70.03564A65.73357,65.73357,0,0,1,0,49.1672V61.21553A74.35232,74.35232,0,0,0,48.13855,78.79009,74.44821,74.44821,0,0,0,96.299,61.21553V49.14531A65.74189,65.74189,0,0,1,48.13855,70.03564ZM48.1495,0A91.96854,91.96854,0,0,0,0,13.51468V23.96532a83.78859,83.78859,0,0,1,96.299.01094V13.51468A91.96854,91.96854,0,0,0,48.1495,0ZM0,87.54455V96.299H96.299V87.54455Z" style="fill:#fff"/></g></g></svg>