<svg xmlns="http://www.w3.org/2000/svg" viewBox="0 0 101.634 101.634"><title>Favicon</title><g id="e82bb9b3-e9d7-4932-a690-755f1c74f5d3" data-name="Layer 2"><g id="fad617df-9e2c-4a76-88d1-c9f7e4697c99" data-name="Layer 1"><rect width="101.634" height="101.634" style="fill:#0c0c0c"/><path d="M66.16455,8.61124A26.8631,26.8631,0,0,0,39.30634,35.46945h-.0096v3.82729H35.46945a26.85821,26.85821,0,0,0,0,53.71642v.00961H93.02277V35.46945A26.857,26.857,0,0,0,66.16455,8.61124Zm3.83689,61.3806H62.32766V62.31806h7.67378ZM85.349,85.349H77.67522V54.64429H62.32766V46.97051H77.67522V35.46945a11.51067,11.51067,0,0,0-23.02133,0V77.66561H70.00144V85.349l-34.532-.0096a19.18444,19.18444,0,0,1,0-38.36888h3.82729v7.67378H35.46945a11.51066,11.51066,0,0,0,0,23.02132H46.97051V35.46945h.0096a19.18444,19.18444,0,1,1,38.36888,0ZM62.32766,39.29674V35.46945a3.83689,3.83689,0,1,1,7.67378,0v3.82729ZM39.29674,62.31806v7.67378H35.46945a3.83689,3.83689,0,0,1,0-7.67378Z" style="fill:#fff"/></g></g></svg>