<svg id="Layer_1" data-name="Layer 1" xmlns="http://www.w3.org/2000/svg" xmlns:xlink="http://www.w3.org/1999/xlink" viewBox="0 0 128 128"><defs><style>.cls-1{fill:url(#linear-gradient);}</style><linearGradient id="linear-gradient" x1="-2998.49" y1="1306.21" x2="-2863.84" y2="1306.21" gradientTransform="matrix(-0.71, 0.71, 0.71, 0.71, -2931.16, 1214.13)" gradientUnits="userSpaceOnUse"><stop offset="0" stop-color="#29ab86"/><stop offset="0.33" stop-color="#2bace2"/><stop offset="0.66" stop-color="#268dba"/><stop offset="1" stop-color="#7763e2"/></linearGradient></defs><title>icoArtboard 11 copy</title><path class="cls-1" d="M0,85.27c.14.06.2,0,.32,0C5.39,61.61,19.21,47.86,42.93,42.92,47.87,19.21,61.62,5.39,85.3.32c0-.1,0-.2,0-.3C75.87,0,66.44.06,57,.06A59.83,59.83,0,0,0,51.35,4.6,65.17,65.17,0,0,0,33.77,33.76a67,67,0,0,0-23,11.69q0-17.33,0-34.67l10.65,0c0,5.32,0,10.65,0,16,1.26-.54,2.56-1,3.85-1.48A79.81,79.81,0,0,1,40.71.06C30.63.53,18.7-.48,9.07.33,3.31.81.49,2.94.33,9.09-.31,33.72.33,60.18,0,85.27Zm48.54,42.21c23.46,1.31,54.24-.34,79.09.16-.49-24.86,1.17-55.63-.14-79.09S112.26,12.15,90.56,11.4,55.64,27.6,53.33,48c-.14,1.32.06,3.95-.07,5.3-1.37.14-4-.07-5.3.07C27.6,55.63,10.64,68.84,11.39,90.54S25.08,126.17,48.54,127.48Zm57.94-31.74c-.33-15,.5-33.15-.12-47.45-.45-10.52-6.56-15.54-15.8-16s-15,6.94-16,15.68c-.13,1.32,0,3.82,0,5.26-3.54,0-7.09.05-10.65,0,.1-1.41-.1-4,0-5.27C65.64,33.36,75,21.33,90.56,21.83s25.32,9.9,26.41,26.53c.89,13.58-.34,32.8.16,47.32C113.52,95.87,110,95.81,106.48,95.74ZM85.26,48c.28-3.14,2.18-5.28,5.3-5.29s5,2.12,5.29,5.28c.12,1.41,0,3.7,0,5.24-3.55,0-7.09,0-10.65,0C85.3,51.68,85.12,49.4,85.26,48ZM22,90.57c-.2-15.3,10.15-25.39,26.51-26.44,13.35-.86,32.91.21,47.27-.29.2,3.61.11,7.14,0,10.66-15,.35-33.19-.41-47.44.24-10.47.47-15.66,6.64-16,15.85s6.52,15.09,15.75,15.85c4.19.35,11.16-.14,15.74.07.12-7.13,0-14.2.08-21.31H74.54q0,10.65,0,21.29l42.59,0c-.07,3.57.13,7.06-.13,10.68-21.4-.52-48.26.77-68.45-.19C31.4,116.12,22.16,105.88,22,90.57Zm73.85,5.24H85.16q0-5.32,0-10.65H95.82C95.82,88.71,95.81,92.25,95.81,95.81Zm-42.6.06c-1.54-.07-3.83.1-5.25,0-3.14-.28-5.27-2.17-5.26-5.29s2.13-5,5.27-5.31c1.43-.13,3.71,0,5.25,0C53.25,88.77,53.25,92.31,53.21,95.87Z"/></svg>