<?xml version="1.0" encoding="UTF-8"?>
<svg id="Layer_2" xmlns="http://www.w3.org/2000/svg" viewBox="0 0 804 508.86">
  <defs>
    <style>
      .cls-1 {
        fill: #fff8f0;
      }
    </style>
  </defs>
  <g id="Layer_1-2" data-name="Layer_1">
    <g>
      <g>
        <path class="cls-1" d="M577.21,306.62c.28,1.33.67,2.64,1.2,3.9.52,1.26,1.16,2.48,1.92,3.61.38.56.79,1.12,1.21,1.64.43.52.9,1.05,1.38,1.52.48.48,1,.95,1.53,1.38.53.43,1.08.84,1.64,1.21,1.13.75,2.35,1.39,3.61,1.92,1.26.53,2.58.92,3.9,1.2.67.13,1.34.23,2.02.29.69.08,1.38.12,2.05.12s1.38-.03,2.05-.12c.69-.07,1.36-.16,2.03-.29,1.33-.28,2.64-.67,3.9-1.2,1.26-.52,2.48-1.16,3.61-1.92.56-.38,1.12-.79,1.64-1.21.53-.43,1.05-.9,1.53-1.38.47-.47.95-1,1.38-1.52.43-.52.84-1.08,1.21-1.64.75-1.13,1.39-2.35,1.92-3.61.53-1.26.92-2.58,1.2-3.9.13-.67.23-1.35.29-2.03.07-.67.12-1.36.12-2.05s-.05-1.36-.12-2.05c-.07-.67-.16-1.34-.29-2.02-.28-1.33-.67-2.64-1.2-3.9-.52-1.26-1.17-2.48-1.92-3.61-.38-.56-.79-1.12-1.21-1.64-.43-.53-.9-1.05-1.38-1.52-.47-.48-1-.95-1.53-1.38-.52-.43-1.08-.84-1.64-1.21-1.13-.76-2.34-1.4-3.61-1.92-1.26-.53-2.57-.92-3.9-1.2-.67-.13-1.34-.23-2.03-.3-1.36-.15-2.74-.15-4.1,0-.67.07-1.34.16-2.02.3-1.33.28-2.64.67-3.9,1.2-1.26.52-2.48,1.16-3.61,1.92-.56.38-1.11.79-1.64,1.21-.53.43-1.05.9-1.53,1.38-.47.47-.95,1-1.38,1.52-.43.52-.84,1.08-1.21,1.64-.75,1.13-1.39,2.35-1.92,3.61-.53,1.26-.92,2.57-1.2,3.9-.13.67-.23,1.34-.29,2.02-.07.69-.12,1.38-.12,2.05s.05,1.38.12,2.05c.07.69.16,1.36.29,2.03"/>
        <path class="cls-1" d="M802.41,387.29c-.52-1.26-1.17-2.47-1.93-3.61-.76-1.14-1.63-2.19-2.6-3.16-.97-.97-2.02-1.83-3.16-2.59-1.14-.76-2.34-1.4-3.61-1.93-1.27-.52-2.57-.92-3.91-1.19s-2.7-.4-4.07-.4h-25.5v-25.5c0-1.37-.13-2.73-.4-4.07-.27-1.34-.66-2.65-1.19-3.91-.52-1.26-1.17-2.47-1.93-3.61-.76-1.14-1.63-2.19-2.59-3.16-.97-.97-2.02-1.83-3.16-2.6-1.14-.76-2.34-1.4-3.61-1.93-1.27-.52-2.57-.92-3.91-1.19-1.34-.27-2.7-.4-4.07-.4h-25.5v-25.5c0-1.37-.13-2.73-.4-4.07-.27-1.34-.66-2.65-1.19-3.91-.52-1.27-1.17-2.47-1.93-3.61-.76-1.14-1.63-2.19-2.59-3.16-.97-.97-2.02-1.83-3.16-2.6-1.14-.76-2.34-1.4-3.61-1.93-1.27-.52-2.57-.92-3.91-1.19-1.34-.27-2.7-.4-4.07-.4s-2.73.13-4.07.4c-1.34.27-2.65.66-3.91,1.19-1.27.52-2.47,1.17-3.61,1.93-1.14.76-2.19,1.63-3.16,2.6-.97.97-1.83,2.02-2.6,3.16-.76,1.14-1.4,2.34-1.93,3.61-.52,1.26-.92,2.57-1.19,3.91-.27,1.34-.4,2.7-.4,4.07v46.36c0,1.37.13,2.73.4,4.07.27,1.34.66,2.65,1.19,3.91.52,1.26,1.17,2.47,1.93,3.61.76,1.14,1.63,2.19,2.6,3.16.97.97,2.02,1.83,3.16,2.59,1.14.76,2.34,1.4,3.61,1.93,1.27.52,2.57.92,3.91,1.19,1.34.27,2.7.4,4.07.4h25.5v25.5c0,1.37.13,2.73.4,4.07.27,1.34.66,2.65,1.19,3.91.52,1.26,1.17,2.47,1.93,3.61.76,1.14,1.63,2.19,2.59,3.16.97.97,2.02,1.83,3.16,2.6,1.14.76,2.34,1.4,3.61,1.93,1.27.53,2.57.92,3.92,1.19,1.34.27,2.7.4,4.07.4h25.5v71.86c0,1.37.13,2.73.4,4.07.27,1.34.66,2.65,1.19,3.91.52,1.27,1.17,2.47,1.93,3.61.76,1.14,1.63,2.19,2.59,3.16.97.97,2.02,1.83,3.16,2.6,1.14.76,2.34,1.4,3.61,1.93,1.27.52,2.57.92,3.91,1.19,1.34.27,2.7.4,4.07.4s2.73-.13,4.07-.4c1.34-.27,2.65-.66,3.91-1.19,1.27-.52,2.47-1.17,3.61-1.93,1.14-.76,2.19-1.63,3.16-2.6.97-.97,1.83-2.02,2.6-3.16.76-1.14,1.4-2.34,1.93-3.61.52-1.26.92-2.57,1.19-3.91.27-1.34.4-2.7.4-4.07v-92.73c0-1.37-.13-2.73-.4-4.07-.27-1.34-.66-2.65-1.19-3.91M793.35,490.04c-.13.67-.33,1.33-.59,1.95-.26.62-.59,1.23-.97,1.8-.38.57-.8,1.1-1.29,1.57-1.94,1.95-4.63,3.07-7.37,3.07s-5.44-1.11-7.38-3.07c-.48-.48-.92-1-1.3-1.57-.38-.57-.7-1.18-.97-1.8-.26-.62-.46-1.28-.59-1.95-.13-.67-.2-1.36-.2-2.03,0-2.76,1.12-5.45,3.05-7.38.48-.48,1.02-.92,1.59-1.3.56-.38,1.16-.7,1.79-.97.64-.26,1.29-.46,1.95-.59,3.4-.69,7,.43,9.43,2.86.47.48.9,1.02,1.29,1.59.36.56.69,1.17.95,1.79.26.64.46,1.3.59,1.95.15.67.21,1.36.21,2.05s-.07,1.36-.21,2.03"/>
        <path class="cls-1" d="M803.59,298.47c-.26-1.33-.67-2.64-1.2-3.9-.52-1.26-1.16-2.48-1.92-3.61-.38-.56-.79-1.12-1.22-1.64-.43-.52-.89-1.05-1.38-1.52-.47-.48-.98-.95-1.52-1.38-.53-.43-1.08-.84-1.64-1.21-1.13-.76-2.34-1.4-3.61-1.92-1.26-.53-2.58-.92-3.9-1.2-.66-.13-1.34-.23-2.02-.29-1.36-.15-2.74-.15-4.1,0-.69.07-1.36.16-2.03.29-1.33.28-2.64.67-3.9,1.2-1.26.52-2.48,1.16-3.59,1.92-.57.38-1.13.79-1.66,1.21-.53.43-1.05.9-1.53,1.38-.48.47-.93,1-1.38,1.52-.43.52-.84,1.08-1.21,1.64-.75,1.13-1.39,2.35-1.92,3.61-.52,1.26-.92,2.57-1.18,3.9-.15.67-.24,1.34-.31,2.02-.07.69-.1,1.38-.1,2.07s.03,1.36.1,2.05c.07.67.16,1.34.31,2.02.26,1.33.66,2.64,1.18,3.9.53,1.26,1.16,2.48,1.92,3.61.38.56.79,1.11,1.21,1.64.44.54.9,1.05,1.38,1.52.47.48,1,.95,1.53,1.38.52.43,1.08.84,1.66,1.22,1.11.75,2.33,1.39,3.59,1.92,1.26.53,2.57.92,3.9,1.2.67.13,1.34.23,2.03.29.67.07,1.36.12,2.05.12s1.36-.05,2.05-.12c.67-.07,1.36-.16,2.02-.29,1.33-.28,2.64-.67,3.9-1.2,1.27-.52,2.48-1.16,3.61-1.92.56-.38,1.11-.79,1.64-1.22.54-.42,1.05-.9,1.52-1.38.49-.48.95-.98,1.38-1.52.43-.53.84-1.08,1.22-1.64.75-1.13,1.39-2.35,1.92-3.61.53-1.26.94-2.58,1.2-3.9.13-.67.23-1.34.31-2.02.07-.69.1-1.38.1-2.05s-.03-1.38-.1-2.07c-.08-.67-.18-1.34-.31-2.02"/>
        <path class="cls-1" d="M644.04,416.14c1.37,0,2.73-.13,4.07-.4,1.34-.27,2.65-.66,3.91-1.19,1.27-.53,2.47-1.17,3.61-1.93,1.14-.76,2.19-1.63,3.16-2.6.97-.97,1.83-2.02,2.59-3.16.76-1.14,1.4-2.34,1.93-3.61.52-1.27.92-2.57,1.19-3.92.27-1.34.4-2.7.4-4.07v-46.36c0-1.37-.13-2.73-.4-4.07s-.66-2.65-1.19-3.91c-.53-1.27-1.17-2.47-1.93-3.61-.76-1.14-1.62-2.19-2.59-3.16-.97-.97-2.02-1.83-3.16-2.6-1.14-.76-2.34-1.4-3.61-1.93-1.27-.52-2.57-.92-3.91-1.19-1.34-.27-2.7-.4-4.07-.4s-2.73.13-4.07.4c-1.34.27-2.65.66-3.91,1.19-1.27.52-2.47,1.17-3.61,1.93-1.14.76-2.19,1.63-3.16,2.6-.97.97-1.83,2.02-2.59,3.16-.76,1.14-1.4,2.34-1.93,3.61-.52,1.26-.92,2.57-1.19,3.91-.27,1.34-.4,2.7-.4,4.07v25.5h-25.5c-1.37,0-2.73.13-4.07.4-1.35.27-2.65.66-3.92,1.19-1.27.52-2.47,1.17-3.61,1.93-1.14.76-2.19,1.63-3.16,2.59-.97.97-1.83,2.02-2.59,3.16-.76,1.14-1.4,2.34-1.93,3.61-.52,1.27-.92,2.57-1.19,3.91-.27,1.34-.4,2.7-.4,4.07v92.73c0,1.37.13,2.73.4,4.07.27,1.34.66,2.65,1.19,3.91.52,1.27,1.17,2.47,1.93,3.61.76,1.14,1.62,2.19,2.59,3.16.97.97,2.02,1.83,3.16,2.59,1.14.76,2.34,1.4,3.61,1.93,1.27.52,2.57.92,3.92,1.19,1.34.27,2.7.4,4.07.4s2.73-.13,4.07-.4c1.34-.27,2.65-.66,3.91-1.19,1.27-.52,2.47-1.17,3.61-1.93,1.14-.76,2.19-1.63,3.16-2.59.97-.97,1.83-2.02,2.6-3.16.76-1.14,1.4-2.34,1.93-3.61.52-1.26.92-2.57,1.19-3.91.27-1.34.4-2.7.4-4.07v-71.86h25.5ZM605.05,495.37c-1.94,1.95-4.62,3.07-7.36,3.07s-5.45-1.12-7.38-3.07c-.48-.47-.92-1-1.3-1.57-.38-.57-.71-1.18-.97-1.8-.26-.62-.46-1.28-.59-1.95-.13-.67-.2-1.36-.2-2.03s.07-1.36.2-2.05c.13-.66.33-1.31.59-1.95.26-.62.59-1.23.97-1.79.38-.57.8-1.12,1.3-1.59.48-.48,1-.92,1.58-1.3.57-.38,1.18-.7,1.8-.95.64-.26,1.3-.48,1.95-.61,3.39-.69,7,.43,9.41,2.86.49.47.92,1.02,1.3,1.59.38.56.71,1.17.97,1.79.26.64.46,1.3.59,1.95.15.69.21,1.36.21,2.05,0,2.74-1.11,5.43-3.07,7.36"/>
        <path class="cls-1" d="M710.85,437.55c-.26-1.33-.66-2.64-1.18-3.9-.52-1.25-1.16-2.46-1.92-3.59-.38-.57-.79-1.13-1.21-1.66-.44-.52-.9-1.03-1.38-1.52-.49-.48-1-.94-1.53-1.38-.52-.43-1.08-.84-1.66-1.21-1.13-.75-2.34-1.39-3.59-1.92-1.26-.51-2.57-.92-3.9-1.18-.67-.13-1.36-.25-2.03-.31-1.36-.13-2.74-.13-4.1,0-.67.07-1.36.18-2.03.31-1.33.26-2.64.67-3.9,1.18-1.25.52-2.46,1.17-3.59,1.92-.57.38-1.13.79-1.66,1.21-.52.44-1.03.9-1.51,1.38-.49.49-.95,1-1.4,1.52-.43.53-.84,1.08-1.21,1.66-.74,1.13-1.39,2.35-1.92,3.59-.51,1.26-.92,2.58-1.18,3.9-.13.67-.24,1.36-.31,2.03-.07.67-.1,1.36-.1,2.05,0,5.49,2.23,10.87,6.12,14.74.48.49.98.95,1.51,1.38.54.43,1.08.84,1.66,1.21,1.13.75,2.35,1.41,3.61,1.92,1.25.53,2.56.94,3.9,1.2.66.13,1.35.23,2.02.29.67.08,1.38.12,2.05.12s1.38-.03,2.05-.12c.67-.07,1.36-.16,2.03-.29,1.33-.26,2.64-.67,3.9-1.2,1.25-.51,2.46-1.16,3.59-1.92.57-.38,1.13-.79,1.66-1.21.53-.43,1.03-.89,1.53-1.38,3.87-3.87,6.1-9.25,6.1-14.74,0-.69-.03-1.38-.1-2.05-.07-.67-.18-1.36-.31-2.03M697.78,449.02c-.49.48-1.02.92-1.59,1.3-.56.38-1.16.69-1.8.95-.62.26-1.28.46-1.95.59-.67.15-1.36.21-2.03.21-2.74,0-5.43-1.11-7.38-3.05-1.93-1.95-3.05-4.64-3.05-7.38s1.11-5.43,3.05-7.38c1.95-1.94,4.64-3.05,7.38-3.05s5.43,1.12,7.38,3.05c1.94,1.95,3.05,4.64,3.05,7.38s-1.11,5.43-3.05,7.38"/>
        <path class="cls-1" d="M663.31,294.56c-.53-1.26-1.17-2.48-1.92-3.61-.38-.56-.79-1.11-1.22-1.64-.44-.52-.9-1.05-1.38-1.52-.49-.48-1-.95-1.53-1.38-.53-.42-1.08-.84-1.66-1.21-1.11-.75-2.33-1.4-3.59-1.92-1.26-.52-2.57-.92-3.9-1.2-.67-.13-1.34-.23-2.02-.29-1.36-.15-2.75-.15-4.12,0-.67.07-1.35.16-2.02.29-1.33.28-2.64.67-3.9,1.2-1.26.52-2.48,1.17-3.61,1.92-.56.38-1.12.79-1.64,1.21-.54.43-1.05.9-1.53,1.38-.49.47-.95,1-1.38,1.52-.43.53-.84,1.08-1.21,1.64-.76,1.13-1.41,2.35-1.92,3.61-.52,1.26-.93,2.57-1.2,3.9-.13.67-.23,1.34-.31,2.02-.07.69-.1,1.38-.1,2.07,0,5.48,2.23,10.86,6.12,14.74.48.47.98.95,1.53,1.38.52.43,1.08.84,1.64,1.21,1.13.75,2.34,1.39,3.61,1.92,1.26.53,2.58.92,3.9,1.2.67.13,1.34.23,2.02.29.69.08,1.38.12,2.05.12,5.49,0,10.88-2.23,14.76-6.12.47-.48.93-1,1.38-1.53.43-.52.84-1.08,1.22-1.64.75-1.13,1.39-2.35,1.92-3.61.52-1.26.92-2.58,1.18-3.9.15-.67.25-1.35.31-2.02.07-.69.1-1.38.1-2.05s-.03-1.38-.1-2.07c-.07-.67-.17-1.34-.31-2.02-.26-1.33-.66-2.64-1.18-3.9"/>
        <path class="cls-1" d="M756.03,294.56c-.51-1.26-1.17-2.48-1.92-3.61-.38-.56-.77-1.11-1.22-1.64-.42-.52-.89-1.05-1.38-1.52-.48-.48-.98-.95-1.53-1.38-.52-.42-1.07-.84-1.64-1.21-1.13-.75-2.35-1.4-3.61-1.92-1.25-.52-2.56-.92-3.91-1.2-.65-.13-1.34-.23-2.02-.29-1.36-.15-2.74-.15-4.1,0-.69.07-1.36.16-2.03.29-1.33.28-2.64.67-3.9,1.2-1.26.52-2.46,1.17-3.59,1.92-.57.38-1.13.79-1.66,1.21-.52.43-1.03.9-1.52,1.38-.48.47-.93,1-1.38,1.52-.43.53-.84,1.08-1.21,1.64-.75,1.13-1.39,2.35-1.92,3.61-.53,1.26-.92,2.57-1.18,3.9-.15.67-.25,1.34-.31,2.02-.07.69-.1,1.38-.1,2.05s.03,1.38.1,2.07c.07.67.16,1.34.31,2.02.26,1.33.65,2.64,1.18,3.9.52,1.26,1.16,2.48,1.92,3.61.38.56.79,1.12,1.21,1.64.44.53.9,1.05,1.38,1.53.49.47,1,.95,1.52,1.38.53.43,1.08.84,1.66,1.21,1.13.75,2.35,1.39,3.59,1.92,1.26.53,2.58.92,3.9,1.2.67.13,1.36.23,2.03.29.67.07,1.36.1,2.05.1s1.36-.03,2.05-.1c.67-.07,1.36-.16,2.02-.29,1.35-.28,2.66-.67,3.91-1.2,1.26-.52,2.48-1.16,3.61-1.92.57-.38,1.12-.79,1.64-1.21.54-.43,1.05-.9,1.53-1.38.49-.48.95-1,1.38-1.53.44-.52.84-1.08,1.22-1.64.75-1.13,1.41-2.35,1.92-3.61.52-1.26.93-2.58,1.2-3.9.13-.67.23-1.35.29-2.02.08-.69.12-1.38.12-2.07s-.03-1.36-.12-2.05c-.07-.67-.16-1.34-.29-2.02-.26-1.33-.67-2.64-1.2-3.9"/>
        <path class="cls-1" d="M577.21,352.99c.28,1.33.67,2.64,1.2,3.9.52,1.26,1.16,2.48,1.92,3.61.38.56.79,1.12,1.21,1.64.43.53.9,1.05,1.38,1.53.48.48,1,.93,1.53,1.38.53.43,1.08.84,1.64,1.21,1.13.75,2.35,1.39,3.61,1.92,1.26.52,2.58.92,3.9,1.2.67.13,1.34.23,2.02.3.69.07,1.38.1,2.05.1s1.38-.03,2.05-.1c.69-.07,1.36-.17,2.03-.3,1.33-.28,2.64-.67,3.9-1.2,1.26-.53,2.48-1.16,3.61-1.92.56-.38,1.12-.79,1.64-1.21.53-.44,1.05-.9,1.53-1.38.47-.47.95-1,1.38-1.53.43-.52.84-1.08,1.21-1.64.75-1.13,1.39-2.35,1.92-3.61.53-1.26.92-2.58,1.2-3.9.13-.67.23-1.35.29-2.02.07-.69.12-1.38.12-2.07s-.05-1.36-.12-2.05c-.07-.67-.16-1.35-.29-2.02-.28-1.33-.67-2.66-1.2-3.9-.52-1.26-1.17-2.48-1.92-3.61-.38-.56-.79-1.11-1.21-1.64-.43-.54-.9-1.05-1.38-1.53-.47-.48-1-.95-1.53-1.38-.52-.43-1.08-.84-1.64-1.21-1.13-.75-2.34-1.39-3.61-1.92-1.26-.52-2.57-.93-3.9-1.2-.67-.13-1.34-.23-2.03-.29-1.36-.15-2.74-.15-4.1,0-.67.07-1.34.16-2.02.29-1.33.26-2.64.67-3.9,1.2-1.26.53-2.48,1.17-3.61,1.92-.56.38-1.11.79-1.64,1.21-.53.43-1.05.9-1.53,1.38-.47.48-.95.98-1.38,1.53-.43.53-.84,1.08-1.21,1.64-.75,1.13-1.39,2.35-1.92,3.61-.53,1.25-.92,2.58-1.2,3.9-.13.67-.23,1.35-.29,2.02-.07.69-.12,1.38-.12,2.05s.05,1.38.12,2.07c.07.67.16,1.35.29,2.02"/>
        <path class="cls-1" d="M803.59,344.83c-.26-1.33-.67-2.64-1.2-3.9-.52-1.26-1.16-2.48-1.92-3.61-.38-.56-.79-1.12-1.22-1.64-.43-.54-.89-1.05-1.38-1.52-.47-.49-.98-.95-1.52-1.38-.53-.43-1.08-.84-1.64-1.21-1.13-.76-2.34-1.39-3.61-1.92-1.26-.53-2.58-.93-3.9-1.2-.66-.13-1.34-.23-2.02-.29-1.36-.15-2.74-.15-4.1,0-.69.07-1.36.16-2.03.29-1.33.26-2.64.67-3.9,1.2-1.26.53-2.48,1.16-3.59,1.92-.57.38-1.13.79-1.66,1.21-.53.43-1.05.89-1.53,1.38-.48.48-.93.98-1.38,1.52-.43.52-.84,1.08-1.21,1.64-.75,1.13-1.39,2.35-1.92,3.61-.52,1.26-.92,2.58-1.18,3.9-.15.67-.24,1.35-.31,2.02-.07.69-.1,1.38-.1,2.05s.03,1.38.1,2.07c.07.67.16,1.35.31,2.02.26,1.33.66,2.64,1.18,3.9.53,1.26,1.16,2.48,1.92,3.61.38.56.79,1.12,1.21,1.64.44.53.9,1.05,1.38,1.53.47.48,1,.95,1.53,1.38.52.43,1.08.84,1.66,1.21,1.11.75,2.33,1.39,3.59,1.92,1.26.52,2.57.92,3.9,1.18.67.15,1.34.25,2.03.31.67.07,1.36.1,2.05.1s1.36-.03,2.05-.1c.67-.07,1.36-.17,2.02-.31,1.33-.26,2.64-.66,3.9-1.18,1.27-.53,2.48-1.17,3.61-1.92.56-.38,1.11-.79,1.64-1.21.54-.43,1.05-.9,1.52-1.38.49-.48.95-1,1.38-1.53.43-.52.84-1.08,1.22-1.64.75-1.13,1.39-2.35,1.92-3.61.53-1.26.94-2.57,1.2-3.9.13-.67.23-1.35.31-2.02.07-.69.1-1.38.1-2.07s-.03-1.36-.1-2.05c-.08-.67-.18-1.35-.31-2.02"/>
        <path class="cls-1" d="M711.17,393.22c-.07-.67-.18-1.36-.31-2.02-.26-1.33-.66-2.66-1.18-3.9-.52-1.26-1.16-2.48-1.92-3.61-.38-.57-.79-1.12-1.21-1.64-.44-.54-.9-1.05-1.38-1.53-.49-.49-1-.95-1.52-1.38-.53-.44-1.08-.85-1.66-1.23-1.13-.74-2.34-1.39-3.59-1.92-1.26-.51-2.57-.92-3.9-1.18-.67-.13-1.36-.25-2.03-.31-1.36-.13-2.74-.13-4.1,0-.67.07-1.36.18-2.03.31-1.33.26-2.64.67-3.9,1.18-1.25.53-2.46,1.18-3.59,1.92-.57.38-1.13.79-1.66,1.23-.53.43-1.03.89-1.51,1.38-.49.48-.95.98-1.4,1.53-.43.52-.84,1.07-1.21,1.64-.74,1.13-1.4,2.35-1.92,3.61-.51,1.25-.92,2.57-1.18,3.9-.13.65-.25,1.34-.31,2.02-.07.69-.1,1.38-.1,2.05s.03,1.38.1,2.05c.07.67.18,1.36.31,2.03.26,1.33.67,2.64,1.18,3.9.52,1.25,1.18,2.46,1.92,3.59.38.57.79,1.13,1.21,1.66.44.53.9,1.03,1.4,1.52.47.48.98.94,1.51,1.38.54.43,1.08.84,1.66,1.21,1.13.76,2.34,1.4,3.61,1.92,1.25.51,2.56.92,3.9,1.18.66.13,1.34.24,2.02.31.67.07,1.38.1,2.05.1s1.38-.03,2.05-.1c.67-.07,1.36-.18,2.03-.31,1.33-.26,2.64-.67,3.9-1.18,1.25-.52,2.46-1.16,3.59-1.92.57-.38,1.13-.79,1.66-1.21.53-.44,1.03-.9,1.52-1.38.48-.49.94-1,1.38-1.52.43-.53.84-1.08,1.21-1.66.76-1.13,1.4-2.35,1.92-3.59.53-1.26.92-2.58,1.18-3.9.13-.67.24-1.36.31-2.03.07-.67.1-1.36.1-2.05s-.03-1.36-.1-2.05M700.64,397.3c-.13.67-.35,1.33-.61,1.95-.26.64-.57,1.25-.95,1.8-.38.57-.82,1.11-1.3,1.59-1.93,1.94-4.62,3.05-7.38,3.05s-5.43-1.11-7.38-3.05c-.48-.48-.9-1.02-1.29-1.59-.38-.56-.69-1.17-.95-1.8-.26-.62-.46-1.28-.61-1.95-.13-.67-.2-1.34-.2-2.03,0-2.74,1.11-5.43,3.05-7.38.49-.48,1.02-.92,1.59-1.3.56-.38,1.17-.69,1.8-.95.62-.26,1.28-.46,1.95-.59,3.39-.69,6.99.43,9.41,2.84.48.49.92,1.02,1.3,1.59.38.57.69,1.18.95,1.8.26.62.48,1.28.61,1.95.13.67.2,1.36.2,2.03s-.07,1.36-.2,2.03"/>
        <path class="cls-1" d="M756.04,433.65c-.52-1.27-1.17-2.47-1.93-3.61-.76-1.14-1.63-2.19-2.59-3.16-.97-.97-2.02-1.83-3.16-2.59-1.14-.76-2.34-1.4-3.61-1.93-1.26-.52-2.57-.92-3.91-1.19-1.35-.27-2.7-.4-4.07-.4s-2.73.13-4.07.4c-1.34.27-2.65.66-3.91,1.19-1.27.53-2.47,1.17-3.61,1.93-1.14.76-2.19,1.63-3.16,2.59-.97.97-1.83,2.02-2.59,3.16-.76,1.14-1.4,2.34-1.93,3.61-.53,1.27-.92,2.57-1.19,3.91-.27,1.34-.4,2.7-.4,4.07v25.5h-51v-25.5c0-1.37-.13-2.73-.4-4.07-.27-1.34-.66-2.65-1.19-3.91-.52-1.27-1.17-2.47-1.93-3.61-.76-1.14-1.63-2.19-2.6-3.16-.97-.97-2.02-1.83-3.16-2.59-1.14-.76-2.34-1.4-3.61-1.93-1.27-.52-2.57-.92-3.91-1.19-1.34-.27-2.7-.4-4.07-.4s-2.73.13-4.07.4c-1.34.27-2.65.66-3.92,1.19-1.27.53-2.47,1.17-3.61,1.93-1.14.76-2.19,1.63-3.16,2.59-.97.97-1.83,2.02-2.59,3.16-.76,1.14-1.4,2.34-1.93,3.61-.52,1.27-.92,2.57-1.19,3.91-.27,1.34-.4,2.7-.4,4.07v46.36c0,1.37.13,2.73.4,4.07.27,1.34.66,2.65,1.19,3.91.52,1.27,1.17,2.47,1.93,3.61s1.63,2.19,2.59,3.16c.97.97,2.02,1.83,3.16,2.59,1.14.76,2.34,1.4,3.61,1.93,1.27.53,2.57.92,3.92,1.19,1.34.27,2.7.4,4.07.4h92.73c1.37,0,2.73-.13,4.07-.4,1.34-.27,2.65-.66,3.91-1.19,1.27-.52,2.47-1.17,3.61-1.93,1.14-.76,2.19-1.63,3.16-2.59.97-.97,1.83-2.02,2.59-3.16s1.4-2.34,1.93-3.61c.52-1.26.92-2.57,1.19-3.91.27-1.34.4-2.7.4-4.07v-46.36c0-1.37-.13-2.73-.4-4.07-.27-1.34-.66-2.65-1.19-3.91"/>
      </g>
      <rect class="cls-1" y="140.84" width="41.74" height="41.74"/>
      <rect class="cls-1" x="185.47" y="140.84" width="41.73" height="41.74"/>
      <rect class="cls-1" x="92.73" y="279.93" width="41.73" height="41.73"/>
      <rect class="cls-1" x="46.37" y="140.84" width="41.72" height="41.74"/>
      <rect class="cls-1" x="139.1" y="140.84" width="41.73" height="41.72"/>
      <rect class="cls-1" y="187.2" width="41.74" height="41.72"/>
      <rect class="cls-1" y="233.57" width="41.74" height="41.72"/>
      <rect class="cls-1" y="279.94" width="41.74" height="41.72"/>
      <rect class="cls-1" x="46.36" y="187.2" width="41.74" height="41.72"/>
      <rect class="cls-1" x="92.74" y="140.84" width="41.72" height="41.74"/>
      <rect class="cls-1" x="92.73" y="187.2" width="41.74" height="41.72"/>
      <rect class="cls-1" x="46.36" y="233.57" width="41.74" height="41.72"/>
      <rect class="cls-1" x="46.36" y="279.94" width="41.74" height="41.72"/>
      <rect class="cls-1" x="185.47" y="187.2" width="41.73" height="41.72"/>
      <rect class="cls-1" x="92.74" y="233.57" width="41.72" height="41.73"/>
      <rect class="cls-1" x="139.1" y="279.93" width="41.73" height="41.73"/>
      <rect class="cls-1" x="139.09" y="187.2" width="41.74" height="41.72"/>
      <rect class="cls-1" x="139.1" y="233.57" width="41.73" height="41.73"/>
      <rect class="cls-1" x="185.47" y="279.93" width="41.73" height="41.73"/>
      <rect class="cls-1" x="92.73" y="326.3" width="41.73" height="41.73"/>
      <rect class="cls-1" y="326.3" width="41.74" height="41.72"/>
      <rect class="cls-1" x="46.36" y="326.3" width="41.74" height="41.72"/>
      <rect class="cls-1" x="139.1" y="326.3" width="41.73" height="41.73"/>
      <rect class="cls-1" x="185.47" y="326.3" width="41.73" height="41.73"/>
      <rect class="cls-1" x="185.47" y="233.57" width="41.73" height="41.73"/>
      <g>
        <path class="cls-1" d="M802.41,105.61c-.52-1.27-1.17-2.47-1.93-3.61-.76-1.14-1.62-2.19-2.59-3.16-.97-.97-2.02-1.83-3.16-2.59-1.14-.76-2.34-1.4-3.61-1.93s-2.57-.92-3.91-1.19c-1.34-.27-2.7-.4-4.07-.4h-25.5v-25.5c0-1.37-.13-2.73-.4-4.07-.27-1.34-.66-2.65-1.19-3.91-.52-1.27-1.17-2.47-1.93-3.61-.76-1.14-1.62-2.19-2.59-3.16-.97-.97-2.02-1.83-3.16-2.59-1.14-.76-2.34-1.4-3.61-1.93-1.27-.52-2.57-.92-3.91-1.19-1.34-.27-2.7-.4-4.07-.4h-25.5v-25.5c0-1.37-.13-2.73-.4-4.07-.27-1.35-.66-2.65-1.19-3.92-.52-1.26-1.17-2.47-1.93-3.61s-1.63-2.19-2.59-3.16c-.97-.97-2.02-1.83-3.16-2.6-1.14-.76-2.34-1.4-3.61-1.93-1.27-.52-2.57-.92-3.91-1.19-1.34-.27-2.7-.4-4.07-.4s-2.73.13-4.07.4c-1.34.27-2.65.66-3.91,1.19-1.27.52-2.47,1.17-3.61,1.93-1.14.76-2.19,1.63-3.16,2.6-.97.97-1.83,2.02-2.59,3.16s-1.4,2.34-1.93,3.61c-.52,1.27-.92,2.57-1.19,3.92-.27,1.34-.4,2.7-.4,4.07v46.36c0,1.37.13,2.73.4,4.07.27,1.34.66,2.65,1.19,3.91.53,1.27,1.17,2.47,1.93,3.61.76,1.14,1.63,2.19,2.59,3.16s2.02,1.83,3.16,2.6c1.14.76,2.34,1.4,3.61,1.93,1.27.52,2.57.92,3.91,1.19,1.34.27,2.7.4,4.07.4h25.5v25.5c0,1.37.13,2.73.4,4.07.27,1.34.66,2.65,1.19,3.91.53,1.27,1.17,2.47,1.93,3.61.76,1.14,1.63,2.19,2.59,3.16.97.97,2.02,1.83,3.16,2.59,1.14.76,2.34,1.4,3.61,1.93,1.27.52,2.57.92,3.91,1.19,1.34.27,2.7.4,4.07.4h25.5v71.86c0,1.37.13,2.73.4,4.07.27,1.34.66,2.65,1.19,3.91.52,1.26,1.17,2.47,1.93,3.61.76,1.14,1.63,2.19,2.6,3.16.97.97,2.02,1.83,3.16,2.6,1.14.76,2.34,1.4,3.61,1.93,1.27.52,2.57.92,3.91,1.19,1.34.27,2.7.4,4.07.4s2.73-.13,4.07-.4c1.34-.27,2.65-.66,3.91-1.19,1.27-.52,2.47-1.17,3.61-1.93,1.14-.76,2.19-1.63,3.16-2.6.97-.97,1.83-2.02,2.59-3.16s1.4-2.34,1.93-3.61c.52-1.27.92-2.57,1.19-3.91.27-1.34.4-2.7.4-4.07v-92.73c0-1.37-.13-2.73-.4-4.07-.27-1.34-.66-2.65-1.19-3.91"/>
        <path class="cls-1" d="M644.04,134.46c1.37,0,2.73-.13,4.07-.4,1.34-.27,2.65-.66,3.91-1.19,1.27-.52,2.47-1.17,3.61-1.93,1.14-.76,2.19-1.63,3.16-2.6.97-.97,1.83-2.02,2.6-3.16s1.4-2.34,1.93-3.61c.52-1.27.92-2.57,1.19-3.91.27-1.34.4-2.7.4-4.07v-46.36c0-1.37-.13-2.73-.4-4.07-.27-1.34-.66-2.65-1.19-3.91-.52-1.27-1.17-2.47-1.93-3.61-.76-1.14-1.63-2.19-2.6-3.16-.97-.97-2.02-1.83-3.16-2.59-1.14-.76-2.34-1.4-3.61-1.93-1.27-.52-2.57-.92-3.91-1.19-1.34-.27-2.7-.4-4.07-.4s-2.73.13-4.07.4c-1.34.27-2.65.66-3.91,1.19-1.27.52-2.47,1.17-3.61,1.93-1.14.76-2.19,1.62-3.16,2.59-.97.97-1.83,2.02-2.6,3.16-.76,1.14-1.4,2.34-1.93,3.61-.52,1.27-.92,2.57-1.19,3.91-.27,1.34-.4,2.7-.4,4.07v25.5h-25.5c-1.37,0-2.73.13-4.07.4-1.34.27-2.65.66-3.91,1.19-1.27.52-2.47,1.17-3.61,1.93-1.14.76-2.19,1.63-3.16,2.59-.97.97-1.83,2.02-2.59,3.16-.76,1.14-1.4,2.34-1.93,3.61-.52,1.27-.92,2.57-1.19,3.91-.27,1.34-.4,2.7-.4,4.07v92.73c0,1.37.13,2.73.4,4.07.27,1.34.66,2.65,1.19,3.91.52,1.27,1.17,2.47,1.93,3.61.76,1.14,1.62,2.19,2.59,3.16.97.97,2.02,1.83,3.16,2.59,1.14.76,2.34,1.4,3.61,1.93,1.27.52,2.57.92,3.91,1.19,1.34.27,2.7.4,4.07.4s2.73-.13,4.07-.4c1.34-.27,2.65-.66,3.91-1.19,1.27-.52,2.47-1.17,3.61-1.93,1.14-.76,2.19-1.63,3.16-2.59.97-.97,1.83-2.02,2.59-3.16.76-1.14,1.4-2.34,1.93-3.61.52-1.27.92-2.57,1.19-3.91.27-1.34.4-2.7.4-4.07v-71.86h25.5Z"/>
        <path class="cls-1" d="M711.17,111.54c-.07-.67-.18-1.36-.31-2.02-.26-1.33-.66-2.66-1.18-3.9-.52-1.26-1.16-2.48-1.92-3.61-.38-.58-.79-1.12-1.21-1.64-.44-.54-.9-1.05-1.38-1.53-.49-.49-1-.95-1.53-1.38-.52-.44-1.08-.85-1.65-1.23-1.13-.74-2.35-1.4-3.59-1.92-1.26-.51-2.57-.92-3.9-1.18-.67-.13-1.36-.25-2.03-.31-1.36-.13-2.74-.13-4.1,0-.67.07-1.36.18-2.03.31-1.33.26-2.64.67-3.9,1.18-1.25.52-2.46,1.18-3.59,1.92-.57.38-1.13.79-1.66,1.23-.53.43-1.03.89-1.51,1.38-.49.48-.95.98-1.39,1.53-.43.52-.84,1.07-1.21,1.64-.74,1.13-1.4,2.34-1.92,3.61-.51,1.25-.92,2.57-1.18,3.9-.13.65-.24,1.34-.31,2.02-.07.69-.1,1.38-.1,2.05s.03,1.38.1,2.05c.07.67.18,1.36.31,2.03.26,1.33.67,2.64,1.18,3.9.53,1.25,1.18,2.46,1.92,3.59.38.57.79,1.13,1.21,1.66.44.53.9,1.03,1.39,1.52.48.48.98.94,1.51,1.38.54.43,1.08.84,1.66,1.21,1.13.76,2.35,1.39,3.61,1.92,1.25.51,2.56.92,3.9,1.18.66.13,1.35.24,2.02.31.67.07,1.38.1,2.05.1s1.38-.03,2.05-.1c.67-.07,1.36-.18,2.03-.31,1.33-.26,2.64-.67,3.9-1.18,1.25-.52,2.46-1.16,3.59-1.92.57-.38,1.13-.79,1.65-1.21.53-.44,1.03-.9,1.53-1.38.48-.49.94-1,1.38-1.52.43-.53.84-1.08,1.21-1.66.76-1.13,1.4-2.35,1.92-3.59.53-1.26.92-2.58,1.18-3.9.13-.67.25-1.36.31-2.03.06-.67.1-1.36.1-2.05s-.03-1.36-.1-2.05"/>
        <path class="cls-1" d="M756.05,151.97c-.52-1.27-1.17-2.47-1.93-3.61-.76-1.14-1.63-2.19-2.59-3.16-.97-.97-2.02-1.83-3.16-2.59-1.14-.76-2.34-1.4-3.61-1.93-1.26-.52-2.57-.92-3.91-1.19-1.35-.27-2.7-.4-4.07-.4s-2.73.13-4.07.4c-1.34.27-2.65.66-3.91,1.19-1.27.52-2.47,1.17-3.61,1.93-1.14.76-2.19,1.63-3.16,2.59-.97.97-1.83,2.02-2.59,3.16-.76,1.14-1.4,2.34-1.93,3.61-.53,1.27-.92,2.57-1.19,3.91-.27,1.34-.4,2.7-.4,4.07v25.5h-51v-25.5c0-1.37-.13-2.73-.4-4.07-.27-1.34-.66-2.65-1.19-3.91-.52-1.27-1.17-2.47-1.93-3.61-.76-1.14-1.63-2.19-2.6-3.16s-2.02-1.83-3.16-2.59c-1.14-.76-2.34-1.4-3.61-1.93-1.27-.52-2.57-.92-3.91-1.19-1.34-.27-2.7-.4-4.07-.4s-2.73.13-4.07.4c-1.34.27-2.65.66-3.92,1.19-1.27.52-2.47,1.17-3.61,1.93-1.14.76-2.19,1.63-3.16,2.59s-1.83,2.02-2.59,3.16c-.76,1.14-1.4,2.34-1.93,3.61-.52,1.27-.92,2.57-1.19,3.91-.27,1.34-.4,2.7-.4,4.07v46.36c0,1.37.13,2.73.4,4.07.27,1.34.66,2.65,1.19,3.91.52,1.27,1.17,2.47,1.93,3.61.76,1.14,1.63,2.19,2.59,3.16.97.97,2.02,1.83,3.16,2.59,1.14.76,2.34,1.4,3.61,1.93,1.27.52,2.57.92,3.92,1.19,1.34.27,2.7.4,4.07.4h92.73c1.37,0,2.73-.13,4.07-.4,1.34-.27,2.65-.66,3.91-1.19,1.27-.52,2.47-1.17,3.61-1.93,1.14-.76,2.19-1.63,3.16-2.59.97-.97,1.83-2.02,2.59-3.16.76-1.14,1.4-2.34,1.93-3.61.52-1.27.92-2.57,1.19-3.91.27-1.34.4-2.7.4-4.07v-46.36c0-1.37-.13-2.73-.4-4.07-.27-1.34-.66-2.65-1.19-3.91"/>
        <path class="cls-1" d="M288.82,306.62c.28,1.33.67,2.64,1.2,3.9.52,1.26,1.16,2.48,1.92,3.61.38.56.79,1.12,1.21,1.64.43.52.9,1.05,1.38,1.52.48.48,1,.95,1.52,1.38.53.43,1.08.84,1.64,1.21,1.13.75,2.35,1.39,3.61,1.92,1.26.53,2.58.92,3.9,1.2.67.13,1.35.23,2.02.29.69.08,1.38.12,2.05.12s1.38-.03,2.05-.12c.69-.07,1.36-.16,2.03-.29,1.33-.28,2.64-.67,3.9-1.2,1.26-.52,2.48-1.16,3.61-1.92.56-.38,1.12-.79,1.64-1.21s1.05-.9,1.52-1.38c.48-.47.95-1,1.38-1.52.43-.52.84-1.08,1.21-1.64.75-1.13,1.39-2.35,1.92-3.61.53-1.26.92-2.58,1.2-3.9.13-.67.23-1.35.29-2.03.07-.67.12-1.36.12-2.05s-.05-1.36-.12-2.05c-.07-.67-.16-1.34-.29-2.02-.28-1.33-.67-2.64-1.2-3.9-.52-1.26-1.17-2.48-1.92-3.61-.38-.56-.79-1.12-1.21-1.64-.43-.53-.9-1.05-1.38-1.52-.47-.48-1-.95-1.52-1.38-.52-.43-1.08-.84-1.64-1.21-1.13-.76-2.35-1.4-3.61-1.92-1.26-.53-2.57-.92-3.9-1.2-.67-.13-1.34-.23-2.03-.3-1.36-.15-2.74-.15-4.1,0-.67.07-1.34.16-2.02.3-1.33.28-2.64.67-3.9,1.2-1.26.52-2.48,1.16-3.61,1.92-.56.38-1.11.79-1.64,1.21-.52.43-1.05.9-1.52,1.38-.48.47-.95,1-1.38,1.52-.43.52-.84,1.08-1.21,1.64-.75,1.13-1.39,2.35-1.92,3.61-.53,1.26-.92,2.57-1.2,3.9-.13.67-.23,1.34-.29,2.02-.07.69-.12,1.38-.12,2.05s.05,1.38.12,2.05c.07.69.16,1.36.29,2.03"/>
        <path class="cls-1" d="M514.01,387.29c-.52-1.27-1.17-2.47-1.93-3.61s-1.63-2.19-2.59-3.16c-.97-.97-2.02-1.83-3.16-2.59-1.14-.76-2.34-1.4-3.61-1.93-1.27-.52-2.57-.92-3.91-1.19-1.34-.27-2.7-.4-4.07-.4h-25.5v-25.5c0-1.37-.13-2.73-.4-4.07-.27-1.34-.66-2.65-1.19-3.91-.52-1.26-1.17-2.47-1.93-3.61-.76-1.14-1.63-2.19-2.6-3.16-.97-.97-2.02-1.83-3.16-2.59-1.14-.76-2.34-1.4-3.61-1.93-1.27-.52-2.57-.92-3.91-1.19-1.34-.27-2.7-.4-4.07-.4h-25.5v-25.5c0-1.37-.13-2.73-.4-4.07-.27-1.34-.66-2.65-1.19-3.91-.52-1.26-1.17-2.47-1.93-3.61-.76-1.14-1.62-2.19-2.59-3.16-.97-.97-2.02-1.83-3.16-2.59-1.14-.76-2.34-1.4-3.61-1.93-1.26-.52-2.57-.92-3.91-1.19-1.34-.27-2.7-.4-4.07-.4s-2.73.13-4.07.4c-1.34.27-2.65.66-3.91,1.19-1.27.52-2.47,1.17-3.61,1.93-1.14.76-2.19,1.63-3.16,2.59-.97.97-1.83,2.02-2.6,3.16-.76,1.14-1.4,2.34-1.93,3.61-.52,1.27-.92,2.57-1.19,3.91-.27,1.34-.4,2.7-.4,4.07v46.36c0,1.37.13,2.73.4,4.07.27,1.34.66,2.65,1.19,3.91.53,1.27,1.17,2.47,1.93,3.61.76,1.14,1.63,2.19,2.6,3.16.97.97,2.02,1.83,3.16,2.6,1.14.76,2.34,1.4,3.61,1.93,1.27.52,2.57.92,3.91,1.19,1.34.27,2.7.4,4.07.4h25.5v25.5c0,1.37.13,2.73.4,4.07.27,1.34.66,2.65,1.19,3.91.52,1.27,1.17,2.47,1.93,3.61.76,1.14,1.63,2.19,2.59,3.16.97.97,2.02,1.83,3.16,2.59,1.14.76,2.34,1.4,3.61,1.93,1.27.52,2.57.92,3.91,1.19,1.34.27,2.7.4,4.07.4h25.5v71.86c0,1.37.13,2.73.4,4.07.27,1.34.66,2.65,1.19,3.91.52,1.26,1.17,2.47,1.93,3.61.76,1.14,1.63,2.19,2.6,3.16.97.97,2.02,1.83,3.16,2.6,1.14.76,2.34,1.4,3.61,1.93,1.26.52,2.57.92,3.91,1.19,1.34.27,2.7.4,4.07.4s2.73-.13,4.07-.4c1.34-.27,2.65-.66,3.91-1.19,1.27-.53,2.47-1.17,3.61-1.93,1.14-.76,2.19-1.63,3.16-2.6.97-.97,1.83-2.02,2.59-3.16s1.4-2.34,1.93-3.61c.52-1.27.92-2.57,1.19-3.91.27-1.34.4-2.7.4-4.07v-92.73c0-1.37-.13-2.73-.4-4.07-.27-1.34-.66-2.65-1.19-3.91"/>
        <path class="cls-1" d="M515.19,298.47c-.26-1.33-.67-2.64-1.2-3.9-.52-1.26-1.16-2.48-1.92-3.61-.38-.56-.79-1.12-1.21-1.64-.43-.52-.89-1.05-1.38-1.52-.48-.48-.98-.95-1.52-1.38-.53-.43-1.08-.84-1.64-1.21-1.13-.76-2.34-1.4-3.61-1.92-1.26-.53-2.58-.92-3.9-1.2-.66-.13-1.35-.23-2.02-.29-1.36-.15-2.74-.15-4.1,0-.69.07-1.36.16-2.03.29-1.33.28-2.64.67-3.9,1.2-1.26.52-2.48,1.16-3.59,1.92-.57.38-1.13.79-1.66,1.21-.53.43-1.05.9-1.53,1.38-.48.47-.93,1-1.38,1.52-.43.52-.84,1.08-1.21,1.64-.75,1.13-1.39,2.35-1.92,3.61-.52,1.26-.92,2.57-1.18,3.9-.15.67-.24,1.34-.31,2.02-.07.69-.1,1.38-.1,2.07s.03,1.36.1,2.05c.07.67.16,1.34.31,2.02.26,1.33.66,2.64,1.18,3.9.53,1.26,1.17,2.48,1.92,3.61.38.56.79,1.11,1.21,1.64.44.54.9,1.05,1.38,1.52.48.48,1,.95,1.53,1.38.52.43,1.08.84,1.66,1.22,1.11.75,2.33,1.39,3.59,1.92,1.26.53,2.57.92,3.9,1.2.67.13,1.34.23,2.03.29.67.07,1.36.12,2.05.12s1.36-.05,2.05-.12c.67-.07,1.36-.16,2.02-.29,1.33-.28,2.64-.67,3.9-1.2,1.26-.52,2.48-1.16,3.61-1.92.56-.38,1.12-.79,1.64-1.22.54-.42,1.05-.9,1.52-1.38.49-.48.95-.98,1.38-1.52.43-.53.84-1.08,1.21-1.64.75-1.13,1.39-2.35,1.92-3.61.53-1.26.94-2.58,1.2-3.9.13-.67.23-1.34.31-2.02.07-.69.1-1.38.1-2.05s-.03-1.38-.1-2.07c-.08-.67-.18-1.34-.31-2.02"/>
        <path class="cls-1" d="M355.64,416.14c1.37,0,2.73-.13,4.07-.4,1.34-.27,2.65-.66,3.91-1.19,1.27-.53,2.47-1.17,3.61-1.93,1.14-.76,2.19-1.63,3.16-2.6.97-.97,1.83-2.02,2.6-3.16s1.4-2.34,1.93-3.61c.52-1.26.92-2.57,1.19-3.91.27-1.34.4-2.7.4-4.07v-46.36c0-1.37-.13-2.73-.4-4.07-.27-1.34-.66-2.65-1.19-3.91-.52-1.27-1.17-2.47-1.93-3.61-.76-1.14-1.63-2.19-2.6-3.16-.97-.97-2.02-1.83-3.16-2.59-1.14-.76-2.34-1.4-3.61-1.93-1.27-.52-2.57-.92-3.91-1.19-1.34-.27-2.7-.4-4.07-.4s-2.73.13-4.07.4c-1.34.27-2.65.66-3.91,1.19-1.27.52-2.47,1.17-3.61,1.93-1.14.76-2.19,1.62-3.16,2.59-.97.97-1.83,2.02-2.6,3.16-.76,1.14-1.4,2.34-1.93,3.61-.52,1.27-.92,2.57-1.19,3.91-.27,1.34-.4,2.7-.4,4.07v25.5h-25.5c-1.37,0-2.73.13-4.07.4-1.34.27-2.65.66-3.91,1.19-1.27.52-2.47,1.17-3.61,1.93-1.14.76-2.19,1.63-3.16,2.59-.97.97-1.83,2.02-2.59,3.16-.76,1.14-1.4,2.34-1.93,3.61-.52,1.27-.92,2.57-1.19,3.91-.27,1.34-.4,2.7-.4,4.07v92.73c0,1.37.13,2.73.4,4.07.27,1.34.66,2.65,1.19,3.91.52,1.27,1.17,2.47,1.93,3.61.76,1.14,1.62,2.19,2.59,3.16.97.97,2.02,1.83,3.16,2.59,1.14.76,2.34,1.4,3.61,1.93,1.27.52,2.57.92,3.91,1.19,1.34.27,2.7.4,4.07.4s2.73-.13,4.07-.4c1.34-.27,2.65-.66,3.91-1.19,1.27-.52,2.47-1.17,3.61-1.93,1.14-.76,2.19-1.63,3.16-2.59.97-.97,1.83-2.02,2.59-3.16.76-1.14,1.4-2.34,1.93-3.61.52-1.26.92-2.57,1.19-3.91.27-1.34.4-2.7.4-4.07v-71.86h25.5Z"/>
        <path class="cls-1" d="M422.46,437.55c-.26-1.33-.66-2.64-1.18-3.9-.52-1.25-1.16-2.46-1.92-3.59-.38-.57-.79-1.13-1.21-1.66-.45-.52-.9-1.03-1.38-1.52-.49-.48-1-.94-1.52-1.38-.52-.43-1.08-.84-1.65-1.21-1.13-.75-2.35-1.39-3.59-1.92-1.26-.51-2.57-.92-3.9-1.18-.67-.13-1.36-.25-2.03-.31-1.36-.13-2.74-.13-4.1,0-.67.07-1.36.18-2.03.31-1.33.26-2.64.67-3.9,1.18-1.25.52-2.46,1.17-3.59,1.92-.57.38-1.13.79-1.66,1.21-.52.44-1.03.9-1.51,1.38-.49.49-.95,1-1.4,1.52-.43.53-.84,1.08-1.21,1.66-.74,1.13-1.39,2.35-1.92,3.59-.51,1.26-.92,2.58-1.18,3.9-.13.67-.24,1.36-.31,2.03-.07.67-.1,1.36-.1,2.05,0,5.49,2.23,10.87,6.12,14.74.48.49.98.95,1.51,1.38.54.42,1.08.83,1.66,1.21,1.13.75,2.34,1.41,3.61,1.92,1.25.53,2.56.94,3.9,1.2.66.13,1.35.23,2.02.29.67.08,1.38.12,2.05.12s1.38-.03,2.05-.12c.67-.07,1.36-.16,2.03-.29,1.33-.26,2.64-.67,3.9-1.2,1.25-.51,2.46-1.16,3.59-1.92.57-.38,1.13-.79,1.65-1.21.53-.43,1.03-.89,1.52-1.38,3.87-3.87,6.1-9.25,6.1-14.74,0-.69-.03-1.38-.1-2.05-.07-.67-.18-1.36-.31-2.03"/>
        <path class="cls-1" d="M374.91,294.56c-.53-1.26-1.17-2.48-1.92-3.61-.38-.56-.79-1.11-1.21-1.64-.44-.52-.9-1.05-1.38-1.52-.49-.48-1-.95-1.53-1.38-.52-.42-1.08-.84-1.66-1.21-1.11-.75-2.33-1.4-3.59-1.92-1.26-.52-2.57-.92-3.9-1.2-.67-.13-1.35-.23-2.02-.29-1.36-.15-2.75-.15-4.12,0-.67.07-1.35.16-2.02.29-1.33.28-2.64.67-3.9,1.2-1.26.52-2.48,1.17-3.61,1.92-.56.38-1.12.79-1.64,1.21-.54.43-1.05.9-1.53,1.38-.49.47-.95,1-1.38,1.52-.43.53-.84,1.08-1.21,1.64-.76,1.13-1.41,2.35-1.92,3.61-.52,1.26-.93,2.57-1.2,3.9-.13.67-.23,1.34-.31,2.02-.07.69-.1,1.38-.1,2.07,0,5.48,2.23,10.86,6.12,14.74.48.47.98.95,1.53,1.38.52.43,1.08.84,1.64,1.21,1.13.75,2.35,1.39,3.61,1.92,1.26.53,2.58.92,3.9,1.2.67.13,1.35.23,2.02.29.69.08,1.38.12,2.05.12,5.49,0,10.88-2.23,14.76-6.12.48-.48.93-1,1.38-1.53.43-.52.84-1.08,1.21-1.64.75-1.13,1.39-2.35,1.92-3.61.52-1.26.92-2.58,1.18-3.9.15-.67.25-1.35.31-2.02.07-.69.1-1.38.1-2.05s-.03-1.38-.1-2.07c-.07-.67-.17-1.34-.31-2.02-.26-1.33-.65-2.64-1.18-3.9"/>
        <path class="cls-1" d="M467.63,294.56c-.51-1.26-1.17-2.48-1.92-3.61-.38-.56-.77-1.11-1.21-1.64-.43-.52-.89-1.05-1.38-1.52-.48-.48-.98-.95-1.53-1.38-.52-.42-1.07-.84-1.64-1.21-1.13-.75-2.35-1.4-3.61-1.92-1.25-.52-2.56-.92-3.91-1.2-.65-.13-1.34-.23-2.02-.29-1.36-.15-2.74-.15-4.1,0-.69.07-1.36.16-2.03.29-1.33.28-2.64.67-3.9,1.2-1.26.52-2.46,1.17-3.59,1.92-.57.38-1.13.79-1.66,1.21-.52.43-1.03.9-1.52,1.38-.48.47-.93,1-1.38,1.52-.43.53-.84,1.08-1.21,1.64-.75,1.13-1.39,2.35-1.92,3.61-.53,1.26-.92,2.57-1.18,3.9-.15.67-.25,1.34-.31,2.02-.06.69-.1,1.38-.1,2.05s.03,1.38.1,2.07c.07.67.16,1.34.31,2.02.26,1.33.65,2.64,1.18,3.9.52,1.26,1.17,2.48,1.92,3.61.38.56.79,1.12,1.21,1.64.44.53.9,1.05,1.38,1.53.49.47,1,.95,1.52,1.38.52.43,1.08.84,1.66,1.21,1.13.75,2.35,1.39,3.59,1.92,1.26.53,2.58.92,3.9,1.2.67.13,1.36.23,2.03.29.67.07,1.36.1,2.05.1s1.36-.03,2.05-.1c.67-.07,1.36-.16,2.02-.29,1.35-.28,2.66-.67,3.91-1.2,1.26-.52,2.48-1.16,3.61-1.92.57-.38,1.12-.79,1.64-1.21.54-.43,1.05-.9,1.53-1.38.49-.48.95-1,1.38-1.53.44-.52.84-1.08,1.21-1.64.75-1.13,1.41-2.35,1.92-3.61.52-1.26.93-2.58,1.2-3.9.13-.67.23-1.35.29-2.02.08-.69.12-1.38.12-2.07s-.03-1.36-.12-2.05c-.07-.67-.16-1.34-.29-2.02-.26-1.33-.67-2.64-1.2-3.9"/>
        <path class="cls-1" d="M288.82,352.99c.28,1.33.67,2.64,1.2,3.9.52,1.26,1.16,2.48,1.92,3.61.38.56.79,1.12,1.21,1.64.43.53.9,1.05,1.38,1.53.48.48,1,.93,1.52,1.38.53.43,1.08.84,1.64,1.21,1.13.75,2.35,1.39,3.61,1.92,1.26.52,2.58.92,3.9,1.2.67.13,1.35.23,2.02.3.69.07,1.38.1,2.05.1s1.38-.03,2.05-.1c.69-.07,1.36-.17,2.03-.3,1.33-.28,2.64-.67,3.9-1.2,1.26-.53,2.48-1.16,3.61-1.92.56-.38,1.12-.79,1.64-1.21.52-.44,1.05-.9,1.52-1.38.48-.47.95-1,1.38-1.53.43-.52.84-1.08,1.21-1.64.75-1.13,1.39-2.35,1.92-3.61.53-1.26.92-2.58,1.2-3.9.13-.67.23-1.35.29-2.02.07-.69.12-1.38.12-2.07s-.05-1.36-.12-2.05c-.07-.67-.16-1.35-.29-2.02-.28-1.33-.67-2.66-1.2-3.9-.52-1.26-1.17-2.48-1.92-3.61-.38-.56-.79-1.11-1.21-1.64-.43-.54-.9-1.05-1.38-1.53-.47-.48-1-.95-1.52-1.38-.52-.43-1.08-.84-1.64-1.21-1.13-.75-2.35-1.39-3.61-1.92-1.26-.52-2.57-.93-3.9-1.2-.67-.13-1.34-.23-2.03-.29-1.36-.15-2.74-.15-4.1,0-.67.07-1.34.16-2.02.29-1.33.26-2.64.67-3.9,1.2-1.26.53-2.48,1.17-3.61,1.92-.56.38-1.11.79-1.64,1.21-.52.43-1.05.9-1.52,1.38-.48.48-.95.98-1.38,1.53-.43.53-.84,1.08-1.21,1.64-.75,1.13-1.39,2.35-1.92,3.61-.53,1.25-.92,2.58-1.2,3.9-.13.67-.23,1.35-.29,2.02-.07.69-.12,1.38-.12,2.05s.05,1.38.12,2.07c.07.67.16,1.35.29,2.02"/>
        <path class="cls-1" d="M515.19,344.83c-.26-1.33-.67-2.64-1.2-3.9-.52-1.26-1.16-2.48-1.92-3.61-.38-.56-.79-1.12-1.21-1.64-.43-.54-.89-1.05-1.38-1.52-.48-.49-.98-.95-1.52-1.38-.53-.43-1.08-.84-1.64-1.21-1.13-.76-2.34-1.39-3.61-1.92-1.26-.53-2.58-.93-3.9-1.2-.66-.13-1.35-.23-2.02-.29-1.36-.15-2.74-.15-4.1,0-.69.07-1.36.16-2.03.29-1.33.26-2.64.67-3.9,1.2-1.26.53-2.48,1.16-3.59,1.92-.57.38-1.13.79-1.66,1.21-.53.43-1.05.89-1.53,1.38-.48.48-.93.98-1.38,1.52-.43.52-.84,1.08-1.21,1.64-.75,1.13-1.39,2.35-1.92,3.61-.52,1.26-.92,2.58-1.18,3.9-.15.67-.24,1.35-.31,2.02-.07.69-.1,1.38-.1,2.05s.03,1.38.1,2.07c.07.67.16,1.35.31,2.02.26,1.33.66,2.64,1.18,3.9.53,1.26,1.17,2.48,1.92,3.61.38.56.79,1.12,1.21,1.64.44.53.9,1.05,1.38,1.53.48.48,1,.95,1.53,1.38.52.43,1.08.84,1.66,1.21,1.11.75,2.33,1.39,3.59,1.92,1.26.52,2.57.92,3.9,1.18.67.15,1.34.25,2.03.31.67.07,1.36.1,2.05.1s1.36-.03,2.05-.1c.67-.07,1.36-.17,2.02-.31,1.33-.26,2.64-.66,3.9-1.18,1.26-.53,2.48-1.17,3.61-1.92.56-.38,1.12-.79,1.64-1.21.54-.43,1.05-.9,1.52-1.38.49-.48.95-1,1.38-1.53.43-.52.84-1.08,1.21-1.64.75-1.13,1.39-2.35,1.92-3.61.53-1.26.94-2.57,1.2-3.9.13-.67.23-1.35.31-2.02.07-.69.1-1.38.1-2.07s-.03-1.36-.1-2.05c-.08-.67-.18-1.35-.31-2.02"/>
        <path class="cls-1" d="M422.77,393.22c-.07-.67-.18-1.36-.31-2.02-.26-1.33-.66-2.66-1.18-3.9-.52-1.26-1.17-2.48-1.92-3.61-.38-.57-.79-1.12-1.21-1.64-.44-.54-.9-1.05-1.38-1.53-.49-.49-1-.95-1.52-1.38-.52-.44-1.08-.85-1.65-1.23-1.13-.74-2.35-1.39-3.59-1.92-1.26-.51-2.57-.92-3.9-1.18-.67-.13-1.36-.25-2.04-.31-1.36-.13-2.74-.13-4.1,0-.67.07-1.36.18-2.03.31-1.33.26-2.64.67-3.9,1.18-1.25.52-2.46,1.18-3.59,1.92-.57.38-1.13.79-1.66,1.23-.53.43-1.03.89-1.51,1.38-.49.48-.95.99-1.39,1.53-.43.52-.84,1.07-1.21,1.64-.74,1.13-1.4,2.35-1.92,3.61-.51,1.25-.92,2.57-1.18,3.9-.13.66-.24,1.34-.31,2.02-.07.69-.1,1.38-.1,2.05s.03,1.38.1,2.05c.07.67.18,1.36.31,2.03.26,1.33.67,2.64,1.18,3.9.52,1.25,1.18,2.46,1.92,3.59.38.57.79,1.13,1.21,1.66.44.53.9,1.03,1.39,1.52.48.48.98.94,1.51,1.38.54.43,1.08.84,1.66,1.21,1.13.76,2.35,1.4,3.61,1.92,1.25.51,2.56.92,3.9,1.18.66.13,1.35.24,2.02.31.67.07,1.38.1,2.05.1s1.38-.03,2.05-.1c.67-.07,1.36-.18,2.04-.31,1.33-.26,2.64-.67,3.9-1.18,1.25-.52,2.46-1.16,3.59-1.92.57-.38,1.13-.79,1.65-1.21.53-.44,1.03-.9,1.52-1.38.48-.49.94-1,1.38-1.52.43-.53.84-1.08,1.21-1.66.75-1.13,1.39-2.35,1.92-3.59.52-1.26.92-2.58,1.18-3.9.13-.67.25-1.36.31-2.03.06-.67.1-1.36.1-2.05s-.03-1.36-.1-2.05"/>
        <path class="cls-1" d="M467.65,433.65c-.52-1.27-1.17-2.47-1.93-3.61-.76-1.14-1.63-2.19-2.6-3.16-.97-.97-2.02-1.83-3.16-2.59-1.14-.76-2.34-1.4-3.61-1.93-1.26-.52-2.57-.92-3.91-1.19-1.35-.27-2.7-.4-4.07-.4s-2.73.13-4.07.4c-1.34.27-2.65.66-3.91,1.19-1.27.53-2.47,1.17-3.61,1.93-1.14.76-2.19,1.63-3.16,2.59-.97.97-1.83,2.02-2.59,3.16-.76,1.14-1.4,2.34-1.93,3.61-.52,1.27-.92,2.57-1.19,3.91-.27,1.34-.4,2.7-.4,4.07v25.5h-51v-25.5c0-1.37-.13-2.73-.4-4.07-.27-1.34-.66-2.65-1.19-3.91-.52-1.27-1.17-2.47-1.93-3.61-.76-1.14-1.63-2.19-2.6-3.16-.97-.97-2.02-1.83-3.16-2.59-1.14-.76-2.34-1.4-3.61-1.93-1.27-.52-2.57-.92-3.91-1.19-1.34-.27-2.7-.4-4.07-.4s-2.73.13-4.07.4c-1.34.27-2.65.66-3.92,1.19-1.27.53-2.47,1.17-3.61,1.93-1.14.76-2.19,1.63-3.16,2.59-.97.97-1.83,2.02-2.6,3.16-.76,1.14-1.4,2.34-1.93,3.61-.52,1.27-.92,2.57-1.19,3.91-.27,1.34-.4,2.7-.4,4.07v46.36c0,1.37.13,2.73.4,4.07.27,1.34.66,2.65,1.19,3.91.52,1.27,1.17,2.47,1.93,3.61.76,1.14,1.63,2.19,2.6,3.16.97.97,2.02,1.83,3.16,2.59,1.14.76,2.34,1.4,3.61,1.93,1.27.53,2.57.92,3.92,1.19,1.34.27,2.7.4,4.07.4h92.73c1.37,0,2.73-.13,4.07-.4,1.34-.27,2.65-.66,3.91-1.19,1.27-.52,2.47-1.17,3.61-1.93,1.14-.76,2.19-1.63,3.16-2.59.97-.97,1.83-2.02,2.6-3.16.76-1.14,1.4-2.34,1.93-3.61.52-1.26.92-2.57,1.19-3.91.27-1.34.4-2.7.4-4.07v-46.36c0-1.37-.13-2.73-.4-4.07-.27-1.34-.66-2.65-1.19-3.91"/>
        <path class="cls-1" d="M421.26,12.89c-.51-1.26-1.17-2.48-1.92-3.61-.38-.56-.77-1.11-1.21-1.64-.43-.52-.89-1.05-1.38-1.52-.48-.48-.99-.95-1.53-1.38-.52-.42-1.07-.83-1.64-1.21-1.13-.75-2.35-1.39-3.61-1.92-1.25-.52-2.56-.92-3.9-1.2-.65-.13-1.34-.23-2.02-.29-1.36-.15-2.74-.15-4.1,0-.69.07-1.36.16-2.03.29-1.33.28-2.64.67-3.9,1.2-1.26.52-2.46,1.17-3.59,1.92-.57.38-1.13.79-1.66,1.21-.52.43-1.03.9-1.52,1.38-.48.47-.94,1-1.38,1.52-.43.53-.84,1.08-1.21,1.64-.75,1.13-1.39,2.35-1.92,3.61-.52,1.26-.92,2.57-1.18,3.9-.15.67-.25,1.34-.31,2.02-.06.69-.1,1.38-.1,2.05s.03,1.38.1,2.07c.07.67.16,1.34.31,2.02.26,1.33.65,2.64,1.18,3.9.52,1.26,1.17,2.48,1.92,3.61.38.56.79,1.11,1.21,1.64.44.53.9,1.05,1.38,1.53.49.47,1,.95,1.52,1.38.52.43,1.08.84,1.66,1.21,1.13.75,2.35,1.39,3.59,1.92,1.26.53,2.58.92,3.9,1.2.67.13,1.36.23,2.03.3.67.07,1.36.1,2.05.1s1.36-.03,2.05-.1c.67-.07,1.36-.16,2.02-.3,1.35-.28,2.66-.67,3.9-1.2,1.26-.52,2.48-1.16,3.61-1.92.57-.38,1.12-.79,1.64-1.21.54-.43,1.05-.9,1.53-1.38.49-.48.95-1,1.38-1.53.44-.52.84-1.08,1.21-1.64.75-1.13,1.41-2.35,1.92-3.61.52-1.26.93-2.58,1.2-3.9.13-.67.23-1.35.3-2.02.08-.69.11-1.38.11-2.07s-.03-1.36-.11-2.05c-.07-.67-.17-1.34-.3-2.02-.26-1.33-.67-2.64-1.2-3.9"/>
        <path class="cls-1" d="M335.17,71.31c.28,1.33.67,2.64,1.2,3.9.52,1.26,1.16,2.48,1.92,3.61.38.56.79,1.12,1.21,1.64.43.53.9,1.05,1.38,1.53.48.48,1,.93,1.52,1.38.53.43,1.08.84,1.64,1.21,1.13.75,2.35,1.39,3.61,1.92,1.26.52,2.58.92,3.9,1.2.67.13,1.35.23,2.02.3.69.07,1.38.1,2.05.1s1.38-.03,2.05-.1c.69-.07,1.36-.17,2.03-.3,1.33-.28,2.64-.67,3.9-1.2,1.26-.53,2.48-1.17,3.61-1.92.56-.38,1.12-.79,1.64-1.21.52-.44,1.05-.9,1.52-1.38.48-.47.95-1,1.38-1.53.43-.52.84-1.08,1.21-1.64.75-1.13,1.39-2.34,1.92-3.61.53-1.26.92-2.58,1.2-3.9.13-.67.23-1.35.29-2.02.07-.69.12-1.38.12-2.07s-.05-1.36-.12-2.05c-.07-.67-.16-1.35-.29-2.02-.28-1.33-.67-2.66-1.2-3.9-.52-1.26-1.17-2.48-1.92-3.61-.38-.56-.79-1.11-1.21-1.64-.43-.54-.9-1.05-1.38-1.53-.47-.48-1-.95-1.52-1.38-.52-.43-1.08-.84-1.64-1.21-1.13-.75-2.35-1.39-3.61-1.92-1.26-.52-2.57-.93-3.9-1.2-.67-.13-1.34-.23-2.03-.29-1.36-.15-2.74-.15-4.1,0-.67.07-1.34.16-2.02.29-1.33.26-2.64.67-3.9,1.2-1.26.53-2.48,1.17-3.61,1.92-.56.38-1.11.79-1.64,1.21-.52.43-1.05.9-1.52,1.38-.48.48-.95.98-1.38,1.53-.43.52-.84,1.08-1.21,1.64-.75,1.13-1.39,2.35-1.92,3.61-.53,1.25-.92,2.58-1.2,3.9-.13.67-.23,1.35-.29,2.02-.07.69-.12,1.38-.12,2.05s.05,1.38.12,2.07c.07.67.16,1.35.29,2.02"/>
        <path class="cls-1" d="M422.77,111.54c-.07-.67-.18-1.36-.31-2.02-.26-1.33-.66-2.66-1.18-3.9-.52-1.26-1.16-2.48-1.92-3.61-.38-.58-.79-1.12-1.21-1.64-.44-.54-.9-1.05-1.38-1.53-.49-.49-1-.95-1.52-1.38-.52-.44-1.08-.85-1.65-1.23-1.13-.74-2.35-1.4-3.59-1.92-1.26-.51-2.57-.92-3.9-1.18-.67-.13-1.36-.25-2.04-.31-1.36-.13-2.74-.13-4.1,0-.67.07-1.36.18-2.03.31-1.33.26-2.64.67-3.9,1.18-1.25.52-2.46,1.18-3.59,1.92-.57.38-1.13.79-1.66,1.23-.53.43-1.03.89-1.51,1.38-.49.48-.95.98-1.39,1.53-.43.52-.84,1.07-1.21,1.64-.74,1.13-1.4,2.34-1.92,3.61-.51,1.25-.92,2.57-1.18,3.9-.13.65-.24,1.34-.31,2.02-.07.69-.1,1.38-.1,2.05s.03,1.38.1,2.05c.07.67.18,1.36.31,2.03.26,1.33.67,2.64,1.18,3.9.52,1.25,1.18,2.46,1.92,3.59.38.57.79,1.13,1.21,1.66.44.53.9,1.03,1.39,1.52.48.48.98.94,1.51,1.38.54.43,1.08.84,1.66,1.21,1.13.76,2.35,1.39,3.61,1.92,1.25.51,2.56.92,3.9,1.18.66.13,1.35.24,2.02.31.67.07,1.38.1,2.05.1s1.38-.03,2.05-.1c.67-.07,1.36-.18,2.04-.31,1.33-.26,2.64-.67,3.9-1.18,1.25-.52,2.46-1.16,3.59-1.92.57-.38,1.13-.79,1.65-1.21.53-.44,1.03-.9,1.52-1.38.48-.49.94-1,1.38-1.52.43-.53.84-1.08,1.21-1.66.76-1.13,1.39-2.35,1.92-3.59.52-1.26.92-2.58,1.18-3.9.13-.67.25-1.36.31-2.03.06-.67.1-1.36.1-2.05s-.03-1.36-.1-2.05"/>
        <path class="cls-1" d="M376.4,157.91c-.07-.67-.18-1.36-.31-2.02-.26-1.33-.66-2.66-1.18-3.9-.52-1.26-1.16-2.48-1.92-3.61-.38-.58-.79-1.12-1.21-1.64-.44-.54-.9-1.05-1.38-1.53-.49-.49-1-.95-1.52-1.38-.53-.44-1.08-.85-1.66-1.23-1.13-.74-2.35-1.39-3.59-1.92-1.26-.51-2.57-.92-3.9-1.18-.67-.13-1.36-.25-2.04-.31-1.36-.13-2.74-.13-4.1,0-.67.07-1.36.18-2.03.31-1.33.26-2.64.67-3.9,1.18-1.25.52-2.46,1.18-3.59,1.92-.57.38-1.13.79-1.66,1.23-.53.43-1.03.89-1.51,1.38-.49.48-.95.98-1.39,1.53-.43.52-.84,1.07-1.21,1.64-.74,1.13-1.4,2.34-1.92,3.61-.51,1.25-.92,2.57-1.18,3.9-.13.65-.24,1.34-.31,2.02-.07.69-.1,1.38-.1,2.05s.03,1.38.1,2.05c.07.67.18,1.36.31,2.03.26,1.33.67,2.64,1.18,3.9.52,1.25,1.18,2.46,1.92,3.59.38.57.79,1.13,1.21,1.66.44.53.9,1.03,1.39,1.52.48.48.98.94,1.51,1.38.54.43,1.08.84,1.66,1.21,1.13.76,2.35,1.39,3.61,1.92,1.25.51,2.56.92,3.9,1.18.66.13,1.35.24,2.02.31.67.07,1.38.1,2.05.1s1.38-.03,2.05-.1c.67-.07,1.36-.18,2.04-.31,1.33-.26,2.64-.67,3.9-1.18,1.25-.52,2.46-1.16,3.59-1.92.57-.38,1.13-.79,1.66-1.21.52-.44,1.03-.9,1.52-1.38.48-.49.94-1,1.38-1.52.43-.53.84-1.08,1.21-1.66.76-1.13,1.39-2.35,1.92-3.59.52-1.26.92-2.58,1.18-3.9.13-.67.24-1.36.31-2.03.06-.67.1-1.36.1-2.05s-.03-1.36-.1-2.05"/>
      </g>
      <polygon class="cls-1" points="491.93 204.71 490.57 204.71 490.57 117.36 447.69 117.36 447.69 67.91 401.33 67.91 401.33 20.86 402.69 20.86 402.69 66.55 449.05 66.55 449.05 116 491.93 116 491.93 204.71"/>
      <polygon class="cls-1" points="487.3 202.01 491.24 216.76 495.2 202.01 487.3 202.01"/>
      <polygon class="cls-1" points="491.93 204.71 490.57 204.71 490.57 117.36 447.69 117.36 447.69 67.91 402.01 67.91 402.01 66.55 449.05 66.55 449.05 116 491.93 116 491.93 204.71"/>
      <polygon class="cls-1" points="487.3 202.01 491.24 216.76 495.2 202.01 487.3 202.01"/>
      <polygon class="cls-1" points="313.44 204.71 312.08 204.71 312.08 116 354.96 116 354.96 67.23 356.32 67.23 356.32 117.36 313.44 117.36 313.44 204.71"/>
      <polygon class="cls-1" points="308.81 202.01 312.76 216.76 316.72 202.01 308.81 202.01"/>
      <polygon class="cls-1" points="451.1 217.44 354.96 217.44 354.96 162.8 356.32 162.8 356.32 216.08 449.74 216.08 449.74 174.85 451.1 174.85 451.1 217.44"/>
      <polygon class="cls-1" points="454.37 177.54 450.42 162.8 446.47 177.54 454.37 177.54"/>
    </g>
  </g>
</svg>