<?xml version="1.0" encoding="UTF-8"?>
<svg id="Layer_2" xmlns="http://www.w3.org/2000/svg" viewBox="0 0 262.35 140">
  <defs>
    <style>
      .cls-1 {
        fill: #fff;
      }
    </style>
  </defs>
  <g id="Layer_1-2" data-name="Layer_1">
    <polygon class="cls-1" points="79 81.18 46.32 81.18 62.66 56.72 79 26.45 79 81.18"/>
    <g>
      <path class="cls-1" d="M94.62,25.07l-2.76-6.39-2.84,6.39h5.61ZM95.09,26.08h-6.55l-.78,1.81c-.26.6-.38,1.1-.38,1.49,0,.52.21.9.63,1.15.25.15.85.26,1.82.33v.51h-6.17v-.51c.66-.1,1.21-.38,1.64-.83.43-.45.96-1.38,1.59-2.8l6.63-14.79h.26l6.69,15.21c.64,1.44,1.16,2.35,1.57,2.72.31.28.75.45,1.31.49v.51h-8.97v-.51h.37c.72,0,1.23-.1,1.52-.3.2-.15.3-.36.3-.63,0-.16-.03-.33-.08-.51-.02-.08-.16-.42-.41-1.03l-.98-2.31Z"/>
      <path class="cls-1" d="M119.24,15.55v5.36h-.45c-.33-1.4-.96-2.47-1.87-3.21-.91-.74-1.94-1.12-3.1-1.12-.97,0-1.85.28-2.66.83-.81.56-1.39,1.28-1.77,2.18-.48,1.15-.72,2.42-.72,3.83s.17,2.64.52,3.78c.35,1.14.9,1.99,1.64,2.57.74.58,1.71.87,2.89.87.97,0,1.86-.21,2.67-.64.81-.43,1.66-1.16,2.56-2.2v1.33c-.87.9-1.77,1.56-2.71,1.97-.94.41-2.03.61-3.29.61-1.65,0-3.11-.33-4.39-.99-1.28-.66-2.27-1.61-2.96-2.85-.69-1.24-1.04-2.56-1.04-3.95,0-1.47.39-2.87,1.16-4.19.77-1.32,1.81-2.35,3.12-3.08,1.31-.73,2.7-1.09,4.18-1.09,1.09,0,2.23.24,3.44.71.7.27,1.14.41,1.33.41.24,0,.45-.09.63-.27.18-.18.3-.46.35-.85h.45Z"/>
      <path class="cls-1" d="M136.09,15.55v5.36h-.45c-.33-1.4-.96-2.47-1.87-3.21-.91-.74-1.95-1.12-3.1-1.12-.97,0-1.85.28-2.66.83-.8.56-1.39,1.28-1.77,2.18-.48,1.15-.72,2.42-.72,3.83s.17,2.64.52,3.78c.35,1.14.9,1.99,1.64,2.57.74.58,1.71.87,2.89.87.97,0,1.86-.21,2.67-.64.81-.43,1.66-1.16,2.56-2.2v1.33c-.87.9-1.77,1.56-2.71,1.97-.94.41-2.03.61-3.29.61-1.65,0-3.11-.33-4.39-.99-1.28-.66-2.27-1.61-2.96-2.85-.69-1.24-1.04-2.56-1.04-3.95,0-1.47.39-2.87,1.16-4.19.77-1.32,1.81-2.35,3.12-3.08,1.31-.73,2.7-1.09,4.18-1.09,1.09,0,2.23.24,3.44.71.7.27,1.14.41,1.33.41.24,0,.45-.09.63-.27.18-.18.29-.46.35-.85h.45Z"/>
      <path class="cls-1" d="M146.69,26.12l-2.3-5.32-2.37,5.32h4.67ZM147.08,26.96h-5.46l-.65,1.5c-.21.5-.32.92-.32,1.24,0,.43.17.75.52.96.2.12.71.21,1.52.27v.42h-5.14v-.42c.56-.08,1.01-.31,1.37-.69.36-.38.8-1.15,1.32-2.33l5.53-12.33h.22l5.57,12.67c.53,1.2.97,1.96,1.31,2.27.26.24.62.37,1.09.41v.42h-7.47v-.42h.31c.6,0,1.02-.08,1.26-.25.17-.12.25-.3.25-.52,0-.14-.02-.28-.07-.42-.02-.07-.13-.35-.34-.85l-.82-1.93Z"/>
      <path class="cls-1" d="M160.42,16.78v12.06c0,.64.03,1.03.09,1.17.06.14.16.25.31.33.21.11.5.17.89.17,1.27,0,2.24-.43,2.9-1.3.91-1.17,1.37-2.99,1.37-5.45,0-1.98-.31-3.57-.94-4.75-.49-.93-1.13-1.56-1.9-1.89-.55-.24-1.46-.35-2.72-.34M154.53,31.36v-.42h.51c.45,0,.79-.07,1.03-.21.24-.14.42-.33.53-.58.07-.16.1-.64.1-1.44v-10.17c0-.79-.04-1.28-.13-1.48-.08-.2-.25-.37-.51-.52-.26-.15-.6-.22-1.03-.22h-.51v-.42h6.92c1.85,0,3.33.25,4.46.75,1.38.61,2.42,1.54,3.13,2.79.71,1.25,1.07,2.65,1.07,4.23,0,1.09-.18,2.09-.52,3-.35.92-.8,1.67-1.36,2.27-.55.6-1.19,1.07-1.92,1.44-.73.36-1.61.64-2.66.84-.46.09-1.19.14-2.19.14h-6.92Z"/>
      <path class="cls-1" d="M177.43,16.79v6.29h.31c.98,0,1.69-.31,2.13-.92.44-.61.72-1.52.84-2.72h.43v8.09h-.43c-.09-.88-.28-1.6-.58-2.17-.29-.56-.63-.94-1.02-1.13-.39-.19-.95-.29-1.69-.29v4.35c0,.85.04,1.37.11,1.56.07.19.21.35.4.47.2.12.52.18.96.18h.92c1.44,0,2.6-.33,3.47-1,.87-.67,1.5-1.69,1.88-3.05h.42l-.69,4.91h-13.36v-.42h.51c.45,0,.81-.08,1.08-.24.2-.11.35-.29.46-.55.08-.18.13-.66.13-1.44v-10.17c0-.7-.02-1.13-.06-1.29-.08-.27-.22-.47-.42-.62-.29-.21-.68-.32-1.19-.32h-.51v-.42h12.93v4.57h-.43c-.22-1.12-.53-1.92-.93-2.4-.4-.49-.96-.84-1.69-1.07-.43-.14-1.22-.21-2.39-.21h-1.59Z"/>
      <path class="cls-1" d="M197.76,26.09l4.19-10.19h6.29v.42h-.5c-.46,0-.82.08-1.09.24-.19.11-.34.28-.46.53-.08.18-.12.66-.12,1.43v10.19c0,.79.04,1.28.12,1.48.08.2.25.37.51.52.26.15.6.22,1.04.22h.5v.42h-8.07v-.42h.5c.46,0,.82-.08,1.09-.24.19-.11.34-.29.46-.55.08-.18.12-.66.12-1.44v-11.45l-5.93,14.09h-.27l-6.01-13.99v10.88c0,.76.02,1.23.06,1.4.1.38.31.69.64.93.33.24.85.36,1.55.36v.42h-5.29v-.42h.16c.34,0,.66-.05.96-.17.3-.12.52-.28.67-.47.15-.2.27-.47.35-.83.01-.08.02-.47.02-1.16v-9.78c0-.78-.04-1.27-.12-1.47-.08-.19-.26-.36-.51-.51-.26-.15-.6-.22-1.04-.22h-.49v-.42h6.31l4.34,10.19Z"/>
      <path class="cls-1" d="M217.21,30.94v.42h-8.08v-.42h.51c.45,0,.81-.08,1.08-.24.2-.11.35-.29.46-.55.08-.18.13-.66.13-1.44v-10.16c0-.79-.04-1.28-.13-1.48-.08-.2-.25-.37-.51-.52-.25-.15-.6-.22-1.03-.22h-.51v-.42h8.08v.42h-.51c-.45,0-.81.08-1.08.24-.2.11-.35.29-.47.55-.08.18-.12.66-.12,1.44v10.16c0,.79.04,1.28.13,1.48.09.2.26.37.51.52.26.15.6.22,1.03.22h.51Z"/>
      <path class="cls-1" d="M227.07,26.12l-2.3-5.32-2.37,5.32h4.67ZM227.46,26.96h-5.46l-.65,1.5c-.21.5-.32.92-.32,1.24,0,.43.17.75.52.96.21.12.71.21,1.52.27v.42h-5.14v-.42c.56-.08,1.01-.31,1.37-.69.36-.38.8-1.15,1.32-2.33l5.53-12.33h.22l5.57,12.67c.53,1.2.97,1.96,1.31,2.27.26.24.62.37,1.09.41v.42h-7.48v-.42h.31c.6,0,1.02-.08,1.26-.25.17-.12.25-.3.25-.52,0-.14-.02-.28-.07-.42-.02-.07-.13-.35-.34-.85l-.82-1.93Z"/>
      <path class="cls-1" d="M89.63,41.36v12.06c0,.64.03,1.03.09,1.18.06.14.16.25.31.33.21.11.5.17.89.17,1.27,0,2.24-.43,2.91-1.3.91-1.17,1.37-2.99,1.37-5.45,0-1.98-.31-3.57-.93-4.75-.5-.93-1.13-1.56-1.9-1.89-.55-.24-1.46-.35-2.72-.34M83.74,55.93v-.42h.51c.45,0,.79-.07,1.03-.21.24-.14.42-.33.53-.57.07-.16.1-.64.1-1.44v-10.16c0-.79-.04-1.28-.12-1.48-.08-.2-.25-.37-.51-.52-.26-.15-.6-.22-1.03-.22h-.51v-.42h6.92c1.85,0,3.33.25,4.46.75,1.38.61,2.42,1.54,3.13,2.79.71,1.25,1.06,2.65,1.06,4.23,0,1.09-.17,2.09-.52,3-.35.92-.8,1.67-1.36,2.27-.55.6-1.19,1.07-1.92,1.44-.73.36-1.61.64-2.66.84-.46.09-1.19.14-2.19.14h-6.92Z"/>
      <path class="cls-1" d="M108.83,55.51v.42h-8.08v-.42h.51c.45,0,.81-.08,1.08-.24.2-.11.35-.29.46-.55.08-.18.12-.66.12-1.44v-10.16c0-.79-.04-1.28-.12-1.48-.08-.2-.25-.37-.51-.52-.25-.15-.6-.22-1.03-.22h-.51v-.42h8.08v.42h-.51c-.45,0-.81.08-1.08.24-.2.11-.35.29-.47.55-.08.18-.12.66-.12,1.44v10.16c0,.79.04,1.28.13,1.48.09.2.26.37.51.52.26.15.6.22,1.03.22h.51Z"/>
      <path class="cls-1" d="M122.69,45.72c1.29,0,2.25-.15,2.86-.44.62-.29,1.09-.7,1.42-1.23.33-.53.49-1.2.49-2.02s-.16-1.49-.49-2.02c-.32-.52-.79-.92-1.39-1.2-.6-.27-1.57-.41-2.9-.4v7.3ZM122.69,46.79v6.63c-.01.49.11.86.36,1.11.25.25.62.38,1.12.38.73,0,1.4-.16,2.02-.48.61-.32,1.09-.79,1.42-1.41.33-.61.49-1.3.49-2.06,0-.87-.2-1.64-.6-2.33-.4-.69-.95-1.17-1.65-1.44-.7-.27-1.75-.4-3.15-.4M127.66,46.09c1.76.41,2.99.91,3.71,1.49,1.02.83,1.53,1.9,1.53,3.23,0,1.4-.56,2.55-1.68,3.46-1.38,1.1-3.38,1.65-6,1.65h-9.42v-.51c.86,0,1.44-.08,1.74-.24.31-.16.52-.37.64-.62.12-.25.18-.89.18-1.89v-12.03c0-1-.06-1.63-.18-1.89-.12-.26-.34-.47-.65-.62-.31-.15-.89-.23-1.74-.23v-.51h8.89c2.12,0,3.63.19,4.51.57.88.38,1.58.94,2.09,1.7.51.75.77,1.55.77,2.4,0,.89-.32,1.69-.97,2.39-.65.7-1.79,1.25-3.42,1.66"/>
      <path class="cls-1" d="M140.24,41.36v6.29h.31c.98,0,1.69-.31,2.13-.92.44-.61.72-1.52.84-2.72h.43v8.09h-.43c-.09-.88-.28-1.6-.57-2.17-.29-.56-.63-.94-1.02-1.13-.39-.19-.95-.29-1.69-.29v4.35c0,.85.03,1.37.11,1.56.07.19.21.35.4.47.2.12.52.18.96.18h.92c1.44,0,2.6-.33,3.47-1,.87-.67,1.49-1.69,1.87-3.05h.42l-.7,4.91h-13.36v-.42h.51c.45,0,.81-.08,1.08-.24.2-.11.35-.29.46-.55.08-.18.12-.66.12-1.44v-10.17c0-.7-.02-1.13-.06-1.29-.08-.27-.22-.47-.42-.62-.29-.21-.68-.32-1.19-.32h-.51v-.42h12.93v4.57h-.43c-.22-1.12-.53-1.92-.93-2.4-.4-.49-.96-.84-1.69-1.07-.43-.14-1.22-.21-2.39-.21h-1.59Z"/>
      <path class="cls-1" d="M164.18,50.5l-.58,5.42h-13.72v-.42h.51c.45,0,.81-.08,1.08-.24.2-.11.35-.29.46-.55.08-.18.12-.66.12-1.44v-10.17c0-.79-.04-1.28-.12-1.48-.08-.2-.25-.37-.51-.52-.25-.15-.6-.22-1.03-.22h-.51v-.42h8.24v.42h-.67c-.45,0-.81.08-1.08.24-.2.11-.35.29-.47.55-.08.18-.12.66-.12,1.44v9.85c0,.79.05,1.29.14,1.51.09.22.27.38.53.49.19.07.65.1,1.38.1h1.29c.82,0,1.5-.14,2.05-.43.55-.29,1.02-.74,1.42-1.37.4-.62.78-1.54,1.13-2.76h.47Z"/>
      <path class="cls-1" d="M179.75,50.5l-.58,5.42h-13.72v-.42h.51c.45,0,.81-.08,1.08-.24.2-.11.35-.29.46-.55.08-.18.12-.66.12-1.44v-10.17c0-.79-.04-1.28-.12-1.48-.08-.2-.25-.37-.51-.52-.25-.15-.6-.22-1.03-.22h-.51v-.42h8.24v.42h-.67c-.45,0-.81.08-1.08.24-.2.11-.35.29-.47.55-.08.18-.12.66-.12,1.44v9.85c0,.79.05,1.29.14,1.51.09.22.27.38.53.49.19.07.65.1,1.38.1h1.29c.82,0,1.5-.14,2.05-.43.55-.29,1.02-.74,1.42-1.37.4-.62.78-1.54,1.13-2.76h.47Z"/>
      <path class="cls-1" d="M186.94,41.36v6.29h.31c.98,0,1.69-.31,2.13-.92.44-.61.72-1.52.84-2.72h.43v8.09h-.43c-.09-.88-.28-1.6-.58-2.17-.29-.56-.63-.94-1.02-1.13-.39-.19-.95-.29-1.69-.29v4.35c0,.85.04,1.37.11,1.56.07.19.21.35.4.47.2.12.52.18.96.18h.92c1.44,0,2.6-.33,3.47-1,.87-.67,1.49-1.69,1.87-3.05h.42l-.69,4.91h-13.36v-.42h.51c.45,0,.81-.08,1.08-.24.2-.11.35-.29.46-.55.08-.18.13-.66.13-1.44v-10.17c0-.7-.02-1.13-.06-1.29-.08-.27-.22-.47-.42-.62-.29-.21-.68-.32-1.19-.32h-.51v-.42h12.93v4.57h-.43c-.22-1.12-.53-1.92-.93-2.4-.4-.49-.96-.84-1.69-1.07-.43-.14-1.22-.21-2.39-.21h-1.59Z"/>
      <path class="cls-1" d="M213.17,49.63l-2.76-6.39-2.85,6.39h5.61ZM213.63,50.65h-6.55l-.78,1.81c-.26.6-.38,1.1-.38,1.49,0,.52.21.9.63,1.15.24.15.85.26,1.82.33v.51h-6.17v-.51c.67-.1,1.21-.38,1.64-.83.43-.45.96-1.38,1.59-2.8l6.63-14.8h.26l6.69,15.21c.64,1.44,1.16,2.35,1.57,2.72.31.28.75.45,1.31.49v.51h-8.97v-.51h.37c.72,0,1.23-.1,1.52-.3.2-.15.3-.36.3-.63,0-.16-.03-.33-.08-.51-.02-.08-.16-.42-.41-1.03l-.98-2.31Z"/>
      <path class="cls-1" d="M228.4,41.3v6.77h.65c1.06,0,1.85-.1,2.37-.29.52-.19.94-.54,1.24-1.05.3-.51.45-1.16.45-1.98,0-1.18-.27-2.05-.83-2.61-.55-.56-1.44-.84-2.66-.84h-1.22ZM228.4,48.88v4.33c0,.84.05,1.36.15,1.58.1.22.28.39.54.52.26.13.74.19,1.45.19v.42h-7.91v-.42c.71,0,1.2-.07,1.45-.2.25-.13.43-.31.54-.52.1-.21.15-.74.15-1.57v-10.03c0-.84-.05-1.36-.15-1.58-.1-.22-.28-.39-.54-.52-.26-.13-.74-.19-1.45-.19v-.42h7.18c1.87,0,3.24.13,4.1.39.87.26,1.57.74,2.12,1.43.55.69.82,1.51.82,2.44,0,1.14-.41,2.08-1.23,2.83-.52.47-1.26.82-2.2,1.06l3.71,5.23c.49.68.83,1.1,1.04,1.26.31.24.67.37,1.08.39v.42h-4.87l-4.98-7.04h-1.01Z"/>
      <path class="cls-1" d="M252.96,40.47v4.18h-.41c-.24-.97-.51-1.66-.81-2.08-.3-.42-.7-.76-1.22-1.01-.29-.14-.79-.2-1.52-.2h-1.15v11.92c0,.79.04,1.28.13,1.48.09.2.26.37.51.52.26.15.6.22,1.04.22h.51v.42h-8.09v-.42h.51c.45,0,.81-.08,1.08-.24.2-.11.35-.29.47-.55.08-.18.12-.66.12-1.44v-11.92h-1.12c-1.04,0-1.8.22-2.27.66-.66.62-1.08,1.49-1.25,2.63h-.43v-4.18h13.88Z"/>
      <path class="cls-1" d="M262.35,55.5v.42h-8.08v-.42h.51c.45,0,.81-.08,1.08-.24.2-.11.35-.29.46-.55.08-.18.13-.66.13-1.44v-10.17c0-.79-.04-1.28-.13-1.48-.08-.2-.25-.37-.51-.52-.25-.15-.6-.22-1.03-.22h-.51v-.42h8.08v.42h-.51c-.45,0-.81.08-1.08.24-.2.11-.35.29-.47.55-.08.18-.12.66-.12,1.44v10.17c0,.79.04,1.28.13,1.48.09.2.26.37.51.52.25.15.6.22,1.03.22h.51Z"/>
      <path class="cls-1" d="M89.64,65.92v12.06c0,.64.03,1.03.09,1.17.06.14.16.25.31.33.21.11.5.17.89.17,1.27,0,2.24-.43,2.91-1.3.91-1.17,1.37-2.99,1.37-5.45,0-1.98-.31-3.57-.93-4.75-.5-.93-1.13-1.56-1.9-1.89-.55-.24-1.46-.35-2.72-.34M83.75,80.5v-.42h.51c.45,0,.79-.07,1.03-.21.24-.14.42-.33.53-.58.07-.16.1-.64.1-1.44v-10.16c0-.79-.04-1.28-.12-1.48-.08-.2-.25-.37-.51-.52-.25-.15-.6-.22-1.03-.22h-.51v-.42h6.92c1.85,0,3.33.25,4.46.75,1.38.61,2.42,1.55,3.13,2.79.71,1.25,1.06,2.65,1.06,4.23,0,1.09-.17,2.09-.52,3-.35.92-.8,1.67-1.36,2.27-.55.6-1.19,1.08-1.92,1.44-.73.36-1.61.64-2.66.84-.46.09-1.19.14-2.19.14h-6.92Z"/>
      <path class="cls-1" d="M108.84,80.08v.42h-8.08v-.42h.51c.45,0,.81-.08,1.08-.24.2-.11.35-.29.46-.55.08-.18.12-.66.12-1.44v-10.16c0-.79-.04-1.28-.12-1.48-.08-.2-.25-.37-.51-.52-.25-.15-.6-.22-1.03-.22h-.51v-.42h8.08v.42h-.51c-.45,0-.81.08-1.08.24-.2.11-.35.29-.47.55-.08.18-.12.66-.12,1.44v10.16c0,.79.04,1.28.13,1.48.09.2.26.37.51.52.26.15.6.22,1.03.22h.51Z"/>
      <path class="cls-1" d="M122.69,70.29c1.29,0,2.25-.15,2.86-.44.62-.29,1.09-.7,1.42-1.23.33-.53.49-1.2.49-2.02s-.16-1.49-.49-2.02c-.32-.52-.79-.92-1.39-1.2-.6-.27-1.57-.41-2.9-.4v7.3ZM122.69,71.35v6.63c-.01.49.11.86.36,1.11.25.25.62.38,1.12.38.73,0,1.4-.16,2.02-.48.61-.32,1.09-.79,1.42-1.41.33-.62.49-1.3.49-2.06,0-.87-.2-1.64-.6-2.33-.4-.69-.95-1.17-1.65-1.44-.7-.27-1.75-.4-3.15-.4M127.66,70.66c1.76.41,2.99.91,3.71,1.49,1.02.83,1.53,1.9,1.53,3.23,0,1.4-.56,2.55-1.68,3.46-1.38,1.1-3.38,1.65-6,1.65h-9.42v-.51c.86,0,1.44-.08,1.74-.24.31-.16.52-.37.64-.62.12-.26.18-.88.18-1.89v-12.03c0-1-.06-1.63-.18-1.89-.12-.26-.34-.47-.65-.62-.31-.15-.89-.23-1.74-.23v-.51h8.89c2.12,0,3.63.19,4.51.57.88.38,1.58.94,2.09,1.7.51.75.77,1.55.77,2.4,0,.89-.32,1.69-.97,2.39-.65.7-1.79,1.25-3.42,1.66"/>
      <path class="cls-1" d="M143.21,75.25l-2.3-5.32-2.37,5.32h4.67ZM143.59,76.09h-5.46l-.65,1.5c-.21.5-.32.92-.32,1.24,0,.43.17.75.52.96.2.12.71.21,1.52.27v.42h-5.14v-.42c.56-.08,1.01-.31,1.37-.69.36-.38.8-1.15,1.32-2.33l5.53-12.33h.22l5.57,12.67c.53,1.2.97,1.96,1.31,2.27.26.24.62.37,1.1.41v.42h-7.48v-.42h.31c.6,0,1.02-.08,1.26-.25.17-.12.25-.3.25-.52,0-.14-.02-.28-.07-.42-.02-.07-.13-.35-.34-.85l-.82-1.93Z"/>
      <path class="cls-1" d="M156.94,65.87v6.77h.65c1.06,0,1.85-.1,2.37-.29.52-.19.94-.54,1.24-1.05.3-.51.45-1.17.45-1.98,0-1.18-.27-2.05-.83-2.61-.55-.56-1.44-.84-2.66-.84h-1.22ZM156.94,73.45v4.33c0,.83.05,1.36.15,1.58.1.22.28.39.54.52.26.13.74.19,1.45.19v.42h-7.91v-.42c.71,0,1.2-.07,1.45-.2.25-.13.43-.31.54-.52.1-.21.15-.74.15-1.57v-10.03c0-.84-.05-1.36-.15-1.58-.1-.22-.28-.39-.54-.52-.26-.13-.74-.19-1.45-.19v-.42h7.18c1.87,0,3.24.13,4.1.39.87.26,1.57.74,2.12,1.43.55.7.82,1.51.82,2.44,0,1.14-.41,2.08-1.23,2.83-.52.47-1.26.82-2.2,1.06l3.71,5.23c.49.68.83,1.1,1.04,1.27.31.24.67.36,1.08.39v.42h-4.87l-4.98-7.04h-1.01Z"/>
      <path class="cls-1" d="M176.14,80.07v.42h-8.08v-.42h.51c.45,0,.81-.08,1.08-.24.2-.11.35-.29.46-.55.08-.18.13-.66.13-1.44v-10.16c0-.79-.04-1.28-.13-1.48-.08-.2-.25-.37-.51-.52-.25-.15-.6-.22-1.03-.22h-.51v-.42h8.08v.42h-.51c-.45,0-.81.08-1.08.24-.2.11-.35.29-.47.55-.08.18-.12.66-.12,1.44v10.16c0,.79.04,1.28.13,1.48.09.2.26.37.51.52.26.15.6.22,1.03.22h.51Z"/>
      <path class="cls-1" d="M83.39,11.89c-1.04-.78-1.35-1.87-1.51-3.01.39-1.24.61-1.93.61-1.93h-.85c-.05-.31-.12-.62-.21-.91-1.86-.88-3.08-2.32-4.68-3.41-.91-.4-1.55-1.13-2.06-1.99-.68-.11-1.15-.84-1.93-.61-1.22.39-1.31,1.85-1.9,2.77-.36.5.02,1.31-.4,1.71-.73,1.76-1.52,3.58-2.51,5.33-.22,1.86-1.57,3.13-1.85,5.09l-1.08,1.29c.31,1-.49,1.62-.56,2.52-.3.66-1.09,1.1-.99,1.92.06.15.21.09.32.12-.36.55-.74.77-1.14,1.14-.69,1.14-1.12,2.41-1.87,3.74-.58.13-.48.86-1.03,1.17.25,1.56-1.08,2.5-1.32,3.93-.01.34-.26.7-.04,1.03-1.18,2.56-2.87,4.63-3.97,7.19-.34,2.27-1.67,3.6-2.09,5.64-1.97,2.17-2.39,5.55-4.35,7.76-.39,1.36-1.5,2.4-1.64,3.9-1.63,1.86-2.5,4.58-4.3,6.3-1.28,2.23-2.66,4.85-3.94,7,0,.67.19,1.32-.41,1.88-.44,1.04.78,1.19,1.16,1.78-.43,1.94-2.05,3.28-2.61,5.22-.09.83-.74,1.61-.75,2.32-.67.21-.51,1.23-1.13,1.55-.74-.31.32-.68-.17-1.12.59-.3.39-1.23.98-1.53-.37-.4.34-.65-.07-1.01-.43-.59-.98-1.5-1.92-1.12-.84.7-1.27,1.85-1.9,2.77-.31.83.4,1.54.69,2.26.44-.11.59.45,1.02.34.58.08.49-.54.9-.64.06.11.23.16.2.31-1.33,1.33-1.91,3.16-3.47,4.11-.39.65-1.37.32-1.92.79-1,.93.74.93.6,1.85-.13.53-.19,1.09-.4,1.58-.5.67-1.03,1.3-1.43,2.03-.09,1.87-1.8,3.01-2.08,4.72.29.31.38.85.85.91.54,0,1.07-.33,1.36-.68.96-.44-.05-1.53.41-2.37.91-.85,1.58-1.6,2.3-2.43-.24-.35.04-.71.33-.94.28-.05.42.14.64.24-.65,1.52-1.26,2.84-1.36,4.42-.52.24-.55,1.06-1.11,1.17-.03.05-.05.09-.07.14l-2.65,3.89c-.21.04-.43.04-.64-.03-.56-.56-.74-1.47-1.09-2.06-.76-.54-.88.49-1.52.5-.23,1.05-.6,2.3-1.61,3-.37,1.96-2.19,2.37-2.91,3.92-.13,0-.28.05-.36-.03-.2.81-.62,1.24-1,2.01.11.69-.56,1.18.09,1.7.69-.1.85-.42,1.25-.67.87-1.02,1.13-2.22,2.04-2.98-.16-.89.75-1.2.89-2.03.32.08.61-.24.75-.49.28-.1.44.17.59.32.33.4-.19.64-.19,1-1.2,1.25-1.73,2.86-2.52,4.43-.68.43-.54,1.29-1.37,1.56-.03.19.05.37.11.52-.6.43-1.03,1.17-1.62,1.6.36,1.86-1.03,3.04-1.68,4.47-1.54.98-2.96,2.26-4.2,3.42.42.77-.9.59-.61,1.35-.51.48-.82,1.35-1.51,1.5-.34,1.1-1.28-.26-1.92.3-.45.54-1.04.97-1.45,1.65.03.3.15.52.45.58.31-.33.84-.12,1.21-.3.35.38.1.95-.05,1.33-.5,1.29-1.17,2.04-1.72,3.1-1.16,1.25-2.37,2.67-3.84,3.45-.02,1.1-.34,1.73-.5,2.67-.93.25-.31,1.41-1.1,1.81-.16.23.05.37.24.39.97-1.41,2.64-1.76,3.61-2.99,2.15-2.42,4.48-4.64,6.29-7.37.12-.36.03-.69.14-1,.11.02.26-.04.34.05.93-.61,1.64-1.45,2.21-2.44.07-.19.4-.29.63-.3.12-.28.47-.52.29-.85.39-.2.99-.14.99-.76,1.33-1.87,3.14-3.72,4.53-5.52-.24-.52.46-.8.48-1.32-.52-.96.4.16.66-.45,1.39-2.34,3.15-3.97,4.35-6.34,1.13-.39,1.23-2.02,2.35-2.2.14-.34.45-.71.34-1.11,1.08-.84,2-2.04,2.96-2.84.1-.92,1.05-1.1.93-2.07.2-.23.42-.35.72-.3.28-.46.69-.86.9-1.36,7.73-7.6,17.11-18.31,24.68-31.45,2.88-5,5.81-11.24,8.61-17.84.55-.46.74-1.23,1.29-1.75,2.34-3.68,3.69-7.71,6.04-11.03,1.02-1.53,1.38-3.24,2.29-4.84.07-.11.31-.33.53-.37-.11-1.59,1.13-2.3,1.78-3.57-.18-.46.39-.74.15-1.22.64-.56.47-1.81,1.16-2.5,1.1-2.65,1.52-5.28,2.64-7.95.26-.61.52-1.36.29-2.05.16-.19.34-.44.49-.54.5-1.29.8-2.44.39-3.86"/>
    </g>
  </g>
</svg>