<?xml version="1.0" encoding="UTF-8"?>
<svg id="Layer_2" xmlns="http://www.w3.org/2000/svg" viewBox="0 0 804 345.58">
  <defs>
    <style>
      .cls-1 {
        fill: #fff7f0;
      }

      .cls-2 {
        fill: #fffbf7;
      }

      .cls-3 {
        opacity: .5;
      }
    </style>
  </defs>
  <g id="Layer_1-2" data-name="Layer_1">
    <g>
      <g class="cls-3">
        <path class="cls-2" d="M403.25,9.71h106.13v216.15h-106.13V9.71ZM509.38,335.87h-106.13v-106.14h106.13v106.14ZM399.37,335.87h-106.14V119.72h106.14v216.15ZM293.24,9.71h106.14v106.14h-106.14V9.71ZM289.36,339.75h223.9V5.83h-223.9v333.92Z"/>
      </g>
      <g class="cls-3">
        <path class="cls-1" d="M201.91,345.58c-19.3,0-39.81-12.23-39.81-34.89,0-26.16,19.67-35.65,32.9-35.65,21.64,0,28.65,18.31,28.65,27.17,0,13.6-9.95,22.73-24.77,22.73-5.12,0-9.65-1.89-12.73-5.31-2.9-3.23-4.24-7.46-3.77-11.93.27-3.57,2.19-7.26,5.09-9.66,2.66-2.2,5.97-3.21,9.28-2.83,4.26.48,7.32,4.32,6.85,8.58-.27,2.36-1.57,4.36-3.41,5.59,5.26-.33,7.93-2.74,7.93-7.17,0-.09-.44-11.64-13.12-11.64-1.78,0-17.37.57-17.37,20.13,0,12.58,12.51,19.36,24.28,19.36,22.94,0,26.28-21.71,26.74-26.84v-.75c0-24.87-22.4-41.09-37.22-51.82-1.85-1.34-3.56-2.58-5.05-3.71-22.8-17.28-43.89-37.09-43.89-64.88,0-38.16,19.85-65.29,51.8-70.8,33.67-6.71,60.21,14.72,68.91,39.37,9.62,27.23-1.15,53.72-27.42,67.48-19.91,9.82-43.89,4.67-58.49-12.42-13.46-15.75-14.41-36.89-2.44-53.86,6.07-8.5,15.68-14.17,26.4-15.57,10.04-1.32,19.63,1.26,27.05,7.27,10.25,7.46,14.8,21.51,11.07,34.26-3.36,11.51-12.72,19.02-24.41,19.61-6.38.38-12.95-2.24-17.49-6.98-4.12-4.3-6.06-9.77-5.49-15.41.33-4.17,2.52-8.4,5.84-11.15,3-2.48,6.71-3.62,10.43-3.23,4.26.46,7.35,4.29,6.89,8.55-.42,3.94-3.73,6.88-7.6,6.93-.05.1-.09.22-.09.3-.12,1.25.3,2.29,1.24,3.27,1.37,1.44,3.55,2.34,5.43,2.22,6.96-.35,9.47-5.45,10.35-8.46,1.63-5.58.3-13.36-5.4-17.43l-.43-.33c-4.08-3.36-9.53-4.78-15.36-4.03-6.37.84-12.26,4.27-15.76,9.17-7.96,11.28-7.38,24.3,1.58,34.79,8.16,9.56,24.06,16.35,39.66,8.66,22.93-12.01,25.3-32.93,19.81-48.47-6.27-17.78-25.03-34.52-51.44-29.28-36.31,6.27-39.11,44.09-39.11,55.54,0,22.06,19.48,38.67,37.74,52.51,1.41,1.07,3.02,2.24,4.78,3.51,15.25,11.04,43.64,31.59,43.64,64.39l-.03,1.7c-1.23,15.38-11.52,41.41-42.24,41.41"/>
      </g>
      <g class="cls-3">
        <path class="cls-2" d="M804,169.82V7.77c0-4.29-3.48-7.76-7.76-7.76s-7.76,3.48-7.76,7.76v162.11c.19,27.18-14.17,44.64-40.63,49.19-26.36,5.24-45.14-11.49-51.42-29.27-5.49-15.55-3.12-36.47,19.81-48.49,6.7-3.3,14.1-4.11,21.29-2.47v10.26c-2.43-.72-4.97-1.06-7.49-.89-11.68.58-21.03,8.08-24.4,19.58-3.74,12.76.8,26.81,11.05,34.27,6.15,4.98,13.79,7.61,21.95,7.61,1.67,0,3.37-.11,5.08-.34,10.71-1.4,20.33-7.05,26.43-15.55,5.25-7.44,8.06-15.41,8.36-23.67V7.77c0-4.29-3.47-7.76-7.76-7.76s-7.76,3.48-7.76,7.76v161.9c-.22,5.16-2.08,10.26-5.49,15.12-3.51,4.9-9.41,8.32-15.79,9.16-5.83.76-11.27-.67-15.35-4.03l-.42-.33c-5.7-4.07-7.03-11.84-5.39-17.43.88-3.01,3.39-8.1,10.35-8.44,1.77-.08,3.66.6,5.04,1.83.57.51,1.53,1.56,1.6,2.91l.05.39-.04.37c0,.08-.04.19-.1.3-3.88.05-7.2,3-7.61,6.96-.44,4.26,2.66,8.08,6.92,8.52,3.72.39,7.43-.77,10.43-3.27,3.27-2.72,5.43-6.86,5.82-11.11.1-.93.1-1.82.04-2.72V7.77c0-4.29-3.48-7.76-7.76-7.76s-7.76,3.48-7.76,7.76v115.25c-9.56-1.46-19.3.01-28.32,4.46-26.27,13.76-37.03,40.25-27.41,67.49,7.61,21.54,28.82,40.61,56.51,40.61,4,0,8.13-.4,12.38-1.24,33.64-5.78,53.57-29.92,53.33-64.51"/>
      </g>
      <g class="cls-3">
        <path class="cls-2" d="M653.71,235.56c-4.29,0-7.76-3.48-7.76-7.76v-77.01c0-13.92-11.32-25.24-25.24-25.24s-25.24,11.32-25.24,25.24v44.01c0,10.35-8.42,18.77-18.76,18.77s-18.77-8.42-18.77-18.77V7.77c0-4.29,3.48-7.76,7.76-7.76s7.76,3.48,7.76,7.76v187.02c0,1.79,1.45,3.24,3.24,3.24s3.24-1.45,3.24-3.24v-44.01c0-22.48,18.29-40.77,40.77-40.77s40.77,18.29,40.77,40.77v77.01c0,4.29-3.48,7.76-7.76,7.76"/>
      </g>
      <g class="cls-3">
        <path class="cls-2" d="M631.7,235.56c-4.29,0-7.76-3.48-7.76-7.76v-77.01c0-1.79-1.45-3.24-3.24-3.24s-3.24,1.45-3.24,3.24v44.01c0,22.48-18.29,40.77-40.77,40.77s-40.77-18.29-40.77-40.77V7.77c0-4.29,3.48-7.76,7.76-7.76s7.76,3.48,7.76,7.76v187.02c0,13.92,11.32,25.24,25.24,25.24s25.24-11.32,25.24-25.24v-44.01c0-10.35,8.42-18.76,18.77-18.76s18.76,8.42,18.76,18.76v77.01c0,4.29-3.48,7.76-7.76,7.76"/>
      </g>
      <g class="cls-3">
        <path class="cls-1" d="M95.77,345.58c-4.29,0-7.76-3.48-7.76-7.76v-187.02c0-1.79-1.45-3.24-3.24-3.24s-3.24,1.45-3.24,3.24v44.01c0,22.48-18.29,40.77-40.77,40.77S0,217.27,0,194.79v-77.01c0-4.29,3.48-7.76,7.76-7.76s7.76,3.48,7.76,7.76v77.01c0,13.92,11.32,25.24,25.24,25.24s25.24-11.32,25.24-25.24v-44.01c0-10.35,8.42-18.76,18.77-18.76s18.76,8.42,18.76,18.76v187.02c0,4.29-3.48,7.76-7.76,7.76"/>
      </g>
      <g class="cls-3">
        <path class="cls-1" d="M117.78,345.58c-4.29,0-7.76-3.48-7.76-7.76v-187.02c0-13.92-11.32-25.24-25.24-25.24s-25.24,11.32-25.24,25.24v44.01c0,10.35-8.42,18.76-18.76,18.76s-18.76-8.42-18.76-18.76v-77.01c0-4.29,3.48-7.76,7.76-7.76s7.76,3.48,7.76,7.76v77.01c0,1.79,1.45,3.24,3.24,3.24s3.24-1.45,3.24-3.24v-44.01c0-22.48,18.29-40.77,40.77-40.77s40.77,18.29,40.77,40.77v187.02c0,4.29-3.48,7.76-7.76,7.76"/>
      </g>
      <g class="cls-3">
        <path class="cls-2" d="M576.75,279.68c-13.89,0-25.19,11.3-25.19,25.18s11.3,25.19,25.18,25.19,25.19-11.3,25.19-25.19-11.3-25.18-25.18-25.18M576.75,345.58c-22.45,0-40.72-18.26-40.72-40.71s18.26-40.71,40.71-40.71,40.72,18.26,40.72,40.71-18.26,40.71-40.71,40.71"/>
      </g>
      <g class="cls-3">
        <path class="cls-2" d="M576.75,321.31c-9.07,0-16.45-7.38-16.45-16.44s7.38-16.45,16.44-16.45,16.45,7.38,16.45,16.44-7.38,16.45-16.44,16.45"/>
      </g>
      <g class="cls-3">
        <path class="cls-2" d="M708.06,320.12h-65.9c-4.29,0-7.76-3.48-7.76-7.76s3.48-7.76,7.76-7.76h65.9c4.29,0,7.76,3.48,7.76,7.76s-3.48,7.76-7.76,7.76"/>
      </g>
      <g class="cls-3">
        <path class="cls-2" d="M708.06,345.58h-65.9c-4.29,0-7.76-3.48-7.76-7.76s3.48-7.76,7.76-7.76h65.9c4.29,0,7.76,3.48,7.76,7.76s-3.48,7.76-7.76,7.76"/>
      </g>
      <g class="cls-3">
        <path class="cls-2" d="M708.06,294.62h-65.9c-4.29,0-7.76-3.48-7.76-7.76s3.48-7.76,7.76-7.76h65.9c4.29,0,7.76,3.48,7.76,7.76s-3.48,7.76-7.76,7.76"/>
      </g>
      <g class="cls-3">
        <path class="cls-1" d="M258.83,40.99h-110.01c-4.29,0-7.76-3.48-7.76-7.76s3.48-7.76,7.76-7.76h110.01c4.29,0,7.76,3.48,7.76,7.76s-3.48,7.76-7.76,7.76"/>
      </g>
      <g class="cls-3">
        <path class="cls-1" d="M258.83,15.53h-110.01c-4.29,0-7.76-3.48-7.76-7.76S144.53,0,148.81,0h110.01c4.29,0,7.76,3.48,7.76,7.76s-3.48,7.76-7.76,7.76"/>
      </g>
      <g class="cls-3">
        <path class="cls-1" d="M258.83,66.49h-110.01c-4.29,0-7.76-3.48-7.76-7.76s3.48-7.76,7.76-7.76h110.01c4.29,0,7.76,3.48,7.76,7.76s-3.48,7.76-7.76,7.76"/>
      </g>
      <g class="cls-3">
        <path class="cls-1" d="M78.4,74.05c-8.58,0-17.22-2.65-25.05-8.01-8.58-5.96-14.38-15.49-15.93-26.18-1.46-10.02.98-19.65,6.89-27.14C51.63,2.36,65.6-2.39,78.42,1.17c11.55,3.21,19.19,12.45,19.94,24.13.46,6.39-2.06,12.98-6.75,17.59-4.24,4.17-9.69,6.18-15.33,5.69-4.17-.27-8.43-2.4-11.23-5.68-2.52-2.96-3.72-6.65-3.37-10.38.4-4.27,4.22-7.41,8.45-7,3.95.37,6.93,3.63,7.04,7.5.11.05.22.08.3.09,1.23.1,2.29-.33,3.26-1.28,1.42-1.39,2.28-3.59,2.14-5.47-.45-6.96-5.58-9.39-8.6-10.23-5.61-1.55-13.36-.11-17.35,5.65l-.32.43c-3.3,4.13-4.66,9.6-3.81,15.41.93,6.36,4.44,12.2,9.39,15.64,11.39,7.81,24.4,7.04,34.76-2.07,9.45-8.3,16.01-24.29,8.11-39.77-1.95-3.82-.43-8.49,3.39-10.44,3.82-1.94,8.49-.43,10.44,3.39,10,19.61,5.18,43.66-11.7,58.49-8.46,7.43-18.56,11.19-28.78,11.19"/>
      </g>
      <path class="cls-1" d="M418,341.22c1.95,3.82,6.62,5.34,10.44,3.39,3.82-1.95,5.34-6.62,3.39-10.44-7.9-15.49-1.33-31.48,8.11-39.77,10.37-9.11,23.38-9.87,34.76-2.07,4.95,3.43,8.46,9.28,9.39,15.64.85,5.81-.51,11.28-3.81,15.41l-.32.43c-3.99,5.76-11.75,7.2-17.35,5.64-3.02-.84-8.16-3.28-8.6-10.23-.14-1.88.72-4.07,2.14-5.47.97-.96,2.01-1.4,3.26-1.29.09,0,.2.04.3.09.11,3.86,3.09,7.13,7.03,7.5,4.26.43,8.05-2.73,8.45-7,.35-3.73-.85-7.42-3.37-10.38-2.8-3.28-7.06-5.41-11.23-5.68-5.65-.49-11.09,1.53-15.33,5.7-4.68,4.61-7.2,11.21-6.74,17.58.75,11.68,8.39,20.93,19.94,24.14,2.85.79,5.75,1.17,8.62,1.17,10.07,0,19.79-4.66,25.49-12.71,5.9-7.49,8.35-17.12,6.89-27.14-1.56-10.69-7.35-20.22-15.93-26.18-17.14-11.74-38.26-10.49-53.82,3.18-16.88,14.83-21.69,38.88-11.7,58.49M362.75,40.72c0-9.07-7.38-16.45-16.45-16.45s-16.45,7.38-16.45,16.45,7.38,16.44,16.45,16.44,16.44-7.38,16.44-16.45M371.49,40.72c0,13.89-11.3,25.18-25.19,25.18s-25.18-11.3-25.18-25.18,11.3-25.19,25.19-25.19,25.18,11.3,25.18,25.19M387.02,40.72C387.02,18.27,368.75,0,346.3,0s-40.71,18.26-40.71,40.71,18.27,40.71,40.71,40.71,40.71-18.26,40.71-40.71M431.46,43.12v-.75c.46-5.13,3.8-26.84,26.74-26.84,12.2,0,22.91,9.05,22.91,19.36,0,5.97-1.61,10.6-4.8,13.75-3.77,3.72-8.99,4.69-11.32,4.69h-.1c-2.49-.03-7.11-.71-10.07-4.92l-.4-.52c-2.48-2.95-1.94-7.58-.17-10.44,1.54-2.51,3.62-3.46,6.18-2.86.5.12.94.4,1.26.73-2.74.95-4.84,3.4-5.19,6.47-.48,4.26,2.58,8.1,6.84,8.59,3.32.38,6.62-.63,9.28-2.83,2.91-2.4,4.82-6.09,5.1-9.67.88-8.32-5.17-16.4-13.74-18.41-9.1-2.14-17.88,1.62-22.95,9.83-5.54,8.99-5,20.57,1.28,28.3,5.08,7.04,13.22,11.13,22.38,11.24,6.38.11,15.55-2.29,22.52-9.17,4.3-4.25,9.42-11.99,9.42-24.8C496.63,15.98,479.03,0,458.2,0c-30.72,0-41.01,26.03-42.24,41.41l-.03,1.7c0,29.62,22.89,42.5,38.04,51.02,3.99,2.25,7.76,4.37,10.38,6.35,12.8,9.7,34.8,30,38.29,56.93,4.47,34.57-9.54,56.45-39.65,61.65-26.4,5.25-45.16-11.5-51.44-29.28-5.49-15.54-3.12-36.46,19.81-48.47,15.61-7.69,31.49-.9,39.66,8.66,8.96,10.49,9.54,23.51,1.58,34.79-3.5,4.9-9.4,8.33-15.76,9.17-5.82.76-11.27-.66-15.36-4.02l-.43-.33c-5.7-4.07-7.04-11.85-5.4-17.43.88-3.01,3.39-8.11,10.35-8.46,1.86-.12,4.06.78,5.44,2.22.94.99,1.36,2.03,1.24,3.28,0,.09-.04.2-.09.3-3.87.06-7.17,2.99-7.6,6.93-.46,4.26,2.63,8.09,6.89,8.55,3.73.4,7.43-.75,10.43-3.23,3.32-2.75,5.51-6.99,5.84-11.15.58-5.64-1.37-11.12-5.49-15.41-4.54-4.75-11.07-7.36-17.49-6.99-11.69.59-21.04,8.1-24.41,19.61-3.73,12.76.82,26.8,11.07,34.26,7.41,6,17.01,8.59,27.05,7.26,10.71-1.41,20.32-7.07,26.4-15.57,11.97-16.97,11.02-38.11-2.44-53.86-14.6-17.09-38.58-22.24-58.49-12.42-8.76,4.59-15.78,10.6-20.91,17.57-10.49-22.18-35.49-39.98-66.58-33.79-33.64,5.78-53.57,29.92-53.33,64.51v162.05c0,4.29,3.48,7.76,7.76,7.76s7.76-3.48,7.76-7.76v-162.11c-.19-27.18,14.17-44.64,40.63-49.19,26.38-5.24,45.14,11.5,51.42,29.27,5.49,15.55,3.12,36.47-19.81,48.49-6.71,3.3-14.11,4.11-21.29,2.47v-10.27c2.43.72,4.97,1.05,7.49.9,11.68-.58,21.03-8.08,24.4-19.58,3.74-12.76-.8-26.81-11.05-34.27-7.41-6-17-8.59-27.03-7.27-10.71,1.4-20.33,7.05-26.43,15.55-5.25,7.44-8.06,15.41-8.36,23.67v162.34c0,4.29,3.47,7.76,7.76,7.76s7.76-3.48,7.76-7.76v-161.9c.21-5.16,2.07-10.26,5.49-15.11,3.51-4.9,9.41-8.32,15.79-9.16,5.82-.76,11.27.67,15.35,4.03l.42.33c5.7,4.06,7.03,11.84,5.39,17.42-.88,3.01-3.39,8.1-10.35,8.44-1.73.11-3.66-.6-5.04-1.83-.57-.51-1.53-1.56-1.61-2.91l-.05-.4.04-.36c0-.08.05-.19.1-.3,3.88-.05,7.2-3,7.61-6.96.44-4.26-2.65-8.08-6.92-8.52-3.71-.38-7.43.77-10.42,3.26-3.26,2.72-5.43,6.86-5.82,11.11-.11.93-.11,1.82-.04,2.72v160.13c0,4.29,3.48,7.76,7.76,7.76s7.76-3.48,7.76-7.76v-115.24c9.56,1.46,19.3-.01,28.32-4.46,8.75-4.58,15.77-10.59,20.9-17.56,9.06,19.14,28.94,35.03,54.22,35.03,4,0,8.14-.4,12.38-1.24,38.24-6.6,57.76-36.1,52.22-78.9-4.21-32.54-29.57-56.14-44.31-67.31-3.46-2.62-7.68-5-12.14-7.51-14.12-7.94-30.13-16.95-30.13-37.49"/>
    </g>
  </g>
</svg>