<?xml version="1.0" encoding="UTF-8"?>
<svg id="Layer_2" xmlns="http://www.w3.org/2000/svg" viewBox="0 0 651.97 636.44">
  <defs>
    <style>
      .cls-1 {
        fill: #fff;
      }

      .cls-2 {
        fill: #fff7f0;
      }

      .cls-3 {
        fill: none;
        stroke: #fff7f0;
        stroke-miterlimit: 10;
        stroke-width: 1.6px;
      }
    </style>
  </defs>
  <g id="Layer_1-2" data-name="Layer_1">
    <rect class="cls-2" x="65.21" y="114.77" width="33.41" height="1.6"/>
    <polygon class="cls-2" points="96.72 118.36 107.13 115.57 96.72 112.78 96.72 118.36"/>
    <rect class="cls-2" x="76.88" y="114.76" width="1.6" height="33.41" transform="translate(-74.64 120.63) rotate(-55.35)"/>
    <polygon class="cls-2" points="88.27 142.18 98.42 145.8 91.44 137.59 88.27 142.18"/>
    <rect class="cls-2" x="62.37" y="121.7" width="1.6" height="49.41"/>
    <polygon class="cls-2" points="60.38 169.21 63.17 179.62 65.96 169.21 60.38 169.21"/>
    <rect class="cls-2" x="31.95" y="130.67" width="33.41" height="1.6" transform="translate(-66.07 50.91) rotate(-34.61)"/>
    <polygon class="cls-2" points="34.89 137.59 27.91 145.79 38.06 142.18 34.89 137.59"/>
    <rect class="cls-2" x="27.72" y="114.78" width="33.41" height="1.6"/>
    <polygon class="cls-2" points="29.63 112.79 19.22 115.58 29.63 118.37 29.63 112.79"/>
    <rect class="cls-2" x="47.85" y="82.98" width="1.6" height="33.41" transform="translate(-61.04 83.2) rotate(-55.44)"/>
    <polygon class="cls-2" points="38.04 88.99 27.89 85.39 34.88 93.59 38.04 88.99"/>
    <rect class="cls-2" x="62.36" y="60.03" width="1.6" height="49.41"/>
    <polygon class="cls-2" points="65.95 61.93 63.16 51.52 60.37 61.93 65.95 61.93"/>
    <rect class="cls-2" x="60.97" y="98.88" width="33.41" height="1.6" transform="translate(-42.88 61.77) rotate(-34.61)"/>
    <polygon class="cls-2" points="91.44 93.57 98.42 85.36 88.27 88.98 91.44 93.57"/>
    <rect class="cls-2" x="65.21" y="114.77" width="33.41" height="1.6"/>
    <polygon class="cls-2" points="96.72 118.36 107.13 115.57 96.72 112.78 96.72 118.36"/>
    <g>
      <path class="cls-2" d="M74.04,41.46c-6.06-5.77-15.68-5.77-21.74,0-3.75,3.57-7.71,6.79-11.53,9.91-13.36,10.87-24.9,20.27-24.9,40.07v48.33c0,19.77,11.53,29.16,24.88,40.02,3.83,3.11,7.79,6.34,11.55,9.91,6.06,5.77,15.68,5.77,21.74,0,3.75-3.57,7.72-6.8,11.55-9.91,13.35-10.86,24.89-20.25,24.89-40.02v-48.33c0-19.8-11.54-29.2-24.9-40.07-3.82-3.11-7.78-6.34-11.53-9.91M66.78,231.14h-7.21c-2.31,0-4.3-1.74-4.51-4.04-1.49-16.44-12.14-25.1-24.32-35.01-14.41-11.72-30.74-25.01-30.74-52.33v-48.33c0-27.35,16.34-40.65,30.75-52.38,12.18-9.91,22.82-18.58,24.31-35.01.21-2.3,2.2-4.04,4.51-4.04h7.21c2.31,0,4.3,1.74,4.51,4.04,1.49,16.43,12.13,25.09,24.31,35.01,14.41,11.73,30.75,25.03,30.75,52.38v48.33c0,27.32-16.33,40.61-30.74,52.33-12.18,9.91-22.83,18.57-24.32,35.01-.21,2.3-2.2,4.04-4.51,4.04"/>
      <path class="cls-2" d="M86.17,115.57c0,12.73-5.65,27.09-23,27.09s-23-14.36-23-27.09,5.6-27.09,23-27.09,23,14.4,23,27.09"/>
      <path class="cls-2" d="M424.46,41.97c-6.06-5.77-15.68-5.77-21.74,0-3.75,3.57-7.71,6.79-11.53,9.91-13.36,10.87-24.9,20.27-24.9,40.07v48.32c0,19.77,11.53,29.16,24.88,40.02,3.83,3.11,7.8,6.34,11.55,9.91,6.06,5.77,15.68,5.77,21.74,0,3.75-3.57,7.72-6.8,11.55-9.91,13.35-10.86,24.89-20.25,24.89-40.02v-48.32c0-19.8-11.54-29.2-24.9-40.07-3.82-3.11-7.78-6.34-11.53-9.91M417.19,231.66h-7.21c-2.31,0-4.3-1.74-4.51-4.04-1.49-16.44-12.13-25.1-24.32-35.01-14.41-11.72-30.74-25.01-30.74-52.33v-48.32c0-27.35,16.34-40.65,30.75-52.38,12.18-9.91,22.82-18.58,24.31-35.01.21-2.3,2.2-4.04,4.51-4.04h7.21c2.31,0,4.3,1.74,4.51,4.04,1.49,16.43,12.13,25.09,24.31,35.01,14.41,11.73,30.75,25.03,30.75,52.39v48.32c0,27.32-16.33,40.61-30.74,52.33-12.18,9.91-22.83,18.57-24.32,35.01-.21,2.3-2.2,4.04-4.51,4.04"/>
      <path class="cls-3" d="M416.66,81.84c6.86,1.64,13.63,5.6,19.6,11.57,4.49,4.49,10.21,11.83,11.93,21.27"/>
    </g>
    <polygon class="cls-2" points="417.91 84.48 409.63 81 418.54 79.87 417.91 84.48"/>
    <path class="cls-3" d="M410.5,150.35c-6.85-1.64-13.61-5.61-19.59-11.59-4.49-4.49-10.2-11.81-11.93-21.23"/>
    <polygon class="cls-2" points="409.26 147.72 417.53 151.2 408.62 152.32 409.26 147.72"/>
    <path class="cls-2" d="M429.85,99.83c9,9,15.16,23.15,2.89,35.42-12.3,12.3-26.42,6.11-35.41-2.89-8.97-8.97-15.19-23.12-2.89-35.41s26.45-6.08,35.42,2.89"/>
    <polygon class="cls-2" points="381.24 93.79 381.24 89.97 381.24 89.6 381.24 82.56 380.93 82.56 381.78 82.16 379.3 85.9 376.82 89.64 377.03 88.8 377.03 89.16 384.85 89.16 384.85 90.37 376.02 90.37 376.02 89.36 381.72 80.91 382.83 80.91 382.83 93.79 381.24 93.79"/>
    <g>
      <path class="cls-2" d="M387.36,93.75c-.97,0-1.76-.23-2.37-.68s-1.01-1.13-1.22-2.03c.09-.22.22-.38.39-.49.17-.11.37-.16.59-.16.29,0,.52.09.68.27.16.18.3.52.43,1.04l.36,1.4-.75-.6c.33.14.64.24.92.3.28.06.56.09.83.09.63,0,1.15-.13,1.58-.39.43-.26.75-.61.97-1.07.22-.45.33-.99.33-1.6s-.12-1.18-.36-1.62c-.24-.44-.59-.77-1.04-1-.45-.22-.98-.34-1.59-.34-.28,0-.57.02-.87.06-.3.04-.6.09-.89.15l-.54-.15.4-5.86h6.28v1.58h-5.9l.52-.9-.33,4.88-.84-.29c.46-.23.9-.39,1.33-.49.43-.1.88-.14,1.35-.14.83,0,1.56.15,2.2.45.63.3,1.13.74,1.48,1.32.35.58.53,1.3.53,2.16s-.18,1.54-.56,2.15c-.37.61-.89,1.09-1.57,1.44-.67.34-1.46.52-2.35.52"/>
      <path class="cls-2" d="M395.89,84.82c.37,0,.69-.09.94-.27.26-.18.45-.46.58-.84.13-.38.2-.85.2-1.43s-.07-1.05-.2-1.42c-.13-.37-.33-.65-.58-.84-.26-.19-.57-.28-.94-.28s-.69.09-.95.28c-.26.19-.46.46-.6.84-.14.37-.2.84-.2,1.42s.07,1.05.2,1.43c.13.38.33.66.6.84.26.18.58.27.95.27M395.89,85.5c-.54,0-1.04-.13-1.51-.38s-.85-.62-1.14-1.1c-.3-.48-.44-1.05-.44-1.72s.15-1.26.44-1.73c.29-.47.68-.84,1.15-1.1.47-.26.97-.38,1.5-.38s1.02.13,1.49.38c.47.26.85.62,1.14,1.1.29.47.44,1.05.44,1.73s-.15,1.26-.43,1.74c-.29.48-.67.85-1.13,1.1-.47.25-.97.37-1.51.37"/>
      <path class="cls-2" d="M599.66,41.97c-6.06-5.77-15.68-5.77-21.74,0-3.75,3.57-7.71,6.79-11.53,9.91-13.36,10.87-24.9,20.27-24.9,40.07v48.32c0,19.77,11.53,29.16,24.88,40.02,3.83,3.11,7.8,6.34,11.55,9.91,6.06,5.77,15.68,5.77,21.74,0,3.75-3.57,7.72-6.8,11.55-9.91,13.35-10.86,24.89-20.25,24.89-40.02v-48.32c0-19.8-11.54-29.2-24.9-40.07-3.82-3.11-7.78-6.34-11.53-9.91M592.4,231.66h-7.21c-2.31,0-4.3-1.74-4.51-4.04-1.49-16.44-12.14-25.1-24.32-35.01-14.41-11.72-30.74-25.01-30.74-52.33v-48.32c0-27.35,16.34-40.65,30.75-52.38,12.18-9.91,22.82-18.58,24.31-35.01.21-2.3,2.2-4.04,4.51-4.04h7.21c2.31,0,4.3,1.74,4.51,4.04,1.49,16.43,12.13,25.09,24.31,35.01,14.41,11.73,30.75,25.03,30.75,52.39v48.32c0,27.32-16.33,40.61-30.74,52.33-12.18,9.91-22.83,18.57-24.32,35.01-.21,2.3-2.2,4.04-4.51,4.04"/>
      <path class="cls-3" d="M592.75,81c-9.17,0-18.63,4.41-26.63,12.41-4.49,4.49-10.21,11.83-11.93,21.27"/>
    </g>
    <polygon class="cls-2" points="591.17 78.67 599.84 81 591.17 83.32 591.17 78.67"/>
    <path class="cls-3" d="M584.85,151.2c9.15,0,18.6-4.42,26.62-12.44,4.49-4.48,10.2-11.81,11.93-21.23"/>
    <polygon class="cls-2" points="586.43 153.52 577.76 151.2 586.43 148.87 586.43 153.52"/>
    <path class="cls-2" d="M572.53,99.83c-9,9-15.16,23.15-2.89,35.42,12.3,12.3,26.42,6.11,35.41-2.89,8.97-8.97,15.19-23.12,2.89-35.41s-26.45-6.08-35.41,2.89"/>
    <polygon class="cls-2" points="611.99 93.79 611.99 89.97 611.99 89.6 611.99 82.56 611.68 82.56 612.53 82.16 610.05 85.9 607.57 89.64 607.78 88.8 607.78 89.16 615.6 89.16 615.6 90.37 606.77 90.37 606.77 89.36 612.47 80.91 613.58 80.91 613.58 93.79 611.99 93.79"/>
    <g>
      <path class="cls-2" d="M618.11,93.75c-.97,0-1.76-.23-2.37-.68-.61-.45-1.01-1.13-1.22-2.03.09-.22.22-.38.39-.49.17-.11.37-.16.59-.16.29,0,.52.09.68.27.16.18.3.52.43,1.04l.36,1.4-.75-.6c.33.14.64.24.92.3.28.06.56.09.83.09.63,0,1.15-.13,1.58-.39.43-.26.75-.61.97-1.07.22-.45.33-.99.33-1.6s-.12-1.18-.36-1.62c-.24-.44-.59-.77-1.04-1-.45-.22-.98-.34-1.59-.34-.28,0-.57.02-.87.06-.3.04-.6.09-.89.15l-.54-.15.41-5.86h6.28v1.58h-5.9l.52-.9-.33,4.88-.84-.29c.46-.23.9-.39,1.33-.49.43-.1.88-.14,1.35-.14.83,0,1.56.15,2.2.45.63.3,1.13.74,1.48,1.32.35.58.53,1.3.53,2.16s-.18,1.54-.56,2.15c-.37.61-.89,1.09-1.57,1.44-.67.34-1.46.52-2.35.52"/>
      <path class="cls-2" d="M626.64,84.82c.37,0,.69-.09.94-.27.26-.18.45-.46.59-.84.13-.38.2-.85.2-1.43s-.07-1.05-.2-1.42c-.14-.37-.33-.65-.59-.84-.26-.19-.57-.28-.94-.28s-.69.09-.95.28c-.26.19-.46.46-.6.84-.14.37-.2.84-.2,1.42s.07,1.05.2,1.43c.13.38.33.66.6.84.26.18.58.27.95.27M626.64,85.5c-.54,0-1.04-.13-1.51-.38-.47-.26-.85-.62-1.14-1.1-.3-.48-.44-1.05-.44-1.72s.15-1.26.44-1.73c.29-.47.68-.84,1.15-1.1.47-.26.97-.38,1.5-.38s1.02.13,1.49.38c.47.26.85.62,1.14,1.1.29.47.44,1.05.44,1.73s-.15,1.26-.43,1.74c-.29.48-.67.85-1.13,1.1-.47.25-.97.37-1.51.37"/>
      <path class="cls-2" d="M249.25,41.97c-6.06-5.77-15.68-5.77-21.74,0-3.75,3.57-7.71,6.79-11.53,9.9-13.36,10.87-24.9,20.27-24.9,40.07v48.33c0,19.77,11.53,29.16,24.88,40.02,3.83,3.11,7.79,6.34,11.55,9.91,6.06,5.77,15.68,5.77,21.74,0,3.75-3.57,7.72-6.8,11.55-9.91,13.35-10.86,24.89-20.25,24.89-40.02v-48.33c0-19.8-11.54-29.2-24.9-40.07-3.82-3.11-7.78-6.34-11.53-9.91M241.99,231.66h-7.21c-2.31,0-4.3-1.74-4.51-4.04-1.49-16.44-12.13-25.1-24.32-35.01-14.41-11.72-30.74-25.01-30.74-52.33v-48.33c0-27.35,16.34-40.65,30.75-52.38,12.18-9.91,22.82-18.57,24.31-35.01.21-2.3,2.2-4.04,4.51-4.04h7.21c2.31,0,4.3,1.74,4.51,4.04,1.49,16.43,12.13,25.1,24.31,35.01,14.41,11.74,30.75,25.03,30.75,52.39v48.33c0,27.32-16.33,40.61-30.74,52.33-12.18,9.91-22.82,18.57-24.32,35.01-.21,2.3-2.2,4.04-4.51,4.04"/>
      <path class="cls-2" d="M251.01,85.13c0,12.73-5.65,27.09-23,27.09s-23-14.36-23-27.09,5.6-27.09,23-27.09,23,14.4,23,27.09"/>
      <path class="cls-3" d="M238.38,187.73c-2.33,0-4.52-.87-6.18-2.45-3.94-3.75-8-7.05-11.93-10.25-13.01-10.59-22.39-18.22-22.39-34.76v-48.33c0-16.57,9.39-24.22,22.39-34.79,3.94-3.21,8-6.51,11.93-10.26,1.66-1.58,3.85-2.45,6.18-2.45s4.52.87,6.18,2.45c3.93,3.74,7.98,7.04,11.89,10.23,13.03,10.61,22.42,18.25,22.42,34.82v48.33c0,16.54-9.39,24.17-22.38,34.74-3.95,3.21-8.01,6.51-11.94,10.26-1.66,1.58-3.85,2.45-6.18,2.45Z"/>
      <path class="cls-2" d="M224.67,173.3c.01-.45.02-.89.03-1.34,0-.45.01-.9.02-1.35,0-.45,0-.91,0-1.35v-6.93l-2.53.21v-.79l3.96-1.02.27.19-.08,2.74v5.59c0,.45,0,.9.01,1.35,0,.45.01.9.02,1.35,0,.45.02.9.03,1.34h-1.73ZM221.98,173.3v-.69l2.74-.46h1.61l2.76.46v.69h-7.12Z"/>
    </g>
    <polygon class="cls-2" points="230.2 176.37 235.33 159.67 236.46 159.67 231.33 176.37 230.2 176.37"/>
    <path class="cls-2" d="M237.44,173.3v-1.25c.51-.5,1.01-1,1.49-1.49.48-.49.93-.96,1.33-1.39.64-.68,1.17-1.31,1.57-1.89.41-.58.71-1.14.91-1.67.2-.53.3-1.05.3-1.55,0-.79-.21-1.42-.62-1.88-.42-.46-.98-.69-1.68-.69-.23,0-.52.03-.87.09-.35.06-.71.17-1.07.34l1.1-.69-.46,1.69c-.08.31-.17.56-.28.76-.11.2-.23.34-.37.43-.13.09-.29.13-.47.13-.21,0-.39-.06-.57-.17-.17-.11-.31-.27-.41-.46.08-.68.3-1.24.67-1.68.37-.44.84-.77,1.4-.98.56-.21,1.16-.32,1.8-.32.83,0,1.51.14,2.03.41.52.27.9.66,1.15,1.15.25.49.38,1.06.38,1.7,0,.56-.11,1.11-.34,1.64-.22.53-.61,1.13-1.16,1.79-.55.67-1.32,1.47-2.3,2.42-.21.2-.44.43-.7.69-.26.26-.54.52-.84.8-.3.28-.61.56-.93.86l.23-.83v.46h6.6v1.57h-7.89Z"/>
    <path class="cls-2" d="M252.17,164.93v-.75h3.59v.75l-1.59.31h-.42l-1.57-.31ZM251.32,173.3v-.69l2.13-.38h.44l2.11.38v.69h-4.68ZM251.44,169.08l-.65-.56h.06l1.67-2.17,1.69-2.17h1.21l-3.97,4.9ZM253.34,173.3l-2.8-4.07-3.44-5.05h1.79l2.69,3.9,3.65,5.22h-1.88ZM246.77,173.3l4.03-4.99.67.48h-.02l-1.75,2.25-1.75,2.27h-1.19ZM246.43,164.93v-.75h4.28v.75l-1.82.33h-.46l-2-.33ZM246.29,173.3v-.69l1.65-.31h.42l1.77.31v.69h-3.84Z"/>
    <g>
      <path class="cls-1" d="M191.35,353.59c0,12.76-5.66,27.15-23.05,27.15s-23.05-14.4-23.05-27.15,5.62-27.15,23.05-27.15,23.05,14.44,23.05,27.15"/>
      <path class="cls-1" d="M296.47,360.07c0,20.2-5.66,12.88-23.05,12.88s-23.05,7.32-23.05-12.88c0-12.71,5.62-27.15,23.05-27.15s23.05,14.44,23.05,27.15"/>
      <path class="cls-1" d="M401.59,347.1c0-20.2-5.66-12.88-23.05-12.88s-23.05-7.32-23.05,12.88c0,12.71,5.62,27.15,23.05,27.15s23.05-14.44,23.05-27.15"/>
      <path class="cls-1" d="M506.72,353.59c0,12.76-5.66,27.15-23.05,27.15s-23.05-14.4-23.05-27.15,5.62-27.15,23.05-27.15,23.05,14.44,23.05,27.15"/>
      <path class="cls-1" d="M191.35,481.44c0,7.13-4.08,15.47-23.05,15.47s-23.05-8.34-23.05-15.47,4.03-15.47,23.05-15.47,23.05,8.36,23.05,15.47"/>
      <path class="cls-1" d="M296.47,488.57c-.68,10.62-4.08,3.64-23.05,3.64s-22.37,6.99-23.05-3.64c-.44-6.89,4.03-20.17,23.05-20.17s23.49,13.27,23.05,20.17"/>
      <path class="cls-1" d="M401.59,474.3c-.68-10.62-4.08-3.64-23.05-3.64s-22.37-6.99-23.05,3.64c-.44,6.9,4.03,20.17,23.05,20.17s23.49-13.27,23.05-20.17"/>
      <path class="cls-1" d="M498.52,481.44c0,12.76-3.65,27.15-14.85,27.15s-14.85-14.39-14.85-27.15,3.62-27.15,14.85-27.15,14.85,14.44,14.85,27.15"/>
      <path class="cls-1" d="M191.35,609.29c0,1.51-2.49,3.79-23.05,3.79s-23.05-2.28-23.05-3.79,2.45-3.79,23.05-3.79,23.05,2.29,23.05,3.79"/>
      <path class="cls-1" d="M296.47,615.82c-1.07,1.07-2.49-5.6-23.05-5.6s-21.98,6.67-23.05,5.6c-1.06-1.06,2.45-13.19,23.05-13.19s24.11,12.12,23.05,13.19"/>
      <path class="cls-1" d="M401.59,602.75c-1.07-1.06-2.49,5.61-23.05,5.61s-21.98-6.67-23.05-5.61c-1.06,1.06,2.45,13.19,23.05,13.19s24.11-12.12,23.05-13.19"/>
      <path class="cls-1" d="M490.33,609.29c0,12.76-1.64,27.15-6.66,27.15s-6.66-14.39-6.66-27.15,1.62-27.15,6.66-27.15,6.66,14.44,6.66,27.15"/>
    </g>
  </g>
</svg>