<svg id="Layer_1" data-name="Layer 1" xmlns="http://www.w3.org/2000/svg" viewBox="0 0 22 16"><defs><style>.cls-1{fill:#fff;fill-rule:evenodd;}</style></defs><title>icoArtboard 7</title><path class="cls-1" d="M2.11,4.93,4.63,6.55,7.84,8.62,8.37,9c.26.18.48.32.66.43s.39.24.64.37a3.77,3.77,0,0,0,.7.31,2.05,2.05,0,0,0,.62.1h0a2.05,2.05,0,0,0,.62-.1,3.77,3.77,0,0,0,.7-.31c.25-.13.46-.26.64-.37s.4-.25.66-.43l.53-.35L19.9,4.93a5.43,5.43,0,0,0,1.5-1.4A2.83,2.83,0,0,0,22,1.82,1.69,1.69,0,0,0,21.42.53,2,2,0,0,0,20,0H2A1.82,1.82,0,0,0,.51.59,2.18,2.18,0,0,0,0,2.07,2.55,2.55,0,0,0,.68,3.62,5.79,5.79,0,0,0,2.11,4.93ZM20.77,6.15q-4,2.52-6.11,3.92c-.47.32-.85.56-1.14.74a7.1,7.1,0,0,1-1.16.55,3.88,3.88,0,0,1-1.35.28h0a3.88,3.88,0,0,1-1.35-.28,7.1,7.1,0,0,1-1.16-.55c-.29-.18-.67-.42-1.14-.74C6.24,9.32,4.2,8,1.24,6.15A6.42,6.42,0,0,1,0,5.16v9a1.69,1.69,0,0,0,.58,1.29A2,2,0,0,0,2,16H20a2,2,0,0,0,1.38-.53A1.69,1.69,0,0,0,22,14.18v-9A6.83,6.83,0,0,1,20.77,6.15Z"/></svg>