<svg id="Layer_1" data-name="Layer 1" xmlns="http://www.w3.org/2000/svg" viewBox="0 0 20 20"><defs><style>.cls-1{fill:#fff;fill-rule:evenodd;}</style></defs><title>icoArtboard 3</title><path class="cls-1" d="M.5,6.41H4.4V20H.5Zm1.85-1.7h0A2.25,2.25,0,0,1,0,2.36,2.27,2.27,0,0,1,2.38,0,2.27,2.27,0,0,1,4.73,2.36,2.27,2.27,0,0,1,2.35,4.71ZM20,20H15.58V13c0-1.84-.69-3.1-2.21-3.1a2.26,2.26,0,0,0-2.11,1.67,3.19,3.19,0,0,0-.1,1.11V20H6.78s.06-12.45,0-13.59h4.38V8.55a4,4,0,0,1,3.89-2.27c2.77,0,4.95,2,4.95,6.16V20Z"/></svg>