<svg id="Layer_1" data-name="Layer 1" xmlns="http://www.w3.org/2000/svg" viewBox="0 0 22 22"><defs><style>.cls-1{fill:#fff;fill-rule:evenodd;}</style></defs><title>icoArtboard 9</title><path class="cls-1" d="M22,.92,18.85,19.78a.82.82,0,0,1-.4.55.7.7,0,0,1-.38.1.79.79,0,0,1-.29-.06L12.22,18.1l-3,3.62a.73.73,0,0,1-.61.28A.76.76,0,0,1,8.37,22,.76.76,0,0,1,8,21.66a.77.77,0,0,1-.14-.45V16.93l10.61-13L5.34,15.28l-4.85-2A.74.74,0,0,1,0,12.62a.72.72,0,0,1,.39-.72L20.82.11a.83.83,0,0,1,.4-.11.77.77,0,0,1,.44.14A.75.75,0,0,1,22,.92Z"/></svg>