<svg id="Layer_1" data-name="Layer 1" xmlns="http://www.w3.org/2000/svg" viewBox="0 0 22 22"><defs><style>.cls-1{fill:#fff;fill-rule:evenodd;}</style></defs><title>icoArtboard 1</title><path class="cls-1" d="M11,2c2.94,0,3.28,0,4.44.07a6.22,6.22,0,0,1,2,.37,3.34,3.34,0,0,1,1.26.83,3.34,3.34,0,0,1,.83,1.26A6.22,6.22,0,0,1,20,6.56C20,7.72,20,8.06,20,11s0,3.29-.07,4.44a6.22,6.22,0,0,1-.37,2,3.74,3.74,0,0,1-2.09,2.09,6.22,6.22,0,0,1-2,.37C14.29,20,13.94,20,11,20S7.71,20,6.56,20a6.22,6.22,0,0,1-2-.37,3.34,3.34,0,0,1-1.26-.83,3.34,3.34,0,0,1-.83-1.26,6.22,6.22,0,0,1-.37-2C2,14.29,2,13.94,2,11s0-3.28.07-4.44a6.22,6.22,0,0,1,.37-2,3.34,3.34,0,0,1,.83-1.26,3.34,3.34,0,0,1,1.26-.83,6.22,6.22,0,0,1,2.05-.37C7.71,2,8.06,2,11,2m0-2C8,0,7.64,0,6.46.07A8,8,0,0,0,3.79.58,5.26,5.26,0,0,0,1.85,1.85,5.26,5.26,0,0,0,.58,3.79,8,8,0,0,0,.07,6.46C0,7.64,0,8,0,11s0,3.36.07,4.54a8,8,0,0,0,.51,2.67,5.26,5.26,0,0,0,1.27,1.94,5.26,5.26,0,0,0,1.94,1.27,8,8,0,0,0,2.67.51C7.64,22,8,22,11,22s3.36,0,4.54-.07a8,8,0,0,0,2.67-.51,5.67,5.67,0,0,0,3.21-3.21,8,8,0,0,0,.51-2.67C22,14.36,22,14,22,11s0-3.36-.07-4.54a8,8,0,0,0-.51-2.67,5.26,5.26,0,0,0-1.27-1.94A5.26,5.26,0,0,0,18.21.58,8,8,0,0,0,15.54.07C14.36,0,14,0,11,0Zm0,5.37A5.65,5.65,0,1,0,16.67,11,5.65,5.65,0,0,0,11,5.37Zm0,9.32A3.67,3.67,0,1,1,14.69,11,3.67,3.67,0,0,1,11,14.69Zm7.14-9.58A1.31,1.31,0,1,1,16.85,3.8,1.31,1.31,0,0,1,18.16,5.11Z"/></svg>