<svg id="Layer_1" data-name="Layer 1" xmlns="http://www.w3.org/2000/svg" viewBox="0 0 835.88 92.32"><defs><style>.cls-1{fill:#fff;}</style></defs><title>RightArtboard 27</title><path class="cls-1" d="M74,8.86V74.54H85.06V8.86Zm70,42.31A25.94,25.94,0,0,0,141,38.38a21.7,21.7,0,0,0-8.5-8.6,25,25,0,0,0-12.34-3,25.52,25.52,0,0,0-12.58,3.09,22.33,22.33,0,0,0-8.71,8.64A24.74,24.74,0,0,0,95.68,50.9a24.44,24.44,0,0,0,3.23,12.53,22.24,22.24,0,0,0,9.16,8.62,31.9,31.9,0,0,0,24.7,1.15,19.86,19.86,0,0,0,8-5.75l-5.93-6.82a17.22,17.22,0,0,1-12.83,5.14,16.65,16.65,0,0,1-10.23-3.06,12.78,12.78,0,0,1-5.08-8.27h37.07C144,53,144,51.93,144,51.17Zm-37.35-4.08a13.51,13.51,0,0,1,26.81,0Zm48.5-19.82V75.68a8.43,8.43,0,0,1-1.64,5.62,5.9,5.9,0,0,1-4.73,1.91,10.41,10.41,0,0,1-6.46-1.87l-3.19,8.24c2.41,1.82,6,2.74,10.62,2.74,5.18,0,9.23-1.51,12.12-4.51s4.34-7.14,4.34-12.4V27.27ZM165.69,8a7.31,7.31,0,0,0-5.05-1.81,7,7,0,0,0-5,1.91,6.18,6.18,0,0,0-2,4.74,6.17,6.17,0,0,0,2,4.72,7,7,0,0,0,5,1.91,6.89,6.89,0,0,0,5.1-2,6.66,6.66,0,0,0,2-4.91A5.9,5.9,0,0,0,165.69,8Zm49.08,23.73q-5.53-5-16-5a40.15,40.15,0,0,0-11.06,1.49,27.06,27.06,0,0,0-8.95,4.35l4.34,8.05a19.74,19.74,0,0,1,6.52-3.46,25.71,25.71,0,0,1,7.82-1.23c3.9,0,6.83.89,8.81,2.66s3,4.3,3,7.6v.72H197q-10.15,0-14.91,3.85A12.51,12.51,0,0,0,177.36,61a12.85,12.85,0,0,0,2.18,7.3,14.17,14.17,0,0,0,6.15,5,22.2,22.2,0,0,0,9.3,1.82,22.73,22.73,0,0,0,9.07-1.63,12.9,12.9,0,0,0,5.8-4.74v5.76h10.43V46.82C220.29,40.1,218.46,35.06,214.77,31.74Zm-5.54,28a10.29,10.29,0,0,1-4.55,5.44,14.3,14.3,0,0,1-7.39,1.91,10.92,10.92,0,0,1-6.65-1.78,5.64,5.64,0,0,1-2.38-4.78q0-6.28,9.56-6.28h11.41ZM275.61,32q-5.39-5.2-14.34-5.21a24.83,24.83,0,0,0-9.37,1.68,17.11,17.11,0,0,0-6.9,4.95v-6.1H234.46V74.54h11.07V50.64q0-6.91,3.53-10.58c2.37-2.45,5.58-3.67,9.66-3.67,3.59,0,6.36,1,8.31,3.14S270,44.74,270,48.86V74.54H281V47.45Q281,37.19,275.61,32ZM330.76,8.86V33.11a17.49,17.49,0,0,0-6.65-4.78,22.41,22.41,0,0,0-8.58-1.59,25,25,0,0,0-12.26,3,21.74,21.74,0,0,0-8.54,8.5,25.27,25.27,0,0,0-3.1,12.66,25.5,25.5,0,0,0,3.1,12.7,21.65,21.65,0,0,0,8.54,8.54,24.88,24.88,0,0,0,12.26,3,23,23,0,0,0,8.9-1.68,17.34,17.34,0,0,0,6.77-5v6.12h10.62V8.86Zm-1.68,49.83A13.18,13.18,0,0,1,324,63.86a15,15,0,0,1-14.33,0,13,13,0,0,1-5-5.17,15.73,15.73,0,0,1-1.87-7.79,15.82,15.82,0,0,1,1.87-7.8,12.91,12.91,0,0,1,5-5.16,14.94,14.94,0,0,1,14.33,0,13.09,13.09,0,0,1,5.06,5.16,16,16,0,0,1,1.85,7.8A15.94,15.94,0,0,1,329.08,58.69Zm37.79-24.51V27.27H356.33V74.54H367.4V51.6q0-7.07,3.63-10.84c2.41-2.51,5.79-3.76,10.09-3.76a14.6,14.6,0,0,1,2.56.26V26.74Q371.64,26.74,366.87,34.18Zm69,4.24a22.74,22.74,0,0,0-9-8.59,28.76,28.76,0,0,0-25.94,0,22.65,22.65,0,0,0-9,8.59,24.15,24.15,0,0,0-3.23,12.48A24.44,24.44,0,0,0,392,63.43a22.52,22.52,0,0,0,9,8.62,28.68,28.68,0,0,0,25.94,0,22.61,22.61,0,0,0,9-8.62,24.43,24.43,0,0,0,3.22-12.53A24.15,24.15,0,0,0,435.87,38.42ZM424,61.6a14.47,14.47,0,0,1-20.14,0,14.75,14.75,0,0,1-3.93-10.7c0-4.42,1.31-8,3.93-10.71a14.47,14.47,0,0,1,20.14,0,14.65,14.65,0,0,1,4,10.71A14.62,14.62,0,0,1,424,61.6Zm80.55,3.72a23.29,23.29,0,0,1-11.42-2.78,20.18,20.18,0,0,1-7.88-7.75,22.32,22.32,0,0,1-2.83-11.24,22.32,22.32,0,0,1,2.83-11.24,20.09,20.09,0,0,1,7.88-7.74,23.19,23.19,0,0,1,11.42-2.8A21.69,21.69,0,0,1,521.05,29l7.44-7a28.35,28.35,0,0,0-10.62-7.71A35.43,35.43,0,0,0,504,11.68a34.91,34.91,0,0,0-17,4.12,30.65,30.65,0,0,0-11.91,11.37,31.39,31.39,0,0,0-4.34,16.38,31.62,31.62,0,0,0,4.29,16.37,30.34,30.34,0,0,0,11.87,11.37,34.7,34.7,0,0,0,16.94,4.12,35.53,35.53,0,0,0,14-2.65,28.46,28.46,0,0,0,10.67-7.7L521.05,58A21.53,21.53,0,0,1,504.5,65.32ZM580,38.42a22.8,22.8,0,0,0-9-8.59,27.1,27.1,0,0,0-13-3.09A26.81,26.81,0,0,0,545,29.83a22.61,22.61,0,0,0-9,8.59,24.15,24.15,0,0,0-3.23,12.48,24.44,24.44,0,0,0,3.23,12.53,22.48,22.48,0,0,0,9,8.62A26.7,26.7,0,0,0,558,75.15a27,27,0,0,0,13-3.1,22.67,22.67,0,0,0,9-8.62,24.44,24.44,0,0,0,3.23-12.53A24.15,24.15,0,0,0,580,38.42ZM568,61.6a14.45,14.45,0,0,1-20.13,0Q544,57.54,544,50.9c0-4.42,1.31-8,3.94-10.71a14.45,14.45,0,0,1,20.13,0,14.65,14.65,0,0,1,4,10.71A14.62,14.62,0,0,1,568,61.6Zm36.29-27.42V27.27H593.81V74.54h11.05V51.6c0-4.71,1.22-8.33,3.63-10.84S614.28,37,618.58,37a14.8,14.8,0,0,1,2.57.26V26.74Q609.12,26.74,604.33,34.18Zm61-25.32V33.11a17.38,17.38,0,0,0-6.64-4.78,22.48,22.48,0,0,0-8.58-1.59,25,25,0,0,0-12.27,3,21.81,21.81,0,0,0-8.54,8.5A25.26,25.26,0,0,0,626.2,50.9a25.5,25.5,0,0,0,3.09,12.7,21.72,21.72,0,0,0,8.54,8.54,24.9,24.9,0,0,0,12.27,3A22.86,22.86,0,0,0,659,73.47a17.34,17.34,0,0,0,6.77-5v6.12h10.62V8.86Zm-1.68,49.83a13,13,0,0,1-5.06,5.17,15,15,0,0,1-14.32,0,13,13,0,0,1-5-5.17,15.83,15.83,0,0,1-1.85-7.79,15.92,15.92,0,0,1,1.85-7.8,12.87,12.87,0,0,1,5-5.16,14.92,14.92,0,0,1,14.32,0,13,13,0,0,1,5.06,5.16,16,16,0,0,1,1.85,7.8A15.94,15.94,0,0,1,663.64,58.69Zm70.49-20.27a22.65,22.65,0,0,0-9-8.59,28.74,28.74,0,0,0-25.93,0,22.61,22.61,0,0,0-9,8.59A24.15,24.15,0,0,0,687,50.9a24.44,24.44,0,0,0,3.23,12.53,22.48,22.48,0,0,0,9,8.62,28.66,28.66,0,0,0,25.93,0,22.52,22.52,0,0,0,9-8.62,24.35,24.35,0,0,0,3.24-12.53A24.06,24.06,0,0,0,734.13,38.42ZM722.23,61.6a13.51,13.51,0,0,1-10.09,4.08,13.36,13.36,0,0,1-10-4.08c-2.63-2.71-3.93-6.28-3.93-10.7s1.3-8,3.93-10.71a13.4,13.4,0,0,1,10-4.08,13.55,13.55,0,0,1,10.09,4.08,14.69,14.69,0,0,1,4,10.71A14.66,14.66,0,0,1,722.23,61.6Zm58.06-34.33L765.16,62.32l-14.7-35H739l20.27,47.27h11.41l20.27-47.27Zm50.05,4.47q-5.54-5-16-5a40.38,40.38,0,0,0-11.07,1.49,26.8,26.8,0,0,0-8.92,4.35l4.33,8.05a19.53,19.53,0,0,1,6.5-3.46A25.94,25.94,0,0,1,813,35.94c3.89,0,6.83.89,8.8,2.66s3,4.3,3,7.6v.72H812.59q-10.17,0-14.91,3.85A12.51,12.51,0,0,0,792.94,61a12.77,12.77,0,0,0,2.17,7.3,14.26,14.26,0,0,0,6.16,5,22.19,22.19,0,0,0,9.29,1.82,22.69,22.69,0,0,0,9.07-1.63,12.9,12.9,0,0,0,5.8-4.74v5.76h10.45V46.82C835.88,40.1,834,35.06,830.34,31.74Zm-5.53,28a10.33,10.33,0,0,1-4.57,5.44,14.22,14.22,0,0,1-7.39,1.91,10.88,10.88,0,0,1-6.63-1.78,5.65,5.65,0,0,1-2.4-4.78q0-6.28,9.56-6.28h11.43ZM33.53,0,0,74.54H11.86l21.6-50.46L55.15,74.54h12Z"/></svg>