<svg id="Layer_1" data-name="Layer 1" xmlns="http://www.w3.org/2000/svg" viewBox="0 0 286 286"><defs><style>.cls-1{fill:#fff;}</style></defs><title>RightArtboard 11 copy</title><path class="cls-1" d="M123.4,55.56A31.65,31.65,0,0,0,91.74,87.22v4.52H87.22a31.66,31.66,0,0,0,0,63.32h67.84V87.22A31.65,31.65,0,0,0,123.4,55.56ZM127.92,146H87.22a22.62,22.62,0,0,1,0-45.23h4.52v9H87.22a13.57,13.57,0,1,0,0,27.14h40.7ZM91.74,118.88v9H87.22a4.52,4.52,0,1,1,0-9Zm36.18,9h-9v-9h9ZM146,146H137V109.83H118.88v-9H137V87.22a13.57,13.57,0,1,0-27.14,0v40.7h-9V87.22a22.62,22.62,0,0,1,45.23,0ZM118.88,91.74V87.22a4.52,4.52,0,1,1,9,0v4.52Zm40-12.87a31.43,31.43,0,0,1,5.22,17.4v67.84H96.27a31.43,31.43,0,0,1-17.4-5.22,31.59,31.59,0,0,0,26.44,14.26h67.84V105.31A31.59,31.59,0,0,0,158.89,78.87ZM177,97a31.43,31.43,0,0,1,5.22,17.4V182.2H114.36A31.43,31.43,0,0,1,97,177a31.59,31.59,0,0,0,26.44,14.26h67.84V123.4A31.59,31.59,0,0,0,177,97Zm18.09,18.09a31.46,31.46,0,0,1,5.22,17.4v67.84H132.45a31.46,31.46,0,0,1-17.4-5.22,31.59,31.59,0,0,0,26.44,14.26h67.84V141.49A31.59,31.59,0,0,0,195.07,115.05Zm37.64,104.88a18.12,18.12,0,0,1-5.29-12.8V159.58a31.59,31.59,0,0,0-14.26-26.44,31.46,31.46,0,0,1,5.22,17.4v67.84H150.54a31.46,31.46,0,0,1-17.4-5.22,31.59,31.59,0,0,0,26.44,14.26h47.55a18.12,18.12,0,0,1,12.8,5.29l19.55,6.77ZM46.52,46.52V81A58.38,58.38,0,0,1,67.88,67.88c.38-1.1.8-2.2,1.25-3.27H55.56v-9H85a50.08,50.08,0,0,0-9.91,19.57A49.87,49.87,0,0,0,50.35,90a48.53,48.53,0,0,0-3.83,4.8v24h.25a40.79,40.79,0,0,1,36.15-36,40.79,40.79,0,0,1,36-36.15v-.25ZM143,286h0A143,143,0,0,1,0,143H0A143,143,0,0,1,143,0h0A143,143,0,0,1,286,143h0A143,143,0,0,1,143,286Z"/></svg>