<?xml version="1.0" encoding="utf-8"?>
<!-- Generator: Adobe Illustrator 23.0.1, SVG Export Plug-In . SVG Version: 6.00 Build 0)  -->
<svg version="1.1" id="Layer_1" xmlns="http://www.w3.org/2000/svg" xmlns:xlink="http://www.w3.org/1999/xlink" x="0px" y="0px"
	 viewBox="0 0 200 200" style="enable-background:new 0 0 200 200;" xml:space="preserve">
<style type="text/css">
	.st0{fill:#FFFFFF;}
</style>
<path class="st0" d="M0,0h10L0,10V0z M5.5,21.2L7,19.7L0,17v2l2,0.8l-2,2l0,0v5l1.4-1.4l-0.8-1.9l3-3L5.5,21.2z M8.7,14.5l-1.3,1.3
	l1.8,1.8L7.8,19l-6.4-6.4l2.8-2.8c0.6-0.6,1.1-1,1.8-1.2c0.6-0.2,1.2-0.3,1.8-0.2c0.4,0.3,0.9,0.6,1.4,1c0.5,0.5,0.8,1,0.9,1.6
	c0.1,0.6,0.1,1.2-0.2,1.8l3.5,0.6L11.8,15L8.7,14.5L8.7,14.5z M8.2,12.1c0-0.4-0.1-0.8-0.5-1.2c-0.4-0.4-0.7-0.5-1.2-0.5
	c-0.4,0-0.9,0.3-1.3,0.7L4,12.3l2.2,2.2l1.2-1.2C7.9,12.9,8.2,12.5,8.2,12.1z M20.3,6.5l-6.4-6.4l-1.5,1.5l3.9,3.9l-7-0.7L8.1,5.9
	l6.4,6.4l1.5-1.5L12,7l7,0.7L20.3,6.5z M23.3,3.5L19.8,0h-3l5,5L23.3,3.5z M24.8,2l1.5-1.5L25.7,0h-2.9L24.8,2z M50,0H30L0,30v20
	L50,0z M90,0H70L0,70v20L90,0z M130,0h-20L0,110v20L130,0z M46.8,132.5l-11.5-22.6l-3.8,3.8l8.1,16.1l-16-8.2l-3.7,3.7l8,16
	L12.2,133l-4.1,4.1l22.7,11.4l4.2-4.2l-7.7-15.4l15.3,7.8L46.8,132.5z M61.6,110.4l-7.9,7.9l2.1,5.2l-4,4l-9.5-24.7l3.9-3.9
	l24.7,9.4l-4.1,4.1L61.6,110.4z M57.4,108.6l-9.2-3.8L52,114L57.4,108.6z M75.3,94.5l-3.4,3.4l4.7,4.7l-3.9,3.9L55.6,89.6l7.4-7.4
	c1.5-1.5,3.1-2.6,4.7-3.2s3.2-0.8,4.7-0.4c1.5,0.3,2.9,1.1,4.2,2.4c1.3,1.3,2.1,2.7,2.4,4.2s0.1,3.1-0.5,4.7l9.3,1.7l-4.2,4.2
	l-8-1.5L75.3,94.5z M73.9,88.1c0.1-1.1-0.3-2.2-1.3-3.1c-1-1-2-1.4-3.1-1.3s-2.3,0.8-3.5,1.9l-3.2,3.2l5.9,5.9l3.2-3.2
	C73.1,90.4,73.8,89.2,73.9,88.1z M106.2,73.1L89.2,56l-3.9,3.9l10.4,10.4l-18.8-1.9l-3.3,3.3l17.1,17.1l3.9-3.9L84.1,74.5l18.9,1.9
	L106.2,73.1z M114.2,65.1L97.2,48l-4,4l17.1,17L114.2,65.1z M133.9,45.4l-17.1-17.1l-3.9,3.9l10.4,10.4l-18.8-1.9l-3.3,3.3l17.1,17
	l3.9-3.9l-10.4-10.4l18.9,1.9L133.9,45.4z M140.6,37.1c2.2-0.7,4.1-1.9,5.9-3.6c1.2-1.2,2.3-2.6,3.1-4.2s1.4-3.2,1.6-4.8l-6.9-6.9
	l-3.6,3.6l5,5c-0.4,1.4-1.2,2.7-2.3,3.8c-1.1,1.1-2.3,1.8-3.6,2.2s-2.6,0.4-3.9,0c-1.3-0.4-2.5-1.1-3.5-2.1
	c-1.1-1.1-1.8-2.3-2.1-3.6c-0.4-1.3-0.3-2.6,0-3.9c0.4-1.3,1.1-2.5,2.2-3.6c1.7-1.7,3.8-2.6,6.3-2.5l0.2-4.9
	c-1.8-0.1-3.5,0.2-5.3,0.9c-1.7,0.7-3.3,1.8-4.8,3.3c-1.8,1.8-3,3.8-3.7,6s-0.7,4.3-0.2,6.5c0.5,2.1,1.6,4.1,3.3,5.7
	c1.7,1.7,3.6,2.8,5.7,3.3C136.2,37.8,138.4,37.7,140.6,37.1z M16.9,197.1l-1.5,1.5l1.5,1.5h3L16.9,197.1z M18.4,195.5l4.5,4.5h2.9
	l-3.4-3.4l7,0.7l1.2-1.2l-6.4-6.4l-1.5,1.5l3.9,3.9l-7-0.7L18.4,195.5z M30.1,186.2c0.6-0.6,1.4-1,2.4-0.9l0.1-1.8
	c-0.7,0-1.3,0.1-2,0.3c-0.6,0.3-1.2,0.7-1.8,1.2c-0.7,0.7-1.1,1.4-1.4,2.2s-0.3,1.6-0.1,2.4c0.2,0.8,0.6,1.5,1.2,2.1s1.3,1,2.1,1.2
	c0.8,0.2,1.6,0.2,2.4-0.1c0.8-0.2,1.5-0.7,2.2-1.4c0.5-0.5,0.8-1,1.2-1.6c0.3-0.6,0.5-1.2,0.6-1.8l-2.6-2.6l-1.3,1.3l1.9,1.9
	c-0.2,0.5-0.4,1-0.9,1.4c-0.4,0.4-0.8,0.7-1.3,0.8s-1,0.1-1.5,0s-0.9-0.4-1.3-0.8c-0.4-0.4-0.7-0.8-0.8-1.3c-0.1-0.5-0.1-1,0-1.5
	C29.4,187,29.7,186.6,30.1,186.2z M170,0h-20l-5,5l10,10L170,0z M6.2,143.8L0,150v20l16.2-16.2L6.2,143.8z M200,50V30l-79.4,79.4
	l-10-10L200,10V0h-10L0,190v10h10l90.6-90.6l10,10L30,200h20L200,50z M198.1,28.7l-4.3-8.5l-1.4,1.4l3,6l-6-3.1l-1.4,1.4l3,6l-5.9-3
	l-1.5,1.5l8.5,4.3l1.6-1.6l-2.9-5.8l5.7,2.9L198.1,28.7z M200,26.7v-5l-1.4-3.5l1.4,0.6v-2l-2.1-0.8l-1.5,1.5L200,26.7L200,26.7z
	 M110.4,190.7l-3.9,3.9l1,2.7l-0.5,0.5l-3.6-9.8l0.5-0.5l9.8,3.6l-0.5,0.5L110.4,190.7z M109.8,190.4l-5.6-2.1l2.1,5.6L109.8,190.4z
	 M119.8,185.1l-3.1-6.9l-0.4,0.4l2.8,6.2l-6.2-2.8l-0.4,0.4l2.8,6.2l-6.1-2.8l-0.5,0.5l6.9,3.1l0.4-0.4l-2.7-6l6,2.7L119.8,185.1z
	 M121.2,181.2c-0.6-0.2-1.2-0.5-1.6-1c-0.5-0.5-0.8-1-1-1.6s-0.2-1.2,0-1.8c0.1-0.6,0.4-1.1,0.9-1.6s1-0.8,1.5-0.9
	c0.6-0.1,1.2-0.1,1.8,0c0.6,0.2,1.1,0.5,1.6,1l0.1,0.1l-4.3,4.3c0.4,0.4,0.9,0.6,1.3,0.7c0.5,0.1,1,0.1,1.5,0s0.9-0.4,1.3-0.8
	c0.3-0.3,0.6-0.7,0.7-1.1c0.2-0.4,0.2-0.8,0.2-1.2h0.6c0,0.5,0,1-0.2,1.4c-0.2,0.5-0.5,0.9-0.9,1.3c-0.5,0.5-1.1,0.8-1.7,1
	C122.4,181.4,121.8,181.4,121.2,181.2z M119.8,179.5l3.8-3.8c-0.4-0.3-0.8-0.6-1.2-0.7c-0.5-0.1-0.9-0.1-1.3,0s-0.8,0.4-1.2,0.7
	c-0.4,0.4-0.6,0.7-0.7,1.2c-0.1,0.4-0.1,0.9,0,1.3C119.2,178.7,119.5,179.1,119.8,179.5z M129.3,174.8c-0.4,0.4-0.7,0.6-1.2,0.8
	c-0.4,0.2-0.8,0.3-1.2,0.4l0.2,0.6c0.4,0,0.8-0.2,1.3-0.4s0.9-0.6,1.3-1c0.6-0.6,1-1.2,1.1-1.8s-0.1-1.1-0.5-1.5
	c-0.3-0.3-0.6-0.5-1-0.5c-0.3,0-0.7,0.1-1,0.2c-0.3,0.2-0.7,0.4-1.2,0.7c-0.4,0.3-0.8,0.5-1,0.6c-0.3,0.1-0.5,0.2-0.8,0.2
	s-0.5-0.1-0.7-0.3c-0.3-0.3-0.4-0.6-0.3-1s0.3-0.8,0.8-1.3c0.3-0.3,0.6-0.5,0.9-0.7s0.7-0.3,1-0.4l-0.2-0.6
	c-0.3,0.1-0.7,0.2-1.1,0.4s-0.8,0.5-1.1,0.8c-0.6,0.6-0.9,1.2-1,1.8s0.1,1.1,0.5,1.5c0.3,0.3,0.7,0.5,1,0.5c0.4,0,0.7-0.1,1-0.2
	c0.3-0.2,0.7-0.4,1.2-0.7c0.4-0.3,0.7-0.5,1-0.6s0.5-0.2,0.8-0.2s0.5,0.1,0.7,0.3c0.3,0.3,0.4,0.6,0.3,1.1
	C130.1,173.9,129.8,174.3,129.3,174.8z M131.5,170.9c-0.6-0.2-1.2-0.5-1.6-1c-0.5-0.5-0.8-1-1-1.6s-0.2-1.2,0-1.8s0.5-1.1,1-1.6
	s1-0.8,1.6-1s1.2-0.2,1.8,0s1.2,0.5,1.6,1c0.5,0.5,0.8,1,1,1.6s0.2,1.2,0,1.8s-0.5,1.1-1,1.6s-1,0.8-1.6,1
	C132.7,171.1,132.1,171.1,131.5,170.9z M130.4,169.4c0.4,0.4,0.9,0.7,1.4,0.8s1,0.2,1.5,0c0.5-0.1,0.9-0.4,1.3-0.8
	c0.4-0.4,0.6-0.8,0.8-1.3c0.1-0.5,0.1-1,0-1.5s-0.4-0.9-0.8-1.4c-0.4-0.4-0.9-0.7-1.4-0.8s-1-0.2-1.5,0c-0.5,0.1-0.9,0.4-1.3,0.8
	c-0.4,0.4-0.6,0.8-0.8,1.3c-0.1,0.5-0.1,1,0,1.5C129.7,168.6,130,169,130.4,169.4z M142.1,154.4c0.6,0,1.1,0.3,1.7,0.9l2.9,2.9
	l0.5-0.5l-2.9-2.9c-0.7-0.7-1.4-1-2.1-1c-0.7,0-1.4,0.3-2,0.9c-0.5,0.5-0.8,1-0.9,1.6c-0.1,0.6-0.1,1.1,0.1,1.7
	c-0.5-0.3-1.1-0.3-1.6-0.2s-1,0.4-1.5,0.8c-0.5,0.5-0.7,0.9-0.9,1.5c-0.1,0.5-0.1,1,0.1,1.6l-1.1-1.1l-0.5,0.5l5,5l0.5-0.5l-2.7-2.7
	c-0.6-0.6-0.9-1.2-0.9-1.9s0.2-1.3,0.8-1.9c0.5-0.5,1-0.7,1.6-0.7s1.1,0.3,1.7,0.9l2.9,2.9l0.5-0.5l-2.7-2.7
	c-0.6-0.6-0.9-1.2-0.9-1.9s0.2-1.3,0.8-1.9C141,154.6,141.5,154.4,142.1,154.4z M147.7,154.7c-0.6-0.2-1.2-0.5-1.6-1
	c-0.5-0.5-0.8-1-1-1.6s-0.2-1.2,0-1.8s0.4-1.1,0.9-1.6s1-0.8,1.5-0.9c0.6-0.1,1.2-0.1,1.8,0c0.6,0.2,1.1,0.5,1.6,1l0.1,0.1l-4.3,4.3
	c0.4,0.4,0.8,0.6,1.3,0.7c0.5,0.1,1,0.1,1.5,0s0.9-0.4,1.3-0.8c0.3-0.3,0.6-0.7,0.7-1.1c0.2-0.4,0.2-0.8,0.2-1.2h0.6
	c0,0.5,0,1-0.2,1.4c-0.2,0.5-0.5,0.9-0.9,1.3c-0.5,0.5-1.1,0.8-1.7,1C148.9,154.9,148.3,154.9,147.7,154.7z M146.3,153l3.8-3.8
	c-0.4-0.3-0.8-0.6-1.2-0.7c-0.5-0.1-0.9-0.1-1.3,0c-0.4,0.1-0.8,0.4-1.2,0.7c-0.4,0.4-0.6,0.7-0.7,1.2c-0.1,0.4-0.1,0.9,0,1.3
	C145.7,152.2,146,152.6,146.3,153z M159,133.3c0.8-0.8,1.8-1.3,2.9-1.3v-0.6c-0.6,0-1.2,0.1-1.7,0.3c-0.6,0.3-1.1,0.6-1.6,1.1
	c-0.7,0.7-1.1,1.4-1.3,2.2s-0.2,1.6,0,2.5c0.2,0.8,0.6,1.6,1.3,2.2c0.6,0.6,1.4,1.1,2.2,1.3s1.6,0.2,2.5,0c0.8-0.2,1.6-0.7,2.2-1.3
	c0.5-0.5,0.8-1,1.1-1.6s0.4-1.2,0.4-1.8h-0.6c0,1.1-0.4,2-1.3,2.9c-0.6,0.6-1.2,0.9-1.9,1.2c-0.7,0.2-1.4,0.2-2.1,0
	c-0.7-0.2-1.3-0.6-1.9-1.1c-0.6-0.6-0.9-1.2-1.1-1.9c-0.2-0.7-0.2-1.4,0-2.1C158,134.5,158.4,133.8,159,133.3z M167.5,135
	c-0.6-0.2-1.2-0.5-1.6-1c-0.5-0.5-0.8-1-1-1.6s-0.2-1.2,0-1.8s0.5-1.1,1-1.6s1-0.8,1.6-1s1.2-0.2,1.8,0s1.1,0.5,1.6,1s0.8,1,1,1.6
	s0.2,1.2,0,1.8s-0.5,1.1-1,1.6s-1,0.8-1.6,1C168.7,135.1,168.1,135.1,167.5,135z M166.3,133.5c0.4,0.4,0.9,0.7,1.4,0.8s1,0.2,1.5,0
	c0.5-0.1,0.9-0.4,1.3-0.8c0.4-0.4,0.6-0.8,0.8-1.3c0.1-0.5,0.1-1,0-1.5s-0.4-0.9-0.8-1.4c-0.4-0.4-0.9-0.7-1.4-0.8s-1-0.2-1.5,0
	c-0.5,0.1-0.9,0.4-1.3,0.8c-0.4,0.4-0.6,0.8-0.8,1.3c-0.1,0.5-0.1,1,0,1.5C165.7,132.6,165.9,133.1,166.3,133.5z M174.3,122.2
	c0.6,0,1.2,0.3,1.7,0.9l2.9,2.9l0.5-0.5l-2.9-2.9c-0.7-0.7-1.4-1-2.1-1c-0.7,0-1.4,0.3-2,0.9c-0.5,0.5-0.8,1-0.9,1.5
	c-0.1,0.5-0.1,1.1,0.1,1.6l-1.1-1.1L170,125l5,5l0.5-0.5l-2.7-2.7c-0.6-0.6-0.9-1.2-0.9-1.9c0-0.7,0.3-1.3,0.9-1.9
	C173.1,122.5,173.7,122.2,174.3,122.2z M181.5,122.8c0.5,0,0.9-0.2,1.4-0.6c0.2-0.2,0.4-0.4,0.5-0.7c0.1-0.2,0.2-0.5,0.2-0.7
	l-0.5-0.1c0,0.4-0.2,0.7-0.5,1.1c-0.3,0.3-0.6,0.5-1,0.4c-0.3,0-0.7-0.2-1-0.5l-3.2-3.2l1.6-1.6l-0.4-0.4l-1.6,1.6l-1.1-1.1
	l-0.5,0.5l1.1,1.1l-0.9,0.9l0.4,0.4l0.9-0.9l3.3,3.3C180.5,122.5,181,122.8,181.5,122.8z M183.6,118.9c-0.6-0.2-1.2-0.5-1.6-1
	c-0.5-0.5-0.8-1-1-1.6s-0.2-1.2,0-1.8c0.1-0.6,0.4-1.1,0.9-1.6s1-0.8,1.5-0.9c0.6-0.1,1.2-0.1,1.8,0c0.6,0.2,1.1,0.5,1.6,1l0.1,0.1
	l-4.3,4.3c0.4,0.4,0.9,0.6,1.3,0.7c0.5,0.1,1,0.1,1.5,0s0.9-0.4,1.3-0.8c0.3-0.3,0.6-0.7,0.7-1.1c0.2-0.4,0.2-0.8,0.2-1.2h0.6
	c0,0.5,0,1-0.2,1.4c-0.2,0.5-0.5,0.9-0.9,1.3c-0.5,0.5-1.1,0.8-1.7,1C184.8,119.1,184.2,119.1,183.6,118.9z M182.1,117.2l3.8-3.8
	c-0.4-0.3-0.8-0.6-1.2-0.7c-0.5-0.1-0.9-0.1-1.3,0c-0.4,0.1-0.8,0.4-1.2,0.7c-0.4,0.4-0.6,0.7-0.7,1.2c-0.1,0.4-0.1,0.9,0,1.3
	C181.6,116.4,181.8,116.8,182.1,117.2z M190.1,106.4c0.6,0,1.2,0.3,1.7,0.9l2.9,2.9l0.5-0.5l-2.9-2.9c-0.7-0.7-1.4-1-2.1-1
	c-0.7,0-1.4,0.3-2,0.9c-0.5,0.5-0.8,1-0.9,1.5c-0.1,0.5-0.1,1.1,0.1,1.6l-1.1-1.1l-0.5,0.5l5,5l0.5-0.5l-2.7-2.7
	c-0.6-0.6-0.9-1.2-0.9-1.9c0-0.7,0.3-1.3,0.9-1.9C189,106.7,189.5,106.4,190.1,106.4z M197.3,106.9c0.5,0,0.9-0.2,1.4-0.6
	c0.2-0.2,0.4-0.4,0.5-0.7c0.1-0.2,0.2-0.5,0.2-0.7l-0.5-0.1c0,0.4-0.2,0.7-0.5,1.1c-0.3,0.3-0.6,0.5-1,0.4c-0.3,0-0.7-0.2-1-0.5
	l-3.2-3.2l1.6-1.6l-0.4-0.4l-1.6,1.6l-1.1-1.1l-0.5,0.5l1.1,1.1l-0.9,0.9l0.4,0.4l0.9-0.9l3.3,3.3
	C196.4,106.7,196.8,106.9,197.3,106.9z M200,90V70L70,200h20L200,90z M200,130v-20l-90,90h20L200,130z M200,170v-20l-50,50h20
	L200,170z M200,190l-10,10h10V190z M112.3,152.9l-6.3-6.3l-0.5,0.5l6.7,6.7l4.4-4.4l-0.4-0.4L112.3,152.9z M116.2,147.5
	c-0.6-0.2-1.2-0.5-1.6-1c-0.5-0.5-0.8-1-1-1.6s-0.2-1.2,0-1.8s0.5-1.1,1-1.6s1-0.8,1.6-1s1.2-0.2,1.8,0c0.6,0.2,1.1,0.5,1.6,1
	s0.8,1,1,1.6s0.2,1.2,0,1.8s-0.5,1.1-1,1.6s-1,0.8-1.6,1C117.4,147.6,116.8,147.6,116.2,147.5z M116.4,146.8c0.5,0.1,1,0.2,1.5,0
	c0.5-0.1,0.9-0.4,1.3-0.8c0.4-0.4,0.6-0.8,0.8-1.3c0.1-0.5,0.1-1,0-1.5s-0.4-0.9-0.8-1.4c-0.4-0.4-0.9-0.7-1.4-0.8s-1-0.2-1.5,0
	c-0.5,0.1-0.9,0.4-1.3,0.8c-0.4,0.4-0.6,0.8-0.8,1.3c-0.1,0.5-0.1,1,0,1.5s0.4,0.9,0.8,1.4C115.4,146.4,115.9,146.7,116.4,146.8z
	 M126.7,139.4l-0.9-0.9c0.1,0.5,0.1,0.9,0,1.4s-0.4,0.9-0.9,1.3c-0.6,0.6-1.1,0.9-1.7,0.9c-0.6,0.1-1.1-0.1-1.5-0.6
	c-0.4-0.4-0.6-0.9-0.6-1.5s0.4-1.2,1-1.8l1.7-1.7l-0.4-0.4c-0.5-0.5-1-0.7-1.4-0.7c-0.5,0-1,0.3-1.5,0.7c-0.3,0.3-0.6,0.7-0.8,1.1
	c-0.2,0.4-0.3,0.8-0.3,1.2l-0.6-0.1c0-0.5,0.2-0.9,0.4-1.4c0.2-0.5,0.5-0.9,0.9-1.3c0.6-0.6,1.3-0.9,1.9-1c0.6,0,1.3,0.3,1.9,0.9
	l3.2,3.2L126.7,139.4z M125.2,137.9l-0.9-0.9l-1.7,1.7c-0.5,0.5-0.8,0.9-0.8,1.3c0,0.4,0.1,0.8,0.4,1.1s0.7,0.5,1.1,0.4
	s0.9-0.3,1.3-0.7s0.7-0.9,0.8-1.3C125.5,138.9,125.4,138.4,125.2,137.9z M133.1,132.9l-1.2-1.2c0.2,0.6,0.2,1.2,0.1,1.7
	c-0.1,0.6-0.4,1.1-0.9,1.5c-0.5,0.5-1,0.8-1.6,0.9c-0.6,0.2-1.2,0.2-1.8,0c-0.6-0.2-1.1-0.5-1.6-1s-0.8-1-1-1.6s-0.2-1.2,0-1.8
	s0.5-1.1,0.9-1.6c0.4-0.4,1-0.7,1.5-0.9c0.6-0.1,1.1-0.1,1.7,0l-3.3-3.3l0.5-0.5l7.1,7.1L133.1,132.9z M131.4,131.8
	c-0.1-0.5-0.4-0.9-0.8-1.4c-0.4-0.4-0.9-0.7-1.4-0.8s-1-0.2-1.5,0c-0.5,0.1-0.9,0.4-1.3,0.8c-0.4,0.4-0.6,0.8-0.8,1.3
	c-0.1,0.5-0.1,1,0,1.5s0.4,0.9,0.8,1.4c0.4,0.4,0.9,0.7,1.4,0.8c0.5,0.1,1,0.2,1.5,0c0.5-0.1,0.9-0.4,1.3-0.8
	c0.4-0.4,0.6-0.8,0.8-1.3C131.6,132.8,131.6,132.3,131.4,131.8z M136.1,129.9l-5-5l-0.5,0.5l5,5L136.1,129.9z M129.6,124
	c0.1-0.1,0.2-0.2,0.2-0.4c0-0.2-0.1-0.3-0.2-0.4c-0.1-0.1-0.2-0.2-0.4-0.2s-0.3,0.1-0.4,0.2c-0.1,0.1-0.2,0.2-0.2,0.4
	c0,0.2,0.1,0.3,0.2,0.4c0.1,0.1,0.2,0.2,0.4,0.2C129.4,124.1,129.5,124.1,129.6,124z M137.5,120.2c0.6,0,1.1,0.3,1.7,0.9l2.9,2.9
	l0.5-0.5l-2.9-2.9c-0.7-0.7-1.4-1-2.1-1c-0.7,0-1.4,0.3-2,0.9c-0.5,0.5-0.8,1-0.9,1.5c-0.1,0.5-0.1,1.1,0.1,1.6l-1.1-1.1l-0.5,0.5
	l5,5l0.5-0.5l-2.7-2.7c-0.6-0.6-0.9-1.2-0.9-1.9c0-0.7,0.3-1.3,0.9-1.9C136.4,120.4,136.9,120.2,137.5,120.2z M148.1,120.8
	c0.7-0.7,1-1.3,1-2c0-0.6-0.3-1.3-1-2l-0.8-0.8c0.2,0.6,0.2,1.1,0,1.7s-0.5,1.1-0.9,1.5c-0.5,0.5-1,0.8-1.6,1s-1.2,0.2-1.8,0
	s-1.1-0.5-1.6-0.9c-0.5-0.5-0.8-1-0.9-1.6c-0.2-0.6-0.1-1.2,0-1.8c0.2-0.6,0.5-1.1,1-1.6s1-0.8,1.6-0.9c0.6-0.2,1.1-0.2,1.7,0
	l-1.1-1.1l0.5-0.5l4.5,4.5c0.8,0.8,1.2,1.6,1.2,2.4s-0.4,1.6-1.2,2.4c-0.5,0.5-1,0.8-1.5,1.1c-0.6,0.3-1.1,0.4-1.6,0.4l-0.1-0.6
	c0.5,0,1-0.1,1.4-0.4C147.3,121.5,147.7,121.2,148.1,120.8z M146.8,116.1c-0.1-0.5-0.4-0.9-0.8-1.3c-0.4-0.4-0.8-0.6-1.3-0.8
	c-0.5-0.1-1-0.1-1.4,0c-0.5,0.1-0.9,0.4-1.3,0.8c-0.4,0.4-0.7,0.8-0.8,1.3s-0.1,1,0,1.4c0.1,0.5,0.4,0.9,0.8,1.3
	c0.4,0.4,0.8,0.7,1.3,0.8c0.5,0.1,1,0.1,1.4,0c0.5-0.1,0.9-0.4,1.3-0.8c0.4-0.4,0.7-0.8,0.8-1.3
	C146.9,117.1,146.9,116.6,146.8,116.1z"/>
</svg>
